G04 #@! TF.GenerationSoftware,KiCad,Pcbnew,(5.1.5-0-10_14)*
G04 #@! TF.CreationDate,2021-06-21T18:30:40+12:00*
G04 #@! TF.ProjectId,PiPortableBackingBoard,5069506f-7274-4616-926c-654261636b69,rev?*
G04 #@! TF.SameCoordinates,Original*
G04 #@! TF.FileFunction,Paste,Bot*
G04 #@! TF.FilePolarity,Positive*
%FSLAX46Y46*%
G04 Gerber Fmt 4.6, Leading zero omitted, Abs format (unit mm)*
G04 Created by KiCad (PCBNEW (5.1.5-0-10_14)) date 2021-06-21 18:30:40*
%MOMM*%
%LPD*%
G04 APERTURE LIST*
%ADD10C,0.100000*%
G04 APERTURE END LIST*
D10*
G36*
X145429461Y-187968145D02*
G01*
X145432306Y-187958766D01*
X145436927Y-187950121D01*
X145443145Y-187942545D01*
X145450721Y-187936327D01*
X145459366Y-187931706D01*
X145468745Y-187928861D01*
X145478438Y-187927900D01*
X151842000Y-187920062D01*
X151842000Y-186749963D01*
X145478463Y-186745200D01*
X145468709Y-186744232D01*
X145459331Y-186741380D01*
X145450690Y-186736753D01*
X145443118Y-186730529D01*
X145436906Y-186722947D01*
X145432292Y-186714300D01*
X145429453Y-186704918D01*
X145428500Y-186695200D01*
X145428500Y-186187200D01*
X145429461Y-186177445D01*
X145432306Y-186168066D01*
X145436927Y-186159421D01*
X145443145Y-186151845D01*
X145450721Y-186145627D01*
X145459366Y-186141006D01*
X145468745Y-186138161D01*
X145478537Y-186137200D01*
X151842000Y-186141963D01*
X151842000Y-184972000D01*
X145542000Y-184972000D01*
X145532245Y-184971039D01*
X145522866Y-184968194D01*
X145514221Y-184963573D01*
X145506645Y-184957355D01*
X145500427Y-184949779D01*
X145495806Y-184941134D01*
X145492961Y-184931755D01*
X145492000Y-184922000D01*
X145492000Y-184414000D01*
X145492961Y-184404245D01*
X145495806Y-184394866D01*
X145500427Y-184386221D01*
X145506645Y-184378645D01*
X145514221Y-184372427D01*
X145522866Y-184367806D01*
X145532245Y-184364961D01*
X145542000Y-184364000D01*
X152019000Y-184364000D01*
X152028755Y-184364961D01*
X152038134Y-184367806D01*
X152049000Y-184374000D01*
X152545000Y-184746000D01*
X152900000Y-184746000D01*
X152900000Y-188746000D01*
X152574751Y-188746000D01*
X152573194Y-188751134D01*
X152568603Y-188759735D01*
X152314603Y-189140735D01*
X152308392Y-189148318D01*
X152300822Y-189154544D01*
X152292182Y-189159174D01*
X152282806Y-189162029D01*
X152273000Y-189163000D01*
X151892000Y-189163000D01*
X151882245Y-189162039D01*
X151872866Y-189159194D01*
X151864221Y-189154573D01*
X151856645Y-189148355D01*
X151850427Y-189140779D01*
X151845806Y-189132134D01*
X151842961Y-189122755D01*
X151842000Y-189113000D01*
X151842000Y-188528000D01*
X145478500Y-188528000D01*
X145468745Y-188527039D01*
X145459366Y-188524194D01*
X145450721Y-188519573D01*
X145443145Y-188513355D01*
X145436927Y-188505779D01*
X145432306Y-188497134D01*
X145429461Y-188487755D01*
X145428500Y-188478000D01*
X145428500Y-187977900D01*
X145429461Y-187968145D01*
G37*
G36*
X151623539Y-185785755D02*
G01*
X151620694Y-185795134D01*
X151616073Y-185803779D01*
X151609855Y-185811355D01*
X151602279Y-185817573D01*
X151593634Y-185822194D01*
X151584255Y-185825039D01*
X151574500Y-185826000D01*
X145147500Y-185826000D01*
X145147500Y-186996136D01*
X151511136Y-187013500D01*
X151520888Y-187014488D01*
X151530260Y-187017358D01*
X151538892Y-187022002D01*
X151546452Y-187028241D01*
X151552649Y-187035835D01*
X151557246Y-187044492D01*
X151560066Y-187053879D01*
X151561000Y-187063500D01*
X151561000Y-187554000D01*
X151560039Y-187563755D01*
X151557194Y-187573134D01*
X151552573Y-187581779D01*
X151546355Y-187589355D01*
X151538779Y-187595573D01*
X151530134Y-187600194D01*
X151520755Y-187603039D01*
X151511000Y-187604000D01*
X145147500Y-187604000D01*
X145147500Y-188774000D01*
X151511000Y-188774000D01*
X151520755Y-188774961D01*
X151530134Y-188777806D01*
X151538779Y-188782427D01*
X151546355Y-188788645D01*
X151552573Y-188796221D01*
X151557194Y-188804866D01*
X151560039Y-188814245D01*
X151561000Y-188824000D01*
X151561000Y-189349500D01*
X151560039Y-189359255D01*
X151557194Y-189368634D01*
X151552573Y-189377279D01*
X151546355Y-189384855D01*
X151538779Y-189391073D01*
X151530134Y-189395694D01*
X151520755Y-189398539D01*
X151510866Y-189399500D01*
X144970366Y-189382000D01*
X144960614Y-189381013D01*
X144951242Y-189378143D01*
X144940500Y-189372000D01*
X144444500Y-189000000D01*
X144089500Y-189000000D01*
X144089500Y-185000000D01*
X144414749Y-185000000D01*
X144416306Y-184994866D01*
X144420897Y-184986265D01*
X144674897Y-184605265D01*
X144681108Y-184597682D01*
X144688678Y-184591456D01*
X144697318Y-184586826D01*
X144706694Y-184583971D01*
X144716500Y-184583000D01*
X145097500Y-184583000D01*
X145107255Y-184583961D01*
X145116634Y-184586806D01*
X145125279Y-184591427D01*
X145132855Y-184597645D01*
X145139073Y-184605221D01*
X145143694Y-184613866D01*
X145146539Y-184623245D01*
X145147500Y-184633000D01*
X145147500Y-185218135D01*
X151574635Y-185235500D01*
X151584387Y-185236487D01*
X151593759Y-185239358D01*
X151602391Y-185244002D01*
X151609951Y-185250240D01*
X151616148Y-185257834D01*
X151620746Y-185266491D01*
X151623565Y-185275878D01*
X151624500Y-185285500D01*
X151624500Y-185776000D01*
X151623539Y-185785755D01*
G37*
G36*
X134923039Y-185849255D02*
G01*
X134920194Y-185858634D01*
X134915573Y-185867279D01*
X134909355Y-185874855D01*
X134901779Y-185881073D01*
X134893134Y-185885694D01*
X134883755Y-185888539D01*
X134874000Y-185889500D01*
X124256000Y-185889500D01*
X124256000Y-187059500D01*
X134874000Y-187059500D01*
X134883755Y-187060461D01*
X134893134Y-187063306D01*
X134901779Y-187067927D01*
X134909355Y-187074145D01*
X134915573Y-187081721D01*
X134920194Y-187090366D01*
X134923039Y-187099745D01*
X134924000Y-187109500D01*
X134924000Y-187617500D01*
X134923039Y-187627255D01*
X134920194Y-187636634D01*
X134915573Y-187645279D01*
X134909355Y-187652855D01*
X134901779Y-187659073D01*
X134893134Y-187663694D01*
X134883755Y-187666539D01*
X134874000Y-187667500D01*
X124256000Y-187667500D01*
X124256000Y-188837500D01*
X134874000Y-188837500D01*
X134883755Y-188838461D01*
X134893134Y-188841306D01*
X134901779Y-188845927D01*
X134909355Y-188852145D01*
X134915573Y-188859721D01*
X134920194Y-188868366D01*
X134923039Y-188877745D01*
X134924000Y-188887500D01*
X134924000Y-189395500D01*
X134923039Y-189405255D01*
X134920194Y-189414634D01*
X134915573Y-189423279D01*
X134909355Y-189430855D01*
X134901779Y-189437073D01*
X134893134Y-189441694D01*
X134883755Y-189444539D01*
X134874000Y-189445500D01*
X124079000Y-189445500D01*
X124069245Y-189444539D01*
X124059866Y-189441694D01*
X124049000Y-189435500D01*
X123553000Y-189063500D01*
X123198000Y-189063500D01*
X123198000Y-185063500D01*
X123523249Y-185063500D01*
X123524806Y-185058366D01*
X123529397Y-185049765D01*
X123783397Y-184668765D01*
X123789608Y-184661182D01*
X123797178Y-184654956D01*
X123805818Y-184650326D01*
X123815194Y-184647471D01*
X123825000Y-184646500D01*
X124206000Y-184646500D01*
X124215755Y-184647461D01*
X124225134Y-184650306D01*
X124233779Y-184654927D01*
X124241355Y-184661145D01*
X124247573Y-184668721D01*
X124252194Y-184677366D01*
X124255039Y-184686745D01*
X124256000Y-184696500D01*
X124256000Y-185281500D01*
X134874000Y-185281500D01*
X134883755Y-185282461D01*
X134893134Y-185285306D01*
X134901779Y-185289927D01*
X134909355Y-185296145D01*
X134915573Y-185303721D01*
X134920194Y-185312366D01*
X134923039Y-185321745D01*
X134924000Y-185331500D01*
X134924000Y-185839500D01*
X134923039Y-185849255D01*
G37*
G36*
X124537961Y-188006245D02*
G01*
X124540806Y-187996866D01*
X124545427Y-187988221D01*
X124551645Y-187980645D01*
X124559221Y-187974427D01*
X124567866Y-187969806D01*
X124577245Y-187966961D01*
X124587000Y-187966000D01*
X135205000Y-187966000D01*
X135205000Y-186796000D01*
X124587000Y-186796000D01*
X124577245Y-186795039D01*
X124567866Y-186792194D01*
X124559221Y-186787573D01*
X124551645Y-186781355D01*
X124545427Y-186773779D01*
X124540806Y-186765134D01*
X124537961Y-186755755D01*
X124537000Y-186746000D01*
X124537000Y-186238000D01*
X124537961Y-186228245D01*
X124540806Y-186218866D01*
X124545427Y-186210221D01*
X124551645Y-186202645D01*
X124559221Y-186196427D01*
X124567866Y-186191806D01*
X124577245Y-186188961D01*
X124587000Y-186188000D01*
X135205000Y-186188000D01*
X135205000Y-185018000D01*
X124587000Y-185018000D01*
X124577245Y-185017039D01*
X124567866Y-185014194D01*
X124559221Y-185009573D01*
X124551645Y-185003355D01*
X124545427Y-184995779D01*
X124540806Y-184987134D01*
X124537961Y-184977755D01*
X124537000Y-184968000D01*
X124537000Y-184460000D01*
X124537961Y-184450245D01*
X124540806Y-184440866D01*
X124545427Y-184432221D01*
X124551645Y-184424645D01*
X124559221Y-184418427D01*
X124567866Y-184413806D01*
X124577245Y-184410961D01*
X124587000Y-184410000D01*
X135382000Y-184410000D01*
X135391755Y-184410961D01*
X135401134Y-184413806D01*
X135412000Y-184420000D01*
X135908000Y-184792000D01*
X136263000Y-184792000D01*
X136263000Y-188792000D01*
X135937751Y-188792000D01*
X135936194Y-188797134D01*
X135931603Y-188805735D01*
X135677603Y-189186735D01*
X135671392Y-189194318D01*
X135663822Y-189200544D01*
X135655182Y-189205174D01*
X135645806Y-189208029D01*
X135636000Y-189209000D01*
X135255000Y-189209000D01*
X135245245Y-189208039D01*
X135235866Y-189205194D01*
X135227221Y-189200573D01*
X135219645Y-189194355D01*
X135213427Y-189186779D01*
X135208806Y-189178134D01*
X135205961Y-189168755D01*
X135205000Y-189159000D01*
X135205000Y-188574000D01*
X124587000Y-188574000D01*
X124577245Y-188573039D01*
X124567866Y-188570194D01*
X124559221Y-188565573D01*
X124551645Y-188559355D01*
X124545427Y-188551779D01*
X124540806Y-188543134D01*
X124537961Y-188533755D01*
X124537000Y-188524000D01*
X124537000Y-188016000D01*
X124537961Y-188006245D01*
G37*
G36*
X177941461Y-187968145D02*
G01*
X177944306Y-187958766D01*
X177948927Y-187950121D01*
X177955145Y-187942545D01*
X177962721Y-187936327D01*
X177971366Y-187931706D01*
X177980745Y-187928861D01*
X177990438Y-187927900D01*
X184354000Y-187920062D01*
X184354000Y-186749963D01*
X177990463Y-186745200D01*
X177980709Y-186744232D01*
X177971331Y-186741380D01*
X177962690Y-186736753D01*
X177955118Y-186730529D01*
X177948906Y-186722947D01*
X177944292Y-186714300D01*
X177941453Y-186704918D01*
X177940500Y-186695200D01*
X177940500Y-186187200D01*
X177941461Y-186177445D01*
X177944306Y-186168066D01*
X177948927Y-186159421D01*
X177955145Y-186151845D01*
X177962721Y-186145627D01*
X177971366Y-186141006D01*
X177980745Y-186138161D01*
X177990537Y-186137200D01*
X184354000Y-186141963D01*
X184354000Y-184972000D01*
X178054000Y-184972000D01*
X178044245Y-184971039D01*
X178034866Y-184968194D01*
X178026221Y-184963573D01*
X178018645Y-184957355D01*
X178012427Y-184949779D01*
X178007806Y-184941134D01*
X178004961Y-184931755D01*
X178004000Y-184922000D01*
X178004000Y-184414000D01*
X178004961Y-184404245D01*
X178007806Y-184394866D01*
X178012427Y-184386221D01*
X178018645Y-184378645D01*
X178026221Y-184372427D01*
X178034866Y-184367806D01*
X178044245Y-184364961D01*
X178054000Y-184364000D01*
X184531000Y-184364000D01*
X184540755Y-184364961D01*
X184550134Y-184367806D01*
X184561000Y-184374000D01*
X185057000Y-184746000D01*
X185412000Y-184746000D01*
X185412000Y-188746000D01*
X185086751Y-188746000D01*
X185085194Y-188751134D01*
X185080603Y-188759735D01*
X184826603Y-189140735D01*
X184820392Y-189148318D01*
X184812822Y-189154544D01*
X184804182Y-189159174D01*
X184794806Y-189162029D01*
X184785000Y-189163000D01*
X184404000Y-189163000D01*
X184394245Y-189162039D01*
X184384866Y-189159194D01*
X184376221Y-189154573D01*
X184368645Y-189148355D01*
X184362427Y-189140779D01*
X184357806Y-189132134D01*
X184354961Y-189122755D01*
X184354000Y-189113000D01*
X184354000Y-188528000D01*
X177990500Y-188528000D01*
X177980745Y-188527039D01*
X177971366Y-188524194D01*
X177962721Y-188519573D01*
X177955145Y-188513355D01*
X177948927Y-188505779D01*
X177944306Y-188497134D01*
X177941461Y-188487755D01*
X177940500Y-188478000D01*
X177940500Y-187977900D01*
X177941461Y-187968145D01*
G37*
G36*
X184135539Y-185785755D02*
G01*
X184132694Y-185795134D01*
X184128073Y-185803779D01*
X184121855Y-185811355D01*
X184114279Y-185817573D01*
X184105634Y-185822194D01*
X184096255Y-185825039D01*
X184086500Y-185826000D01*
X177659500Y-185826000D01*
X177659500Y-186996136D01*
X184023136Y-187013500D01*
X184032888Y-187014488D01*
X184042260Y-187017358D01*
X184050892Y-187022002D01*
X184058452Y-187028241D01*
X184064649Y-187035835D01*
X184069246Y-187044492D01*
X184072066Y-187053879D01*
X184073000Y-187063500D01*
X184073000Y-187554000D01*
X184072039Y-187563755D01*
X184069194Y-187573134D01*
X184064573Y-187581779D01*
X184058355Y-187589355D01*
X184050779Y-187595573D01*
X184042134Y-187600194D01*
X184032755Y-187603039D01*
X184023000Y-187604000D01*
X177659500Y-187604000D01*
X177659500Y-188774000D01*
X184023000Y-188774000D01*
X184032755Y-188774961D01*
X184042134Y-188777806D01*
X184050779Y-188782427D01*
X184058355Y-188788645D01*
X184064573Y-188796221D01*
X184069194Y-188804866D01*
X184072039Y-188814245D01*
X184073000Y-188824000D01*
X184073000Y-189349500D01*
X184072039Y-189359255D01*
X184069194Y-189368634D01*
X184064573Y-189377279D01*
X184058355Y-189384855D01*
X184050779Y-189391073D01*
X184042134Y-189395694D01*
X184032755Y-189398539D01*
X184022866Y-189399500D01*
X177482366Y-189382000D01*
X177472614Y-189381013D01*
X177463242Y-189378143D01*
X177452500Y-189372000D01*
X176956500Y-189000000D01*
X176601500Y-189000000D01*
X176601500Y-185000000D01*
X176926749Y-185000000D01*
X176928306Y-184994866D01*
X176932897Y-184986265D01*
X177186897Y-184605265D01*
X177193108Y-184597682D01*
X177200678Y-184591456D01*
X177209318Y-184586826D01*
X177218694Y-184583971D01*
X177228500Y-184583000D01*
X177609500Y-184583000D01*
X177619255Y-184583961D01*
X177628634Y-184586806D01*
X177637279Y-184591427D01*
X177644855Y-184597645D01*
X177651073Y-184605221D01*
X177655694Y-184613866D01*
X177658539Y-184623245D01*
X177659500Y-184633000D01*
X177659500Y-185218135D01*
X184086635Y-185235500D01*
X184096387Y-185236487D01*
X184105759Y-185239358D01*
X184114391Y-185244002D01*
X184121951Y-185250240D01*
X184128148Y-185257834D01*
X184132746Y-185266491D01*
X184135565Y-185275878D01*
X184136500Y-185285500D01*
X184136500Y-185776000D01*
X184135539Y-185785755D01*
G37*
G36*
X167435039Y-185849255D02*
G01*
X167432194Y-185858634D01*
X167427573Y-185867279D01*
X167421355Y-185874855D01*
X167413779Y-185881073D01*
X167405134Y-185885694D01*
X167395755Y-185888539D01*
X167386000Y-185889500D01*
X156768000Y-185889500D01*
X156768000Y-187059500D01*
X167386000Y-187059500D01*
X167395755Y-187060461D01*
X167405134Y-187063306D01*
X167413779Y-187067927D01*
X167421355Y-187074145D01*
X167427573Y-187081721D01*
X167432194Y-187090366D01*
X167435039Y-187099745D01*
X167436000Y-187109500D01*
X167436000Y-187617500D01*
X167435039Y-187627255D01*
X167432194Y-187636634D01*
X167427573Y-187645279D01*
X167421355Y-187652855D01*
X167413779Y-187659073D01*
X167405134Y-187663694D01*
X167395755Y-187666539D01*
X167386000Y-187667500D01*
X156768000Y-187667500D01*
X156768000Y-188837500D01*
X167386000Y-188837500D01*
X167395755Y-188838461D01*
X167405134Y-188841306D01*
X167413779Y-188845927D01*
X167421355Y-188852145D01*
X167427573Y-188859721D01*
X167432194Y-188868366D01*
X167435039Y-188877745D01*
X167436000Y-188887500D01*
X167436000Y-189395500D01*
X167435039Y-189405255D01*
X167432194Y-189414634D01*
X167427573Y-189423279D01*
X167421355Y-189430855D01*
X167413779Y-189437073D01*
X167405134Y-189441694D01*
X167395755Y-189444539D01*
X167386000Y-189445500D01*
X156591000Y-189445500D01*
X156581245Y-189444539D01*
X156571866Y-189441694D01*
X156561000Y-189435500D01*
X156065000Y-189063500D01*
X155710000Y-189063500D01*
X155710000Y-185063500D01*
X156035249Y-185063500D01*
X156036806Y-185058366D01*
X156041397Y-185049765D01*
X156295397Y-184668765D01*
X156301608Y-184661182D01*
X156309178Y-184654956D01*
X156317818Y-184650326D01*
X156327194Y-184647471D01*
X156337000Y-184646500D01*
X156718000Y-184646500D01*
X156727755Y-184647461D01*
X156737134Y-184650306D01*
X156745779Y-184654927D01*
X156753355Y-184661145D01*
X156759573Y-184668721D01*
X156764194Y-184677366D01*
X156767039Y-184686745D01*
X156768000Y-184696500D01*
X156768000Y-185281500D01*
X167386000Y-185281500D01*
X167395755Y-185282461D01*
X167405134Y-185285306D01*
X167413779Y-185289927D01*
X167421355Y-185296145D01*
X167427573Y-185303721D01*
X167432194Y-185312366D01*
X167435039Y-185321745D01*
X167436000Y-185331500D01*
X167436000Y-185839500D01*
X167435039Y-185849255D01*
G37*
G36*
X157049961Y-188006245D02*
G01*
X157052806Y-187996866D01*
X157057427Y-187988221D01*
X157063645Y-187980645D01*
X157071221Y-187974427D01*
X157079866Y-187969806D01*
X157089245Y-187966961D01*
X157099000Y-187966000D01*
X167717000Y-187966000D01*
X167717000Y-186796000D01*
X157099000Y-186796000D01*
X157089245Y-186795039D01*
X157079866Y-186792194D01*
X157071221Y-186787573D01*
X157063645Y-186781355D01*
X157057427Y-186773779D01*
X157052806Y-186765134D01*
X157049961Y-186755755D01*
X157049000Y-186746000D01*
X157049000Y-186238000D01*
X157049961Y-186228245D01*
X157052806Y-186218866D01*
X157057427Y-186210221D01*
X157063645Y-186202645D01*
X157071221Y-186196427D01*
X157079866Y-186191806D01*
X157089245Y-186188961D01*
X157099000Y-186188000D01*
X167717000Y-186188000D01*
X167717000Y-185018000D01*
X157099000Y-185018000D01*
X157089245Y-185017039D01*
X157079866Y-185014194D01*
X157071221Y-185009573D01*
X157063645Y-185003355D01*
X157057427Y-184995779D01*
X157052806Y-184987134D01*
X157049961Y-184977755D01*
X157049000Y-184968000D01*
X157049000Y-184460000D01*
X157049961Y-184450245D01*
X157052806Y-184440866D01*
X157057427Y-184432221D01*
X157063645Y-184424645D01*
X157071221Y-184418427D01*
X157079866Y-184413806D01*
X157089245Y-184410961D01*
X157099000Y-184410000D01*
X167894000Y-184410000D01*
X167903755Y-184410961D01*
X167913134Y-184413806D01*
X167924000Y-184420000D01*
X168420000Y-184792000D01*
X168775000Y-184792000D01*
X168775000Y-188792000D01*
X168449751Y-188792000D01*
X168448194Y-188797134D01*
X168443603Y-188805735D01*
X168189603Y-189186735D01*
X168183392Y-189194318D01*
X168175822Y-189200544D01*
X168167182Y-189205174D01*
X168157806Y-189208029D01*
X168148000Y-189209000D01*
X167767000Y-189209000D01*
X167757245Y-189208039D01*
X167747866Y-189205194D01*
X167739221Y-189200573D01*
X167731645Y-189194355D01*
X167725427Y-189186779D01*
X167720806Y-189178134D01*
X167717961Y-189168755D01*
X167717000Y-189159000D01*
X167717000Y-188574000D01*
X157099000Y-188574000D01*
X157089245Y-188573039D01*
X157079866Y-188570194D01*
X157071221Y-188565573D01*
X157063645Y-188559355D01*
X157057427Y-188551779D01*
X157052806Y-188543134D01*
X157049961Y-188533755D01*
X157049000Y-188524000D01*
X157049000Y-188016000D01*
X157049961Y-188006245D01*
G37*
G36*
X210707461Y-187968145D02*
G01*
X210710306Y-187958766D01*
X210714927Y-187950121D01*
X210721145Y-187942545D01*
X210728721Y-187936327D01*
X210737366Y-187931706D01*
X210746745Y-187928861D01*
X210756438Y-187927900D01*
X217120000Y-187920062D01*
X217120000Y-186749963D01*
X210756463Y-186745200D01*
X210746709Y-186744232D01*
X210737331Y-186741380D01*
X210728690Y-186736753D01*
X210721118Y-186730529D01*
X210714906Y-186722947D01*
X210710292Y-186714300D01*
X210707453Y-186704918D01*
X210706500Y-186695200D01*
X210706500Y-186187200D01*
X210707461Y-186177445D01*
X210710306Y-186168066D01*
X210714927Y-186159421D01*
X210721145Y-186151845D01*
X210728721Y-186145627D01*
X210737366Y-186141006D01*
X210746745Y-186138161D01*
X210756537Y-186137200D01*
X217120000Y-186141963D01*
X217120000Y-184972000D01*
X210820000Y-184972000D01*
X210810245Y-184971039D01*
X210800866Y-184968194D01*
X210792221Y-184963573D01*
X210784645Y-184957355D01*
X210778427Y-184949779D01*
X210773806Y-184941134D01*
X210770961Y-184931755D01*
X210770000Y-184922000D01*
X210770000Y-184414000D01*
X210770961Y-184404245D01*
X210773806Y-184394866D01*
X210778427Y-184386221D01*
X210784645Y-184378645D01*
X210792221Y-184372427D01*
X210800866Y-184367806D01*
X210810245Y-184364961D01*
X210820000Y-184364000D01*
X217297000Y-184364000D01*
X217306755Y-184364961D01*
X217316134Y-184367806D01*
X217327000Y-184374000D01*
X217823000Y-184746000D01*
X218178000Y-184746000D01*
X218178000Y-188746000D01*
X217852751Y-188746000D01*
X217851194Y-188751134D01*
X217846603Y-188759735D01*
X217592603Y-189140735D01*
X217586392Y-189148318D01*
X217578822Y-189154544D01*
X217570182Y-189159174D01*
X217560806Y-189162029D01*
X217551000Y-189163000D01*
X217170000Y-189163000D01*
X217160245Y-189162039D01*
X217150866Y-189159194D01*
X217142221Y-189154573D01*
X217134645Y-189148355D01*
X217128427Y-189140779D01*
X217123806Y-189132134D01*
X217120961Y-189122755D01*
X217120000Y-189113000D01*
X217120000Y-188528000D01*
X210756500Y-188528000D01*
X210746745Y-188527039D01*
X210737366Y-188524194D01*
X210728721Y-188519573D01*
X210721145Y-188513355D01*
X210714927Y-188505779D01*
X210710306Y-188497134D01*
X210707461Y-188487755D01*
X210706500Y-188478000D01*
X210706500Y-187977900D01*
X210707461Y-187968145D01*
G37*
G36*
X216901539Y-185785755D02*
G01*
X216898694Y-185795134D01*
X216894073Y-185803779D01*
X216887855Y-185811355D01*
X216880279Y-185817573D01*
X216871634Y-185822194D01*
X216862255Y-185825039D01*
X216852500Y-185826000D01*
X210425500Y-185826000D01*
X210425500Y-186996136D01*
X216789136Y-187013500D01*
X216798888Y-187014488D01*
X216808260Y-187017358D01*
X216816892Y-187022002D01*
X216824452Y-187028241D01*
X216830649Y-187035835D01*
X216835246Y-187044492D01*
X216838066Y-187053879D01*
X216839000Y-187063500D01*
X216839000Y-187554000D01*
X216838039Y-187563755D01*
X216835194Y-187573134D01*
X216830573Y-187581779D01*
X216824355Y-187589355D01*
X216816779Y-187595573D01*
X216808134Y-187600194D01*
X216798755Y-187603039D01*
X216789000Y-187604000D01*
X210425500Y-187604000D01*
X210425500Y-188774000D01*
X216789000Y-188774000D01*
X216798755Y-188774961D01*
X216808134Y-188777806D01*
X216816779Y-188782427D01*
X216824355Y-188788645D01*
X216830573Y-188796221D01*
X216835194Y-188804866D01*
X216838039Y-188814245D01*
X216839000Y-188824000D01*
X216839000Y-189349500D01*
X216838039Y-189359255D01*
X216835194Y-189368634D01*
X216830573Y-189377279D01*
X216824355Y-189384855D01*
X216816779Y-189391073D01*
X216808134Y-189395694D01*
X216798755Y-189398539D01*
X216788866Y-189399500D01*
X210248366Y-189382000D01*
X210238614Y-189381013D01*
X210229242Y-189378143D01*
X210218500Y-189372000D01*
X209722500Y-189000000D01*
X209367500Y-189000000D01*
X209367500Y-185000000D01*
X209692749Y-185000000D01*
X209694306Y-184994866D01*
X209698897Y-184986265D01*
X209952897Y-184605265D01*
X209959108Y-184597682D01*
X209966678Y-184591456D01*
X209975318Y-184586826D01*
X209984694Y-184583971D01*
X209994500Y-184583000D01*
X210375500Y-184583000D01*
X210385255Y-184583961D01*
X210394634Y-184586806D01*
X210403279Y-184591427D01*
X210410855Y-184597645D01*
X210417073Y-184605221D01*
X210421694Y-184613866D01*
X210424539Y-184623245D01*
X210425500Y-184633000D01*
X210425500Y-185218135D01*
X216852635Y-185235500D01*
X216862387Y-185236487D01*
X216871759Y-185239358D01*
X216880391Y-185244002D01*
X216887951Y-185250240D01*
X216894148Y-185257834D01*
X216898746Y-185266491D01*
X216901565Y-185275878D01*
X216902500Y-185285500D01*
X216902500Y-185776000D01*
X216901539Y-185785755D01*
G37*
G36*
X200201039Y-185849255D02*
G01*
X200198194Y-185858634D01*
X200193573Y-185867279D01*
X200187355Y-185874855D01*
X200179779Y-185881073D01*
X200171134Y-185885694D01*
X200161755Y-185888539D01*
X200152000Y-185889500D01*
X189534000Y-185889500D01*
X189534000Y-187059500D01*
X200152000Y-187059500D01*
X200161755Y-187060461D01*
X200171134Y-187063306D01*
X200179779Y-187067927D01*
X200187355Y-187074145D01*
X200193573Y-187081721D01*
X200198194Y-187090366D01*
X200201039Y-187099745D01*
X200202000Y-187109500D01*
X200202000Y-187617500D01*
X200201039Y-187627255D01*
X200198194Y-187636634D01*
X200193573Y-187645279D01*
X200187355Y-187652855D01*
X200179779Y-187659073D01*
X200171134Y-187663694D01*
X200161755Y-187666539D01*
X200152000Y-187667500D01*
X189534000Y-187667500D01*
X189534000Y-188837500D01*
X200152000Y-188837500D01*
X200161755Y-188838461D01*
X200171134Y-188841306D01*
X200179779Y-188845927D01*
X200187355Y-188852145D01*
X200193573Y-188859721D01*
X200198194Y-188868366D01*
X200201039Y-188877745D01*
X200202000Y-188887500D01*
X200202000Y-189395500D01*
X200201039Y-189405255D01*
X200198194Y-189414634D01*
X200193573Y-189423279D01*
X200187355Y-189430855D01*
X200179779Y-189437073D01*
X200171134Y-189441694D01*
X200161755Y-189444539D01*
X200152000Y-189445500D01*
X189357000Y-189445500D01*
X189347245Y-189444539D01*
X189337866Y-189441694D01*
X189327000Y-189435500D01*
X188831000Y-189063500D01*
X188476000Y-189063500D01*
X188476000Y-185063500D01*
X188801249Y-185063500D01*
X188802806Y-185058366D01*
X188807397Y-185049765D01*
X189061397Y-184668765D01*
X189067608Y-184661182D01*
X189075178Y-184654956D01*
X189083818Y-184650326D01*
X189093194Y-184647471D01*
X189103000Y-184646500D01*
X189484000Y-184646500D01*
X189493755Y-184647461D01*
X189503134Y-184650306D01*
X189511779Y-184654927D01*
X189519355Y-184661145D01*
X189525573Y-184668721D01*
X189530194Y-184677366D01*
X189533039Y-184686745D01*
X189534000Y-184696500D01*
X189534000Y-185281500D01*
X200152000Y-185281500D01*
X200161755Y-185282461D01*
X200171134Y-185285306D01*
X200179779Y-185289927D01*
X200187355Y-185296145D01*
X200193573Y-185303721D01*
X200198194Y-185312366D01*
X200201039Y-185321745D01*
X200202000Y-185331500D01*
X200202000Y-185839500D01*
X200201039Y-185849255D01*
G37*
G36*
X189815961Y-188006245D02*
G01*
X189818806Y-187996866D01*
X189823427Y-187988221D01*
X189829645Y-187980645D01*
X189837221Y-187974427D01*
X189845866Y-187969806D01*
X189855245Y-187966961D01*
X189865000Y-187966000D01*
X200483000Y-187966000D01*
X200483000Y-186796000D01*
X189865000Y-186796000D01*
X189855245Y-186795039D01*
X189845866Y-186792194D01*
X189837221Y-186787573D01*
X189829645Y-186781355D01*
X189823427Y-186773779D01*
X189818806Y-186765134D01*
X189815961Y-186755755D01*
X189815000Y-186746000D01*
X189815000Y-186238000D01*
X189815961Y-186228245D01*
X189818806Y-186218866D01*
X189823427Y-186210221D01*
X189829645Y-186202645D01*
X189837221Y-186196427D01*
X189845866Y-186191806D01*
X189855245Y-186188961D01*
X189865000Y-186188000D01*
X200483000Y-186188000D01*
X200483000Y-185018000D01*
X189865000Y-185018000D01*
X189855245Y-185017039D01*
X189845866Y-185014194D01*
X189837221Y-185009573D01*
X189829645Y-185003355D01*
X189823427Y-184995779D01*
X189818806Y-184987134D01*
X189815961Y-184977755D01*
X189815000Y-184968000D01*
X189815000Y-184460000D01*
X189815961Y-184450245D01*
X189818806Y-184440866D01*
X189823427Y-184432221D01*
X189829645Y-184424645D01*
X189837221Y-184418427D01*
X189845866Y-184413806D01*
X189855245Y-184410961D01*
X189865000Y-184410000D01*
X200660000Y-184410000D01*
X200669755Y-184410961D01*
X200679134Y-184413806D01*
X200690000Y-184420000D01*
X201186000Y-184792000D01*
X201541000Y-184792000D01*
X201541000Y-188792000D01*
X201215751Y-188792000D01*
X201214194Y-188797134D01*
X201209603Y-188805735D01*
X200955603Y-189186735D01*
X200949392Y-189194318D01*
X200941822Y-189200544D01*
X200933182Y-189205174D01*
X200923806Y-189208029D01*
X200914000Y-189209000D01*
X200533000Y-189209000D01*
X200523245Y-189208039D01*
X200513866Y-189205194D01*
X200505221Y-189200573D01*
X200497645Y-189194355D01*
X200491427Y-189186779D01*
X200486806Y-189178134D01*
X200483961Y-189168755D01*
X200483000Y-189159000D01*
X200483000Y-188574000D01*
X189865000Y-188574000D01*
X189855245Y-188573039D01*
X189845866Y-188570194D01*
X189837221Y-188565573D01*
X189829645Y-188559355D01*
X189823427Y-188551779D01*
X189818806Y-188543134D01*
X189815961Y-188533755D01*
X189815000Y-188524000D01*
X189815000Y-188016000D01*
X189815961Y-188006245D01*
G37*
G36*
X170302539Y-140057755D02*
G01*
X170299694Y-140067134D01*
X170295073Y-140075779D01*
X170288855Y-140083355D01*
X170281279Y-140089573D01*
X170272634Y-140094194D01*
X170263255Y-140097039D01*
X170253500Y-140098000D01*
X161490500Y-140098000D01*
X161480745Y-140097039D01*
X161471366Y-140094194D01*
X161462721Y-140089573D01*
X161455145Y-140083355D01*
X161074145Y-139702355D01*
X161067927Y-139694779D01*
X161063306Y-139686134D01*
X161060461Y-139676755D01*
X161059500Y-139667000D01*
X161059500Y-139500000D01*
X160988500Y-139500000D01*
X160988500Y-134500000D01*
X161059500Y-134500000D01*
X161059500Y-134460000D01*
X161060461Y-134450245D01*
X161063306Y-134440866D01*
X161067927Y-134432221D01*
X161074145Y-134424645D01*
X161083775Y-134417125D01*
X161718775Y-134036125D01*
X161727634Y-134031931D01*
X161737141Y-134029545D01*
X161744500Y-134029000D01*
X169237500Y-134029000D01*
X169247255Y-134029961D01*
X169256634Y-134032806D01*
X169265279Y-134037427D01*
X169272855Y-134043645D01*
X169279073Y-134051221D01*
X169283694Y-134059866D01*
X169286539Y-134069245D01*
X169287500Y-134079000D01*
X169287500Y-134587000D01*
X169286539Y-134596755D01*
X169283694Y-134606134D01*
X169279073Y-134614779D01*
X169272855Y-134622355D01*
X169265279Y-134628573D01*
X169256634Y-134633194D01*
X169247255Y-134636039D01*
X169237500Y-134637000D01*
X161921500Y-134637000D01*
X161921500Y-135807000D01*
X169237500Y-135807000D01*
X169247255Y-135807961D01*
X169256634Y-135810806D01*
X169265279Y-135815427D01*
X169272855Y-135821645D01*
X169279073Y-135829221D01*
X169283694Y-135837866D01*
X169286539Y-135847245D01*
X169287500Y-135857000D01*
X169287500Y-136365000D01*
X169286539Y-136374755D01*
X169283694Y-136384134D01*
X169279073Y-136392779D01*
X169272855Y-136400355D01*
X169265279Y-136406573D01*
X169256634Y-136411194D01*
X169247255Y-136414039D01*
X169237500Y-136415000D01*
X161921500Y-136415000D01*
X161921500Y-137585000D01*
X169237500Y-137585000D01*
X169247255Y-137585961D01*
X169256634Y-137588806D01*
X169265279Y-137593427D01*
X169272855Y-137599645D01*
X169279073Y-137607221D01*
X169283694Y-137615866D01*
X169286539Y-137625245D01*
X169287500Y-137635000D01*
X169287500Y-138143000D01*
X169286539Y-138152755D01*
X169283694Y-138162134D01*
X169279073Y-138170779D01*
X169272855Y-138178355D01*
X169265279Y-138184573D01*
X169256634Y-138189194D01*
X169247255Y-138192039D01*
X169237500Y-138193000D01*
X161921500Y-138193000D01*
X161921500Y-139363000D01*
X170253500Y-139363000D01*
X170263255Y-139363961D01*
X170272634Y-139366806D01*
X170281279Y-139371427D01*
X170288855Y-139377645D01*
X170295073Y-139385221D01*
X170299694Y-139393866D01*
X170302539Y-139403245D01*
X170303500Y-139413000D01*
X170303500Y-140048000D01*
X170302539Y-140057755D01*
G37*
G36*
X170303500Y-138873000D02*
G01*
X170303500Y-139032000D01*
X170302539Y-139041755D01*
X170299694Y-139051134D01*
X170295073Y-139059779D01*
X170288855Y-139067355D01*
X170281279Y-139073573D01*
X170272634Y-139078194D01*
X170263255Y-139081039D01*
X170253500Y-139082000D01*
X162252500Y-139082000D01*
X162242745Y-139081039D01*
X162233366Y-139078194D01*
X162224721Y-139073573D01*
X162217145Y-139067355D01*
X162210927Y-139059779D01*
X162206306Y-139051134D01*
X162203461Y-139041755D01*
X162202500Y-139032000D01*
X162202500Y-138524000D01*
X162203461Y-138514245D01*
X162206306Y-138504866D01*
X162210927Y-138496221D01*
X162217145Y-138488645D01*
X162224721Y-138482427D01*
X162233366Y-138477806D01*
X162242745Y-138474961D01*
X162252500Y-138474000D01*
X169561000Y-138474000D01*
X169561000Y-137304000D01*
X162379500Y-137304000D01*
X162369745Y-137303039D01*
X162360366Y-137300194D01*
X162351721Y-137295573D01*
X162344145Y-137289355D01*
X162337927Y-137281779D01*
X162333306Y-137273134D01*
X162330461Y-137263755D01*
X162329500Y-137254000D01*
X162329500Y-136763500D01*
X162330461Y-136753745D01*
X162333306Y-136744366D01*
X162337927Y-136735721D01*
X162344145Y-136728145D01*
X162351721Y-136721927D01*
X162360366Y-136717306D01*
X162369745Y-136714461D01*
X162379379Y-136713500D01*
X169561000Y-136696139D01*
X169561000Y-135526000D01*
X162379500Y-135526000D01*
X162369745Y-135525039D01*
X162360366Y-135522194D01*
X162351721Y-135517573D01*
X162344145Y-135511355D01*
X162337927Y-135503779D01*
X162333306Y-135495134D01*
X162330461Y-135485755D01*
X162329500Y-135476000D01*
X162329500Y-134968000D01*
X162330461Y-134958245D01*
X162333306Y-134948866D01*
X162337927Y-134940221D01*
X162344145Y-134932645D01*
X162351721Y-134926427D01*
X162360366Y-134921806D01*
X162369745Y-134918961D01*
X162379500Y-134918000D01*
X169561000Y-134918000D01*
X169561000Y-134873000D01*
X169568500Y-134873000D01*
X169568500Y-134333000D01*
X169569461Y-134323245D01*
X169572306Y-134313866D01*
X169576927Y-134305221D01*
X169583145Y-134297645D01*
X169590721Y-134291427D01*
X169599366Y-134286806D01*
X169608745Y-134283961D01*
X169618500Y-134283000D01*
X169999500Y-134283000D01*
X170009255Y-134283961D01*
X170018634Y-134286806D01*
X170027279Y-134291427D01*
X170034855Y-134297645D01*
X170041103Y-134305265D01*
X170295103Y-134686265D01*
X170299714Y-134694914D01*
X170302549Y-134704297D01*
X170303500Y-134714000D01*
X170303500Y-134873000D01*
X170311000Y-134873000D01*
X170311000Y-138873000D01*
X170303500Y-138873000D01*
G37*
G36*
X171005745Y-133302539D02*
G01*
X170996366Y-133299694D01*
X170987721Y-133295073D01*
X170980145Y-133288855D01*
X170973927Y-133281279D01*
X170969306Y-133272634D01*
X170966461Y-133263255D01*
X170965500Y-133253500D01*
X170965500Y-124490500D01*
X170966461Y-124480745D01*
X170969306Y-124471366D01*
X170973927Y-124462721D01*
X170980145Y-124455145D01*
X171361145Y-124074145D01*
X171368721Y-124067927D01*
X171377366Y-124063306D01*
X171386745Y-124060461D01*
X171396500Y-124059500D01*
X171563500Y-124059500D01*
X171563500Y-123988500D01*
X176563500Y-123988500D01*
X176563500Y-124059500D01*
X176603500Y-124059500D01*
X176613255Y-124060461D01*
X176622634Y-124063306D01*
X176631279Y-124067927D01*
X176638855Y-124074145D01*
X176646375Y-124083775D01*
X177027375Y-124718775D01*
X177031569Y-124727634D01*
X177033955Y-124737141D01*
X177034500Y-124744500D01*
X177034500Y-132237500D01*
X177033539Y-132247255D01*
X177030694Y-132256634D01*
X177026073Y-132265279D01*
X177019855Y-132272855D01*
X177012279Y-132279073D01*
X177003634Y-132283694D01*
X176994255Y-132286539D01*
X176984500Y-132287500D01*
X176476500Y-132287500D01*
X176466745Y-132286539D01*
X176457366Y-132283694D01*
X176448721Y-132279073D01*
X176441145Y-132272855D01*
X176434927Y-132265279D01*
X176430306Y-132256634D01*
X176427461Y-132247255D01*
X176426500Y-132237500D01*
X176426500Y-124921500D01*
X175256500Y-124921500D01*
X175256500Y-132237500D01*
X175255539Y-132247255D01*
X175252694Y-132256634D01*
X175248073Y-132265279D01*
X175241855Y-132272855D01*
X175234279Y-132279073D01*
X175225634Y-132283694D01*
X175216255Y-132286539D01*
X175206500Y-132287500D01*
X174698500Y-132287500D01*
X174688745Y-132286539D01*
X174679366Y-132283694D01*
X174670721Y-132279073D01*
X174663145Y-132272855D01*
X174656927Y-132265279D01*
X174652306Y-132256634D01*
X174649461Y-132247255D01*
X174648500Y-132237500D01*
X174648500Y-124921500D01*
X173478500Y-124921500D01*
X173478500Y-132237500D01*
X173477539Y-132247255D01*
X173474694Y-132256634D01*
X173470073Y-132265279D01*
X173463855Y-132272855D01*
X173456279Y-132279073D01*
X173447634Y-132283694D01*
X173438255Y-132286539D01*
X173428500Y-132287500D01*
X172920500Y-132287500D01*
X172910745Y-132286539D01*
X172901366Y-132283694D01*
X172892721Y-132279073D01*
X172885145Y-132272855D01*
X172878927Y-132265279D01*
X172874306Y-132256634D01*
X172871461Y-132247255D01*
X172870500Y-132237500D01*
X172870500Y-124921500D01*
X171700500Y-124921500D01*
X171700500Y-133253500D01*
X171699539Y-133263255D01*
X171696694Y-133272634D01*
X171692073Y-133281279D01*
X171685855Y-133288855D01*
X171678279Y-133295073D01*
X171669634Y-133299694D01*
X171660255Y-133302539D01*
X171650500Y-133303500D01*
X171015500Y-133303500D01*
X171005745Y-133302539D01*
G37*
G36*
X172190500Y-133303500D02*
G01*
X172031500Y-133303500D01*
X172021745Y-133302539D01*
X172012366Y-133299694D01*
X172003721Y-133295073D01*
X171996145Y-133288855D01*
X171989927Y-133281279D01*
X171985306Y-133272634D01*
X171982461Y-133263255D01*
X171981500Y-133253500D01*
X171981500Y-125252500D01*
X171982461Y-125242745D01*
X171985306Y-125233366D01*
X171989927Y-125224721D01*
X171996145Y-125217145D01*
X172003721Y-125210927D01*
X172012366Y-125206306D01*
X172021745Y-125203461D01*
X172031500Y-125202500D01*
X172539500Y-125202500D01*
X172549255Y-125203461D01*
X172558634Y-125206306D01*
X172567279Y-125210927D01*
X172574855Y-125217145D01*
X172581073Y-125224721D01*
X172585694Y-125233366D01*
X172588539Y-125242745D01*
X172589500Y-125252500D01*
X172589500Y-132561000D01*
X173759500Y-132561000D01*
X173759500Y-125379500D01*
X173760461Y-125369745D01*
X173763306Y-125360366D01*
X173767927Y-125351721D01*
X173774145Y-125344145D01*
X173781721Y-125337927D01*
X173790366Y-125333306D01*
X173799745Y-125330461D01*
X173809500Y-125329500D01*
X174300000Y-125329500D01*
X174309755Y-125330461D01*
X174319134Y-125333306D01*
X174327779Y-125337927D01*
X174335355Y-125344145D01*
X174341573Y-125351721D01*
X174346194Y-125360366D01*
X174349039Y-125369745D01*
X174350000Y-125379379D01*
X174367361Y-132561000D01*
X175537500Y-132561000D01*
X175537500Y-125379500D01*
X175538461Y-125369745D01*
X175541306Y-125360366D01*
X175545927Y-125351721D01*
X175552145Y-125344145D01*
X175559721Y-125337927D01*
X175568366Y-125333306D01*
X175577745Y-125330461D01*
X175587500Y-125329500D01*
X176095500Y-125329500D01*
X176105255Y-125330461D01*
X176114634Y-125333306D01*
X176123279Y-125337927D01*
X176130855Y-125344145D01*
X176137073Y-125351721D01*
X176141694Y-125360366D01*
X176144539Y-125369745D01*
X176145500Y-125379500D01*
X176145500Y-132561000D01*
X176190500Y-132561000D01*
X176190500Y-132568500D01*
X176730500Y-132568500D01*
X176740255Y-132569461D01*
X176749634Y-132572306D01*
X176758279Y-132576927D01*
X176765855Y-132583145D01*
X176772073Y-132590721D01*
X176776694Y-132599366D01*
X176779539Y-132608745D01*
X176780500Y-132618500D01*
X176780500Y-132999500D01*
X176779539Y-133009255D01*
X176776694Y-133018634D01*
X176772073Y-133027279D01*
X176765855Y-133034855D01*
X176758235Y-133041103D01*
X176377235Y-133295103D01*
X176368586Y-133299714D01*
X176359203Y-133302549D01*
X176349500Y-133303500D01*
X176190500Y-133303500D01*
X176190500Y-133311000D01*
X172190500Y-133311000D01*
X172190500Y-133303500D01*
G37*
G36*
X177697461Y-139403245D02*
G01*
X177700306Y-139393866D01*
X177704927Y-139385221D01*
X177711145Y-139377645D01*
X177718721Y-139371427D01*
X177727366Y-139366806D01*
X177736745Y-139363961D01*
X177746500Y-139363000D01*
X186078500Y-139363000D01*
X186078500Y-138193000D01*
X178762500Y-138193000D01*
X178752745Y-138192039D01*
X178743366Y-138189194D01*
X178734721Y-138184573D01*
X178727145Y-138178355D01*
X178720927Y-138170779D01*
X178716306Y-138162134D01*
X178713461Y-138152755D01*
X178712500Y-138143000D01*
X178712500Y-137635000D01*
X178713461Y-137625245D01*
X178716306Y-137615866D01*
X178720927Y-137607221D01*
X178727145Y-137599645D01*
X178734721Y-137593427D01*
X178743366Y-137588806D01*
X178752745Y-137585961D01*
X178762500Y-137585000D01*
X186078500Y-137585000D01*
X186078500Y-136415000D01*
X178762500Y-136415000D01*
X178752745Y-136414039D01*
X178743366Y-136411194D01*
X178734721Y-136406573D01*
X178727145Y-136400355D01*
X178720927Y-136392779D01*
X178716306Y-136384134D01*
X178713461Y-136374755D01*
X178712500Y-136365000D01*
X178712500Y-135857000D01*
X178713461Y-135847245D01*
X178716306Y-135837866D01*
X178720927Y-135829221D01*
X178727145Y-135821645D01*
X178734721Y-135815427D01*
X178743366Y-135810806D01*
X178752745Y-135807961D01*
X178762500Y-135807000D01*
X186078500Y-135807000D01*
X186078500Y-134637000D01*
X178762500Y-134637000D01*
X178752745Y-134636039D01*
X178743366Y-134633194D01*
X178734721Y-134628573D01*
X178727145Y-134622355D01*
X178720927Y-134614779D01*
X178716306Y-134606134D01*
X178713461Y-134596755D01*
X178712500Y-134587000D01*
X178712500Y-134079000D01*
X178713461Y-134069245D01*
X178716306Y-134059866D01*
X178720927Y-134051221D01*
X178727145Y-134043645D01*
X178734721Y-134037427D01*
X178743366Y-134032806D01*
X178752745Y-134029961D01*
X178762500Y-134029000D01*
X186255500Y-134029000D01*
X186265255Y-134029961D01*
X186274634Y-134032806D01*
X186281225Y-134036125D01*
X186916225Y-134417125D01*
X186924095Y-134422968D01*
X186930674Y-134430233D01*
X186935709Y-134438643D01*
X186939007Y-134447873D01*
X186940500Y-134460000D01*
X186940500Y-134500000D01*
X187011500Y-134500000D01*
X187011500Y-139500000D01*
X186940500Y-139500000D01*
X186940500Y-139667000D01*
X186939539Y-139676755D01*
X186936694Y-139686134D01*
X186932073Y-139694779D01*
X186925855Y-139702355D01*
X186544855Y-140083355D01*
X186537279Y-140089573D01*
X186528634Y-140094194D01*
X186519255Y-140097039D01*
X186509500Y-140098000D01*
X177746500Y-140098000D01*
X177736745Y-140097039D01*
X177727366Y-140094194D01*
X177718721Y-140089573D01*
X177711145Y-140083355D01*
X177704927Y-140075779D01*
X177700306Y-140067134D01*
X177697461Y-140057755D01*
X177696500Y-140048000D01*
X177696500Y-139413000D01*
X177697461Y-139403245D01*
G37*
G36*
X177696500Y-134873000D02*
G01*
X177696500Y-134714000D01*
X177697461Y-134704245D01*
X177700306Y-134694866D01*
X177704897Y-134686265D01*
X177958897Y-134305265D01*
X177965108Y-134297682D01*
X177972678Y-134291456D01*
X177981318Y-134286826D01*
X177990694Y-134283971D01*
X178000500Y-134283000D01*
X178381500Y-134283000D01*
X178391255Y-134283961D01*
X178400634Y-134286806D01*
X178409279Y-134291427D01*
X178416855Y-134297645D01*
X178423073Y-134305221D01*
X178427694Y-134313866D01*
X178430539Y-134323245D01*
X178431500Y-134333000D01*
X178431500Y-134873000D01*
X178439000Y-134873000D01*
X178439000Y-134918000D01*
X185620500Y-134918000D01*
X185630255Y-134918961D01*
X185639634Y-134921806D01*
X185648279Y-134926427D01*
X185655855Y-134932645D01*
X185662073Y-134940221D01*
X185666694Y-134948866D01*
X185669539Y-134958245D01*
X185670500Y-134968000D01*
X185670500Y-135476000D01*
X185669539Y-135485755D01*
X185666694Y-135495134D01*
X185662073Y-135503779D01*
X185655855Y-135511355D01*
X185648279Y-135517573D01*
X185639634Y-135522194D01*
X185630255Y-135525039D01*
X185620500Y-135526000D01*
X178439000Y-135526000D01*
X178439000Y-136696139D01*
X185620621Y-136713500D01*
X185630373Y-136714484D01*
X185639746Y-136717352D01*
X185648379Y-136721994D01*
X185655941Y-136728230D01*
X185662141Y-136735822D01*
X185666740Y-136744478D01*
X185669563Y-136753864D01*
X185670500Y-136763500D01*
X185670500Y-137254000D01*
X185669539Y-137263755D01*
X185666694Y-137273134D01*
X185662073Y-137281779D01*
X185655855Y-137289355D01*
X185648279Y-137295573D01*
X185639634Y-137300194D01*
X185630255Y-137303039D01*
X185620500Y-137304000D01*
X178439000Y-137304000D01*
X178439000Y-138474000D01*
X185747500Y-138474000D01*
X185757255Y-138474961D01*
X185766634Y-138477806D01*
X185775279Y-138482427D01*
X185782855Y-138488645D01*
X185789073Y-138496221D01*
X185793694Y-138504866D01*
X185796539Y-138514245D01*
X185797500Y-138524000D01*
X185797500Y-139032000D01*
X185796539Y-139041755D01*
X185793694Y-139051134D01*
X185789073Y-139059779D01*
X185782855Y-139067355D01*
X185775279Y-139073573D01*
X185766634Y-139078194D01*
X185757255Y-139081039D01*
X185747500Y-139082000D01*
X177746500Y-139082000D01*
X177736745Y-139081039D01*
X177727366Y-139078194D01*
X177718721Y-139073573D01*
X177711145Y-139067355D01*
X177704927Y-139059779D01*
X177700306Y-139051134D01*
X177697461Y-139041755D01*
X177696500Y-139032000D01*
X177696500Y-138873000D01*
X177689000Y-138873000D01*
X177689000Y-134873000D01*
X177696500Y-134873000D01*
G37*
G36*
X176127000Y-140760000D02*
G01*
X176286000Y-140760000D01*
X176295755Y-140760961D01*
X176305134Y-140763806D01*
X176313735Y-140768397D01*
X176694735Y-141022397D01*
X176702318Y-141028608D01*
X176708544Y-141036178D01*
X176713174Y-141044818D01*
X176716029Y-141054194D01*
X176717000Y-141064000D01*
X176717000Y-141445000D01*
X176716039Y-141454755D01*
X176713194Y-141464134D01*
X176708573Y-141472779D01*
X176702355Y-141480355D01*
X176694779Y-141486573D01*
X176686134Y-141491194D01*
X176676755Y-141494039D01*
X176667000Y-141495000D01*
X176127000Y-141495000D01*
X176127000Y-141502500D01*
X176082000Y-141502500D01*
X176082000Y-148684000D01*
X176081039Y-148693755D01*
X176078194Y-148703134D01*
X176073573Y-148711779D01*
X176067355Y-148719355D01*
X176059779Y-148725573D01*
X176051134Y-148730194D01*
X176041755Y-148733039D01*
X176032000Y-148734000D01*
X175524000Y-148734000D01*
X175514245Y-148733039D01*
X175504866Y-148730194D01*
X175496221Y-148725573D01*
X175488645Y-148719355D01*
X175482427Y-148711779D01*
X175477806Y-148703134D01*
X175474961Y-148693755D01*
X175474000Y-148684000D01*
X175474000Y-141502500D01*
X174303861Y-141502500D01*
X174286500Y-148684121D01*
X174285516Y-148693873D01*
X174282648Y-148703246D01*
X174278006Y-148711879D01*
X174271770Y-148719441D01*
X174264178Y-148725641D01*
X174255522Y-148730240D01*
X174246136Y-148733063D01*
X174236500Y-148734000D01*
X173746000Y-148734000D01*
X173736245Y-148733039D01*
X173726866Y-148730194D01*
X173718221Y-148725573D01*
X173710645Y-148719355D01*
X173704427Y-148711779D01*
X173699806Y-148703134D01*
X173696961Y-148693755D01*
X173696000Y-148684000D01*
X173696000Y-141502500D01*
X172526000Y-141502500D01*
X172526000Y-148811000D01*
X172525039Y-148820755D01*
X172522194Y-148830134D01*
X172517573Y-148838779D01*
X172511355Y-148846355D01*
X172503779Y-148852573D01*
X172495134Y-148857194D01*
X172485755Y-148860039D01*
X172476000Y-148861000D01*
X171968000Y-148861000D01*
X171958245Y-148860039D01*
X171948866Y-148857194D01*
X171940221Y-148852573D01*
X171932645Y-148846355D01*
X171926427Y-148838779D01*
X171921806Y-148830134D01*
X171918961Y-148820755D01*
X171918000Y-148811000D01*
X171918000Y-140810000D01*
X171918961Y-140800245D01*
X171921806Y-140790866D01*
X171926427Y-140782221D01*
X171932645Y-140774645D01*
X171940221Y-140768427D01*
X171948866Y-140763806D01*
X171958245Y-140760961D01*
X171968000Y-140760000D01*
X172127000Y-140760000D01*
X172127000Y-140752500D01*
X176127000Y-140752500D01*
X176127000Y-140760000D01*
G37*
G36*
X171596755Y-140760961D02*
G01*
X171606134Y-140763806D01*
X171614779Y-140768427D01*
X171622355Y-140774645D01*
X171628573Y-140782221D01*
X171633194Y-140790866D01*
X171636039Y-140800245D01*
X171637000Y-140810000D01*
X171637000Y-149142000D01*
X172807000Y-149142000D01*
X172807000Y-141826000D01*
X172807961Y-141816245D01*
X172810806Y-141806866D01*
X172815427Y-141798221D01*
X172821645Y-141790645D01*
X172829221Y-141784427D01*
X172837866Y-141779806D01*
X172847245Y-141776961D01*
X172857000Y-141776000D01*
X173365000Y-141776000D01*
X173374755Y-141776961D01*
X173384134Y-141779806D01*
X173392779Y-141784427D01*
X173400355Y-141790645D01*
X173406573Y-141798221D01*
X173411194Y-141806866D01*
X173414039Y-141816245D01*
X173415000Y-141826000D01*
X173415000Y-149142000D01*
X174585000Y-149142000D01*
X174585000Y-141826000D01*
X174585961Y-141816245D01*
X174588806Y-141806866D01*
X174593427Y-141798221D01*
X174599645Y-141790645D01*
X174607221Y-141784427D01*
X174615866Y-141779806D01*
X174625245Y-141776961D01*
X174635000Y-141776000D01*
X175143000Y-141776000D01*
X175152755Y-141776961D01*
X175162134Y-141779806D01*
X175170779Y-141784427D01*
X175178355Y-141790645D01*
X175184573Y-141798221D01*
X175189194Y-141806866D01*
X175192039Y-141816245D01*
X175193000Y-141826000D01*
X175193000Y-149142000D01*
X176363000Y-149142000D01*
X176363000Y-141826000D01*
X176363961Y-141816245D01*
X176366806Y-141806866D01*
X176371427Y-141798221D01*
X176377645Y-141790645D01*
X176385221Y-141784427D01*
X176393866Y-141779806D01*
X176403245Y-141776961D01*
X176413000Y-141776000D01*
X176921000Y-141776000D01*
X176930755Y-141776961D01*
X176940134Y-141779806D01*
X176948779Y-141784427D01*
X176956355Y-141790645D01*
X176962573Y-141798221D01*
X176967194Y-141806866D01*
X176970039Y-141816245D01*
X176971000Y-141826000D01*
X176971000Y-149319000D01*
X176970039Y-149328755D01*
X176967194Y-149338134D01*
X176963875Y-149344725D01*
X176582875Y-149979725D01*
X176577032Y-149987595D01*
X176569767Y-149994174D01*
X176561357Y-149999209D01*
X176552127Y-150002507D01*
X176540000Y-150004000D01*
X176500000Y-150004000D01*
X176500000Y-150075000D01*
X171500000Y-150075000D01*
X171500000Y-150004000D01*
X171333000Y-150004000D01*
X171323245Y-150003039D01*
X171313866Y-150000194D01*
X171305221Y-149995573D01*
X171297645Y-149989355D01*
X170916645Y-149608355D01*
X170910427Y-149600779D01*
X170905806Y-149592134D01*
X170902961Y-149582755D01*
X170902000Y-149573000D01*
X170902000Y-140810000D01*
X170902961Y-140800245D01*
X170905806Y-140790866D01*
X170910427Y-140782221D01*
X170916645Y-140774645D01*
X170924221Y-140768427D01*
X170932866Y-140763806D01*
X170942245Y-140760961D01*
X170952000Y-140760000D01*
X171587000Y-140760000D01*
X171596755Y-140760961D01*
G37*
G36*
X142302539Y-140057755D02*
G01*
X142299694Y-140067134D01*
X142295073Y-140075779D01*
X142288855Y-140083355D01*
X142281279Y-140089573D01*
X142272634Y-140094194D01*
X142263255Y-140097039D01*
X142253500Y-140098000D01*
X133490500Y-140098000D01*
X133480745Y-140097039D01*
X133471366Y-140094194D01*
X133462721Y-140089573D01*
X133455145Y-140083355D01*
X133074145Y-139702355D01*
X133067927Y-139694779D01*
X133063306Y-139686134D01*
X133060461Y-139676755D01*
X133059500Y-139667000D01*
X133059500Y-139500000D01*
X132988500Y-139500000D01*
X132988500Y-134500000D01*
X133059500Y-134500000D01*
X133059500Y-134460000D01*
X133060461Y-134450245D01*
X133063306Y-134440866D01*
X133067927Y-134432221D01*
X133074145Y-134424645D01*
X133083775Y-134417125D01*
X133718775Y-134036125D01*
X133727634Y-134031931D01*
X133737141Y-134029545D01*
X133744500Y-134029000D01*
X141237500Y-134029000D01*
X141247255Y-134029961D01*
X141256634Y-134032806D01*
X141265279Y-134037427D01*
X141272855Y-134043645D01*
X141279073Y-134051221D01*
X141283694Y-134059866D01*
X141286539Y-134069245D01*
X141287500Y-134079000D01*
X141287500Y-134587000D01*
X141286539Y-134596755D01*
X141283694Y-134606134D01*
X141279073Y-134614779D01*
X141272855Y-134622355D01*
X141265279Y-134628573D01*
X141256634Y-134633194D01*
X141247255Y-134636039D01*
X141237500Y-134637000D01*
X133921500Y-134637000D01*
X133921500Y-135807000D01*
X141237500Y-135807000D01*
X141247255Y-135807961D01*
X141256634Y-135810806D01*
X141265279Y-135815427D01*
X141272855Y-135821645D01*
X141279073Y-135829221D01*
X141283694Y-135837866D01*
X141286539Y-135847245D01*
X141287500Y-135857000D01*
X141287500Y-136365000D01*
X141286539Y-136374755D01*
X141283694Y-136384134D01*
X141279073Y-136392779D01*
X141272855Y-136400355D01*
X141265279Y-136406573D01*
X141256634Y-136411194D01*
X141247255Y-136414039D01*
X141237500Y-136415000D01*
X133921500Y-136415000D01*
X133921500Y-137585000D01*
X141237500Y-137585000D01*
X141247255Y-137585961D01*
X141256634Y-137588806D01*
X141265279Y-137593427D01*
X141272855Y-137599645D01*
X141279073Y-137607221D01*
X141283694Y-137615866D01*
X141286539Y-137625245D01*
X141287500Y-137635000D01*
X141287500Y-138143000D01*
X141286539Y-138152755D01*
X141283694Y-138162134D01*
X141279073Y-138170779D01*
X141272855Y-138178355D01*
X141265279Y-138184573D01*
X141256634Y-138189194D01*
X141247255Y-138192039D01*
X141237500Y-138193000D01*
X133921500Y-138193000D01*
X133921500Y-139363000D01*
X142253500Y-139363000D01*
X142263255Y-139363961D01*
X142272634Y-139366806D01*
X142281279Y-139371427D01*
X142288855Y-139377645D01*
X142295073Y-139385221D01*
X142299694Y-139393866D01*
X142302539Y-139403245D01*
X142303500Y-139413000D01*
X142303500Y-140048000D01*
X142302539Y-140057755D01*
G37*
G36*
X142303500Y-138873000D02*
G01*
X142303500Y-139032000D01*
X142302539Y-139041755D01*
X142299694Y-139051134D01*
X142295073Y-139059779D01*
X142288855Y-139067355D01*
X142281279Y-139073573D01*
X142272634Y-139078194D01*
X142263255Y-139081039D01*
X142253500Y-139082000D01*
X134252500Y-139082000D01*
X134242745Y-139081039D01*
X134233366Y-139078194D01*
X134224721Y-139073573D01*
X134217145Y-139067355D01*
X134210927Y-139059779D01*
X134206306Y-139051134D01*
X134203461Y-139041755D01*
X134202500Y-139032000D01*
X134202500Y-138524000D01*
X134203461Y-138514245D01*
X134206306Y-138504866D01*
X134210927Y-138496221D01*
X134217145Y-138488645D01*
X134224721Y-138482427D01*
X134233366Y-138477806D01*
X134242745Y-138474961D01*
X134252500Y-138474000D01*
X141561000Y-138474000D01*
X141561000Y-137304000D01*
X134379500Y-137304000D01*
X134369745Y-137303039D01*
X134360366Y-137300194D01*
X134351721Y-137295573D01*
X134344145Y-137289355D01*
X134337927Y-137281779D01*
X134333306Y-137273134D01*
X134330461Y-137263755D01*
X134329500Y-137254000D01*
X134329500Y-136763500D01*
X134330461Y-136753745D01*
X134333306Y-136744366D01*
X134337927Y-136735721D01*
X134344145Y-136728145D01*
X134351721Y-136721927D01*
X134360366Y-136717306D01*
X134369745Y-136714461D01*
X134379379Y-136713500D01*
X141561000Y-136696139D01*
X141561000Y-135526000D01*
X134379500Y-135526000D01*
X134369745Y-135525039D01*
X134360366Y-135522194D01*
X134351721Y-135517573D01*
X134344145Y-135511355D01*
X134337927Y-135503779D01*
X134333306Y-135495134D01*
X134330461Y-135485755D01*
X134329500Y-135476000D01*
X134329500Y-134968000D01*
X134330461Y-134958245D01*
X134333306Y-134948866D01*
X134337927Y-134940221D01*
X134344145Y-134932645D01*
X134351721Y-134926427D01*
X134360366Y-134921806D01*
X134369745Y-134918961D01*
X134379500Y-134918000D01*
X141561000Y-134918000D01*
X141561000Y-134873000D01*
X141568500Y-134873000D01*
X141568500Y-134333000D01*
X141569461Y-134323245D01*
X141572306Y-134313866D01*
X141576927Y-134305221D01*
X141583145Y-134297645D01*
X141590721Y-134291427D01*
X141599366Y-134286806D01*
X141608745Y-134283961D01*
X141618500Y-134283000D01*
X141999500Y-134283000D01*
X142009255Y-134283961D01*
X142018634Y-134286806D01*
X142027279Y-134291427D01*
X142034855Y-134297645D01*
X142041103Y-134305265D01*
X142295103Y-134686265D01*
X142299714Y-134694914D01*
X142302549Y-134704297D01*
X142303500Y-134714000D01*
X142303500Y-134873000D01*
X142311000Y-134873000D01*
X142311000Y-138873000D01*
X142303500Y-138873000D01*
G37*
G36*
X143005745Y-133302539D02*
G01*
X142996366Y-133299694D01*
X142987721Y-133295073D01*
X142980145Y-133288855D01*
X142973927Y-133281279D01*
X142969306Y-133272634D01*
X142966461Y-133263255D01*
X142965500Y-133253500D01*
X142965500Y-124490500D01*
X142966461Y-124480745D01*
X142969306Y-124471366D01*
X142973927Y-124462721D01*
X142980145Y-124455145D01*
X143361145Y-124074145D01*
X143368721Y-124067927D01*
X143377366Y-124063306D01*
X143386745Y-124060461D01*
X143396500Y-124059500D01*
X143563500Y-124059500D01*
X143563500Y-123988500D01*
X148563500Y-123988500D01*
X148563500Y-124059500D01*
X148603500Y-124059500D01*
X148613255Y-124060461D01*
X148622634Y-124063306D01*
X148631279Y-124067927D01*
X148638855Y-124074145D01*
X148646375Y-124083775D01*
X149027375Y-124718775D01*
X149031569Y-124727634D01*
X149033955Y-124737141D01*
X149034500Y-124744500D01*
X149034500Y-132237500D01*
X149033539Y-132247255D01*
X149030694Y-132256634D01*
X149026073Y-132265279D01*
X149019855Y-132272855D01*
X149012279Y-132279073D01*
X149003634Y-132283694D01*
X148994255Y-132286539D01*
X148984500Y-132287500D01*
X148476500Y-132287500D01*
X148466745Y-132286539D01*
X148457366Y-132283694D01*
X148448721Y-132279073D01*
X148441145Y-132272855D01*
X148434927Y-132265279D01*
X148430306Y-132256634D01*
X148427461Y-132247255D01*
X148426500Y-132237500D01*
X148426500Y-124921500D01*
X147256500Y-124921500D01*
X147256500Y-132237500D01*
X147255539Y-132247255D01*
X147252694Y-132256634D01*
X147248073Y-132265279D01*
X147241855Y-132272855D01*
X147234279Y-132279073D01*
X147225634Y-132283694D01*
X147216255Y-132286539D01*
X147206500Y-132287500D01*
X146698500Y-132287500D01*
X146688745Y-132286539D01*
X146679366Y-132283694D01*
X146670721Y-132279073D01*
X146663145Y-132272855D01*
X146656927Y-132265279D01*
X146652306Y-132256634D01*
X146649461Y-132247255D01*
X146648500Y-132237500D01*
X146648500Y-124921500D01*
X145478500Y-124921500D01*
X145478500Y-132237500D01*
X145477539Y-132247255D01*
X145474694Y-132256634D01*
X145470073Y-132265279D01*
X145463855Y-132272855D01*
X145456279Y-132279073D01*
X145447634Y-132283694D01*
X145438255Y-132286539D01*
X145428500Y-132287500D01*
X144920500Y-132287500D01*
X144910745Y-132286539D01*
X144901366Y-132283694D01*
X144892721Y-132279073D01*
X144885145Y-132272855D01*
X144878927Y-132265279D01*
X144874306Y-132256634D01*
X144871461Y-132247255D01*
X144870500Y-132237500D01*
X144870500Y-124921500D01*
X143700500Y-124921500D01*
X143700500Y-133253500D01*
X143699539Y-133263255D01*
X143696694Y-133272634D01*
X143692073Y-133281279D01*
X143685855Y-133288855D01*
X143678279Y-133295073D01*
X143669634Y-133299694D01*
X143660255Y-133302539D01*
X143650500Y-133303500D01*
X143015500Y-133303500D01*
X143005745Y-133302539D01*
G37*
G36*
X144190500Y-133303500D02*
G01*
X144031500Y-133303500D01*
X144021745Y-133302539D01*
X144012366Y-133299694D01*
X144003721Y-133295073D01*
X143996145Y-133288855D01*
X143989927Y-133281279D01*
X143985306Y-133272634D01*
X143982461Y-133263255D01*
X143981500Y-133253500D01*
X143981500Y-125252500D01*
X143982461Y-125242745D01*
X143985306Y-125233366D01*
X143989927Y-125224721D01*
X143996145Y-125217145D01*
X144003721Y-125210927D01*
X144012366Y-125206306D01*
X144021745Y-125203461D01*
X144031500Y-125202500D01*
X144539500Y-125202500D01*
X144549255Y-125203461D01*
X144558634Y-125206306D01*
X144567279Y-125210927D01*
X144574855Y-125217145D01*
X144581073Y-125224721D01*
X144585694Y-125233366D01*
X144588539Y-125242745D01*
X144589500Y-125252500D01*
X144589500Y-132561000D01*
X145759500Y-132561000D01*
X145759500Y-125379500D01*
X145760461Y-125369745D01*
X145763306Y-125360366D01*
X145767927Y-125351721D01*
X145774145Y-125344145D01*
X145781721Y-125337927D01*
X145790366Y-125333306D01*
X145799745Y-125330461D01*
X145809500Y-125329500D01*
X146300000Y-125329500D01*
X146309755Y-125330461D01*
X146319134Y-125333306D01*
X146327779Y-125337927D01*
X146335355Y-125344145D01*
X146341573Y-125351721D01*
X146346194Y-125360366D01*
X146349039Y-125369745D01*
X146350000Y-125379379D01*
X146367361Y-132561000D01*
X147537500Y-132561000D01*
X147537500Y-125379500D01*
X147538461Y-125369745D01*
X147541306Y-125360366D01*
X147545927Y-125351721D01*
X147552145Y-125344145D01*
X147559721Y-125337927D01*
X147568366Y-125333306D01*
X147577745Y-125330461D01*
X147587500Y-125329500D01*
X148095500Y-125329500D01*
X148105255Y-125330461D01*
X148114634Y-125333306D01*
X148123279Y-125337927D01*
X148130855Y-125344145D01*
X148137073Y-125351721D01*
X148141694Y-125360366D01*
X148144539Y-125369745D01*
X148145500Y-125379500D01*
X148145500Y-132561000D01*
X148190500Y-132561000D01*
X148190500Y-132568500D01*
X148730500Y-132568500D01*
X148740255Y-132569461D01*
X148749634Y-132572306D01*
X148758279Y-132576927D01*
X148765855Y-132583145D01*
X148772073Y-132590721D01*
X148776694Y-132599366D01*
X148779539Y-132608745D01*
X148780500Y-132618500D01*
X148780500Y-132999500D01*
X148779539Y-133009255D01*
X148776694Y-133018634D01*
X148772073Y-133027279D01*
X148765855Y-133034855D01*
X148758235Y-133041103D01*
X148377235Y-133295103D01*
X148368586Y-133299714D01*
X148359203Y-133302549D01*
X148349500Y-133303500D01*
X148190500Y-133303500D01*
X148190500Y-133311000D01*
X144190500Y-133311000D01*
X144190500Y-133303500D01*
G37*
G36*
X149697461Y-139403245D02*
G01*
X149700306Y-139393866D01*
X149704927Y-139385221D01*
X149711145Y-139377645D01*
X149718721Y-139371427D01*
X149727366Y-139366806D01*
X149736745Y-139363961D01*
X149746500Y-139363000D01*
X158078500Y-139363000D01*
X158078500Y-138193000D01*
X150762500Y-138193000D01*
X150752745Y-138192039D01*
X150743366Y-138189194D01*
X150734721Y-138184573D01*
X150727145Y-138178355D01*
X150720927Y-138170779D01*
X150716306Y-138162134D01*
X150713461Y-138152755D01*
X150712500Y-138143000D01*
X150712500Y-137635000D01*
X150713461Y-137625245D01*
X150716306Y-137615866D01*
X150720927Y-137607221D01*
X150727145Y-137599645D01*
X150734721Y-137593427D01*
X150743366Y-137588806D01*
X150752745Y-137585961D01*
X150762500Y-137585000D01*
X158078500Y-137585000D01*
X158078500Y-136415000D01*
X150762500Y-136415000D01*
X150752745Y-136414039D01*
X150743366Y-136411194D01*
X150734721Y-136406573D01*
X150727145Y-136400355D01*
X150720927Y-136392779D01*
X150716306Y-136384134D01*
X150713461Y-136374755D01*
X150712500Y-136365000D01*
X150712500Y-135857000D01*
X150713461Y-135847245D01*
X150716306Y-135837866D01*
X150720927Y-135829221D01*
X150727145Y-135821645D01*
X150734721Y-135815427D01*
X150743366Y-135810806D01*
X150752745Y-135807961D01*
X150762500Y-135807000D01*
X158078500Y-135807000D01*
X158078500Y-134637000D01*
X150762500Y-134637000D01*
X150752745Y-134636039D01*
X150743366Y-134633194D01*
X150734721Y-134628573D01*
X150727145Y-134622355D01*
X150720927Y-134614779D01*
X150716306Y-134606134D01*
X150713461Y-134596755D01*
X150712500Y-134587000D01*
X150712500Y-134079000D01*
X150713461Y-134069245D01*
X150716306Y-134059866D01*
X150720927Y-134051221D01*
X150727145Y-134043645D01*
X150734721Y-134037427D01*
X150743366Y-134032806D01*
X150752745Y-134029961D01*
X150762500Y-134029000D01*
X158255500Y-134029000D01*
X158265255Y-134029961D01*
X158274634Y-134032806D01*
X158281225Y-134036125D01*
X158916225Y-134417125D01*
X158924095Y-134422968D01*
X158930674Y-134430233D01*
X158935709Y-134438643D01*
X158939007Y-134447873D01*
X158940500Y-134460000D01*
X158940500Y-134500000D01*
X159011500Y-134500000D01*
X159011500Y-139500000D01*
X158940500Y-139500000D01*
X158940500Y-139667000D01*
X158939539Y-139676755D01*
X158936694Y-139686134D01*
X158932073Y-139694779D01*
X158925855Y-139702355D01*
X158544855Y-140083355D01*
X158537279Y-140089573D01*
X158528634Y-140094194D01*
X158519255Y-140097039D01*
X158509500Y-140098000D01*
X149746500Y-140098000D01*
X149736745Y-140097039D01*
X149727366Y-140094194D01*
X149718721Y-140089573D01*
X149711145Y-140083355D01*
X149704927Y-140075779D01*
X149700306Y-140067134D01*
X149697461Y-140057755D01*
X149696500Y-140048000D01*
X149696500Y-139413000D01*
X149697461Y-139403245D01*
G37*
G36*
X149696500Y-134873000D02*
G01*
X149696500Y-134714000D01*
X149697461Y-134704245D01*
X149700306Y-134694866D01*
X149704897Y-134686265D01*
X149958897Y-134305265D01*
X149965108Y-134297682D01*
X149972678Y-134291456D01*
X149981318Y-134286826D01*
X149990694Y-134283971D01*
X150000500Y-134283000D01*
X150381500Y-134283000D01*
X150391255Y-134283961D01*
X150400634Y-134286806D01*
X150409279Y-134291427D01*
X150416855Y-134297645D01*
X150423073Y-134305221D01*
X150427694Y-134313866D01*
X150430539Y-134323245D01*
X150431500Y-134333000D01*
X150431500Y-134873000D01*
X150439000Y-134873000D01*
X150439000Y-134918000D01*
X157620500Y-134918000D01*
X157630255Y-134918961D01*
X157639634Y-134921806D01*
X157648279Y-134926427D01*
X157655855Y-134932645D01*
X157662073Y-134940221D01*
X157666694Y-134948866D01*
X157669539Y-134958245D01*
X157670500Y-134968000D01*
X157670500Y-135476000D01*
X157669539Y-135485755D01*
X157666694Y-135495134D01*
X157662073Y-135503779D01*
X157655855Y-135511355D01*
X157648279Y-135517573D01*
X157639634Y-135522194D01*
X157630255Y-135525039D01*
X157620500Y-135526000D01*
X150439000Y-135526000D01*
X150439000Y-136696139D01*
X157620621Y-136713500D01*
X157630373Y-136714484D01*
X157639746Y-136717352D01*
X157648379Y-136721994D01*
X157655941Y-136728230D01*
X157662141Y-136735822D01*
X157666740Y-136744478D01*
X157669563Y-136753864D01*
X157670500Y-136763500D01*
X157670500Y-137254000D01*
X157669539Y-137263755D01*
X157666694Y-137273134D01*
X157662073Y-137281779D01*
X157655855Y-137289355D01*
X157648279Y-137295573D01*
X157639634Y-137300194D01*
X157630255Y-137303039D01*
X157620500Y-137304000D01*
X150439000Y-137304000D01*
X150439000Y-138474000D01*
X157747500Y-138474000D01*
X157757255Y-138474961D01*
X157766634Y-138477806D01*
X157775279Y-138482427D01*
X157782855Y-138488645D01*
X157789073Y-138496221D01*
X157793694Y-138504866D01*
X157796539Y-138514245D01*
X157797500Y-138524000D01*
X157797500Y-139032000D01*
X157796539Y-139041755D01*
X157793694Y-139051134D01*
X157789073Y-139059779D01*
X157782855Y-139067355D01*
X157775279Y-139073573D01*
X157766634Y-139078194D01*
X157757255Y-139081039D01*
X157747500Y-139082000D01*
X149746500Y-139082000D01*
X149736745Y-139081039D01*
X149727366Y-139078194D01*
X149718721Y-139073573D01*
X149711145Y-139067355D01*
X149704927Y-139059779D01*
X149700306Y-139051134D01*
X149697461Y-139041755D01*
X149696500Y-139032000D01*
X149696500Y-138873000D01*
X149689000Y-138873000D01*
X149689000Y-134873000D01*
X149696500Y-134873000D01*
G37*
G36*
X148127000Y-140760000D02*
G01*
X148286000Y-140760000D01*
X148295755Y-140760961D01*
X148305134Y-140763806D01*
X148313735Y-140768397D01*
X148694735Y-141022397D01*
X148702318Y-141028608D01*
X148708544Y-141036178D01*
X148713174Y-141044818D01*
X148716029Y-141054194D01*
X148717000Y-141064000D01*
X148717000Y-141445000D01*
X148716039Y-141454755D01*
X148713194Y-141464134D01*
X148708573Y-141472779D01*
X148702355Y-141480355D01*
X148694779Y-141486573D01*
X148686134Y-141491194D01*
X148676755Y-141494039D01*
X148667000Y-141495000D01*
X148127000Y-141495000D01*
X148127000Y-141502500D01*
X148082000Y-141502500D01*
X148082000Y-148684000D01*
X148081039Y-148693755D01*
X148078194Y-148703134D01*
X148073573Y-148711779D01*
X148067355Y-148719355D01*
X148059779Y-148725573D01*
X148051134Y-148730194D01*
X148041755Y-148733039D01*
X148032000Y-148734000D01*
X147524000Y-148734000D01*
X147514245Y-148733039D01*
X147504866Y-148730194D01*
X147496221Y-148725573D01*
X147488645Y-148719355D01*
X147482427Y-148711779D01*
X147477806Y-148703134D01*
X147474961Y-148693755D01*
X147474000Y-148684000D01*
X147474000Y-141502500D01*
X146303861Y-141502500D01*
X146286500Y-148684121D01*
X146285516Y-148693873D01*
X146282648Y-148703246D01*
X146278006Y-148711879D01*
X146271770Y-148719441D01*
X146264178Y-148725641D01*
X146255522Y-148730240D01*
X146246136Y-148733063D01*
X146236500Y-148734000D01*
X145746000Y-148734000D01*
X145736245Y-148733039D01*
X145726866Y-148730194D01*
X145718221Y-148725573D01*
X145710645Y-148719355D01*
X145704427Y-148711779D01*
X145699806Y-148703134D01*
X145696961Y-148693755D01*
X145696000Y-148684000D01*
X145696000Y-141502500D01*
X144526000Y-141502500D01*
X144526000Y-148811000D01*
X144525039Y-148820755D01*
X144522194Y-148830134D01*
X144517573Y-148838779D01*
X144511355Y-148846355D01*
X144503779Y-148852573D01*
X144495134Y-148857194D01*
X144485755Y-148860039D01*
X144476000Y-148861000D01*
X143968000Y-148861000D01*
X143958245Y-148860039D01*
X143948866Y-148857194D01*
X143940221Y-148852573D01*
X143932645Y-148846355D01*
X143926427Y-148838779D01*
X143921806Y-148830134D01*
X143918961Y-148820755D01*
X143918000Y-148811000D01*
X143918000Y-140810000D01*
X143918961Y-140800245D01*
X143921806Y-140790866D01*
X143926427Y-140782221D01*
X143932645Y-140774645D01*
X143940221Y-140768427D01*
X143948866Y-140763806D01*
X143958245Y-140760961D01*
X143968000Y-140760000D01*
X144127000Y-140760000D01*
X144127000Y-140752500D01*
X148127000Y-140752500D01*
X148127000Y-140760000D01*
G37*
G36*
X143596755Y-140760961D02*
G01*
X143606134Y-140763806D01*
X143614779Y-140768427D01*
X143622355Y-140774645D01*
X143628573Y-140782221D01*
X143633194Y-140790866D01*
X143636039Y-140800245D01*
X143637000Y-140810000D01*
X143637000Y-149142000D01*
X144807000Y-149142000D01*
X144807000Y-141826000D01*
X144807961Y-141816245D01*
X144810806Y-141806866D01*
X144815427Y-141798221D01*
X144821645Y-141790645D01*
X144829221Y-141784427D01*
X144837866Y-141779806D01*
X144847245Y-141776961D01*
X144857000Y-141776000D01*
X145365000Y-141776000D01*
X145374755Y-141776961D01*
X145384134Y-141779806D01*
X145392779Y-141784427D01*
X145400355Y-141790645D01*
X145406573Y-141798221D01*
X145411194Y-141806866D01*
X145414039Y-141816245D01*
X145415000Y-141826000D01*
X145415000Y-149142000D01*
X146585000Y-149142000D01*
X146585000Y-141826000D01*
X146585961Y-141816245D01*
X146588806Y-141806866D01*
X146593427Y-141798221D01*
X146599645Y-141790645D01*
X146607221Y-141784427D01*
X146615866Y-141779806D01*
X146625245Y-141776961D01*
X146635000Y-141776000D01*
X147143000Y-141776000D01*
X147152755Y-141776961D01*
X147162134Y-141779806D01*
X147170779Y-141784427D01*
X147178355Y-141790645D01*
X147184573Y-141798221D01*
X147189194Y-141806866D01*
X147192039Y-141816245D01*
X147193000Y-141826000D01*
X147193000Y-149142000D01*
X148363000Y-149142000D01*
X148363000Y-141826000D01*
X148363961Y-141816245D01*
X148366806Y-141806866D01*
X148371427Y-141798221D01*
X148377645Y-141790645D01*
X148385221Y-141784427D01*
X148393866Y-141779806D01*
X148403245Y-141776961D01*
X148413000Y-141776000D01*
X148921000Y-141776000D01*
X148930755Y-141776961D01*
X148940134Y-141779806D01*
X148948779Y-141784427D01*
X148956355Y-141790645D01*
X148962573Y-141798221D01*
X148967194Y-141806866D01*
X148970039Y-141816245D01*
X148971000Y-141826000D01*
X148971000Y-149319000D01*
X148970039Y-149328755D01*
X148967194Y-149338134D01*
X148963875Y-149344725D01*
X148582875Y-149979725D01*
X148577032Y-149987595D01*
X148569767Y-149994174D01*
X148561357Y-149999209D01*
X148552127Y-150002507D01*
X148540000Y-150004000D01*
X148500000Y-150004000D01*
X148500000Y-150075000D01*
X143500000Y-150075000D01*
X143500000Y-150004000D01*
X143333000Y-150004000D01*
X143323245Y-150003039D01*
X143313866Y-150000194D01*
X143305221Y-149995573D01*
X143297645Y-149989355D01*
X142916645Y-149608355D01*
X142910427Y-149600779D01*
X142905806Y-149592134D01*
X142902961Y-149582755D01*
X142902000Y-149573000D01*
X142902000Y-140810000D01*
X142902961Y-140800245D01*
X142905806Y-140790866D01*
X142910427Y-140782221D01*
X142916645Y-140774645D01*
X142924221Y-140768427D01*
X142932866Y-140763806D01*
X142942245Y-140760961D01*
X142952000Y-140760000D01*
X143587000Y-140760000D01*
X143596755Y-140760961D01*
G37*
G36*
X188285004Y-100657704D02*
G01*
X188309273Y-100661304D01*
X188333071Y-100667265D01*
X188356171Y-100675530D01*
X188378349Y-100686020D01*
X188399393Y-100698633D01*
X188419098Y-100713247D01*
X188437277Y-100729723D01*
X188453753Y-100747902D01*
X188468367Y-100767607D01*
X188480980Y-100788651D01*
X188491470Y-100810829D01*
X188499735Y-100833929D01*
X188505696Y-100857727D01*
X188509296Y-100881996D01*
X188510500Y-100906500D01*
X188510500Y-101831500D01*
X188509296Y-101856004D01*
X188505696Y-101880273D01*
X188499735Y-101904071D01*
X188491470Y-101927171D01*
X188480980Y-101949349D01*
X188468367Y-101970393D01*
X188453753Y-101990098D01*
X188437277Y-102008277D01*
X188419098Y-102024753D01*
X188399393Y-102039367D01*
X188378349Y-102051980D01*
X188356171Y-102062470D01*
X188333071Y-102070735D01*
X188309273Y-102076696D01*
X188285004Y-102080296D01*
X188260500Y-102081500D01*
X187010500Y-102081500D01*
X186985996Y-102080296D01*
X186961727Y-102076696D01*
X186937929Y-102070735D01*
X186914829Y-102062470D01*
X186892651Y-102051980D01*
X186871607Y-102039367D01*
X186851902Y-102024753D01*
X186833723Y-102008277D01*
X186817247Y-101990098D01*
X186802633Y-101970393D01*
X186790020Y-101949349D01*
X186779530Y-101927171D01*
X186771265Y-101904071D01*
X186765304Y-101880273D01*
X186761704Y-101856004D01*
X186760500Y-101831500D01*
X186760500Y-100906500D01*
X186761704Y-100881996D01*
X186765304Y-100857727D01*
X186771265Y-100833929D01*
X186779530Y-100810829D01*
X186790020Y-100788651D01*
X186802633Y-100767607D01*
X186817247Y-100747902D01*
X186833723Y-100729723D01*
X186851902Y-100713247D01*
X186871607Y-100698633D01*
X186892651Y-100686020D01*
X186914829Y-100675530D01*
X186937929Y-100667265D01*
X186961727Y-100661304D01*
X186985996Y-100657704D01*
X187010500Y-100656500D01*
X188260500Y-100656500D01*
X188285004Y-100657704D01*
G37*
G36*
X188285004Y-97682704D02*
G01*
X188309273Y-97686304D01*
X188333071Y-97692265D01*
X188356171Y-97700530D01*
X188378349Y-97711020D01*
X188399393Y-97723633D01*
X188419098Y-97738247D01*
X188437277Y-97754723D01*
X188453753Y-97772902D01*
X188468367Y-97792607D01*
X188480980Y-97813651D01*
X188491470Y-97835829D01*
X188499735Y-97858929D01*
X188505696Y-97882727D01*
X188509296Y-97906996D01*
X188510500Y-97931500D01*
X188510500Y-98856500D01*
X188509296Y-98881004D01*
X188505696Y-98905273D01*
X188499735Y-98929071D01*
X188491470Y-98952171D01*
X188480980Y-98974349D01*
X188468367Y-98995393D01*
X188453753Y-99015098D01*
X188437277Y-99033277D01*
X188419098Y-99049753D01*
X188399393Y-99064367D01*
X188378349Y-99076980D01*
X188356171Y-99087470D01*
X188333071Y-99095735D01*
X188309273Y-99101696D01*
X188285004Y-99105296D01*
X188260500Y-99106500D01*
X187010500Y-99106500D01*
X186985996Y-99105296D01*
X186961727Y-99101696D01*
X186937929Y-99095735D01*
X186914829Y-99087470D01*
X186892651Y-99076980D01*
X186871607Y-99064367D01*
X186851902Y-99049753D01*
X186833723Y-99033277D01*
X186817247Y-99015098D01*
X186802633Y-98995393D01*
X186790020Y-98974349D01*
X186779530Y-98952171D01*
X186771265Y-98929071D01*
X186765304Y-98905273D01*
X186761704Y-98881004D01*
X186760500Y-98856500D01*
X186760500Y-97931500D01*
X186761704Y-97906996D01*
X186765304Y-97882727D01*
X186771265Y-97858929D01*
X186779530Y-97835829D01*
X186790020Y-97813651D01*
X186802633Y-97792607D01*
X186817247Y-97772902D01*
X186833723Y-97754723D01*
X186851902Y-97738247D01*
X186871607Y-97723633D01*
X186892651Y-97711020D01*
X186914829Y-97700530D01*
X186937929Y-97692265D01*
X186961727Y-97686304D01*
X186985996Y-97682704D01*
X187010500Y-97681500D01*
X188260500Y-97681500D01*
X188285004Y-97682704D01*
G37*
G36*
X190860004Y-97682704D02*
G01*
X190884273Y-97686304D01*
X190908071Y-97692265D01*
X190931171Y-97700530D01*
X190953349Y-97711020D01*
X190974393Y-97723633D01*
X190994098Y-97738247D01*
X191012277Y-97754723D01*
X191028753Y-97772902D01*
X191043367Y-97792607D01*
X191055980Y-97813651D01*
X191066470Y-97835829D01*
X191074735Y-97858929D01*
X191080696Y-97882727D01*
X191084296Y-97906996D01*
X191085500Y-97931500D01*
X191085500Y-98856500D01*
X191084296Y-98881004D01*
X191080696Y-98905273D01*
X191074735Y-98929071D01*
X191066470Y-98952171D01*
X191055980Y-98974349D01*
X191043367Y-98995393D01*
X191028753Y-99015098D01*
X191012277Y-99033277D01*
X190994098Y-99049753D01*
X190974393Y-99064367D01*
X190953349Y-99076980D01*
X190931171Y-99087470D01*
X190908071Y-99095735D01*
X190884273Y-99101696D01*
X190860004Y-99105296D01*
X190835500Y-99106500D01*
X189585500Y-99106500D01*
X189560996Y-99105296D01*
X189536727Y-99101696D01*
X189512929Y-99095735D01*
X189489829Y-99087470D01*
X189467651Y-99076980D01*
X189446607Y-99064367D01*
X189426902Y-99049753D01*
X189408723Y-99033277D01*
X189392247Y-99015098D01*
X189377633Y-98995393D01*
X189365020Y-98974349D01*
X189354530Y-98952171D01*
X189346265Y-98929071D01*
X189340304Y-98905273D01*
X189336704Y-98881004D01*
X189335500Y-98856500D01*
X189335500Y-97931500D01*
X189336704Y-97906996D01*
X189340304Y-97882727D01*
X189346265Y-97858929D01*
X189354530Y-97835829D01*
X189365020Y-97813651D01*
X189377633Y-97792607D01*
X189392247Y-97772902D01*
X189408723Y-97754723D01*
X189426902Y-97738247D01*
X189446607Y-97723633D01*
X189467651Y-97711020D01*
X189489829Y-97700530D01*
X189512929Y-97692265D01*
X189536727Y-97686304D01*
X189560996Y-97682704D01*
X189585500Y-97681500D01*
X190835500Y-97681500D01*
X190860004Y-97682704D01*
G37*
G36*
X190860004Y-100657704D02*
G01*
X190884273Y-100661304D01*
X190908071Y-100667265D01*
X190931171Y-100675530D01*
X190953349Y-100686020D01*
X190974393Y-100698633D01*
X190994098Y-100713247D01*
X191012277Y-100729723D01*
X191028753Y-100747902D01*
X191043367Y-100767607D01*
X191055980Y-100788651D01*
X191066470Y-100810829D01*
X191074735Y-100833929D01*
X191080696Y-100857727D01*
X191084296Y-100881996D01*
X191085500Y-100906500D01*
X191085500Y-101831500D01*
X191084296Y-101856004D01*
X191080696Y-101880273D01*
X191074735Y-101904071D01*
X191066470Y-101927171D01*
X191055980Y-101949349D01*
X191043367Y-101970393D01*
X191028753Y-101990098D01*
X191012277Y-102008277D01*
X190994098Y-102024753D01*
X190974393Y-102039367D01*
X190953349Y-102051980D01*
X190931171Y-102062470D01*
X190908071Y-102070735D01*
X190884273Y-102076696D01*
X190860004Y-102080296D01*
X190835500Y-102081500D01*
X189585500Y-102081500D01*
X189560996Y-102080296D01*
X189536727Y-102076696D01*
X189512929Y-102070735D01*
X189489829Y-102062470D01*
X189467651Y-102051980D01*
X189446607Y-102039367D01*
X189426902Y-102024753D01*
X189408723Y-102008277D01*
X189392247Y-101990098D01*
X189377633Y-101970393D01*
X189365020Y-101949349D01*
X189354530Y-101927171D01*
X189346265Y-101904071D01*
X189340304Y-101880273D01*
X189336704Y-101856004D01*
X189335500Y-101831500D01*
X189335500Y-100906500D01*
X189336704Y-100881996D01*
X189340304Y-100857727D01*
X189346265Y-100833929D01*
X189354530Y-100810829D01*
X189365020Y-100788651D01*
X189377633Y-100767607D01*
X189392247Y-100747902D01*
X189408723Y-100729723D01*
X189426902Y-100713247D01*
X189446607Y-100698633D01*
X189467651Y-100686020D01*
X189489829Y-100675530D01*
X189512929Y-100667265D01*
X189536727Y-100661304D01*
X189560996Y-100657704D01*
X189585500Y-100656500D01*
X190835500Y-100656500D01*
X190860004Y-100657704D01*
G37*
G36*
X193405004Y-100677704D02*
G01*
X193429273Y-100681304D01*
X193453071Y-100687265D01*
X193476171Y-100695530D01*
X193498349Y-100706020D01*
X193519393Y-100718633D01*
X193539098Y-100733247D01*
X193557277Y-100749723D01*
X193573753Y-100767902D01*
X193588367Y-100787607D01*
X193600980Y-100808651D01*
X193611470Y-100830829D01*
X193619735Y-100853929D01*
X193625696Y-100877727D01*
X193629296Y-100901996D01*
X193630500Y-100926500D01*
X193630500Y-101851500D01*
X193629296Y-101876004D01*
X193625696Y-101900273D01*
X193619735Y-101924071D01*
X193611470Y-101947171D01*
X193600980Y-101969349D01*
X193588367Y-101990393D01*
X193573753Y-102010098D01*
X193557277Y-102028277D01*
X193539098Y-102044753D01*
X193519393Y-102059367D01*
X193498349Y-102071980D01*
X193476171Y-102082470D01*
X193453071Y-102090735D01*
X193429273Y-102096696D01*
X193405004Y-102100296D01*
X193380500Y-102101500D01*
X192130500Y-102101500D01*
X192105996Y-102100296D01*
X192081727Y-102096696D01*
X192057929Y-102090735D01*
X192034829Y-102082470D01*
X192012651Y-102071980D01*
X191991607Y-102059367D01*
X191971902Y-102044753D01*
X191953723Y-102028277D01*
X191937247Y-102010098D01*
X191922633Y-101990393D01*
X191910020Y-101969349D01*
X191899530Y-101947171D01*
X191891265Y-101924071D01*
X191885304Y-101900273D01*
X191881704Y-101876004D01*
X191880500Y-101851500D01*
X191880500Y-100926500D01*
X191881704Y-100901996D01*
X191885304Y-100877727D01*
X191891265Y-100853929D01*
X191899530Y-100830829D01*
X191910020Y-100808651D01*
X191922633Y-100787607D01*
X191937247Y-100767902D01*
X191953723Y-100749723D01*
X191971902Y-100733247D01*
X191991607Y-100718633D01*
X192012651Y-100706020D01*
X192034829Y-100695530D01*
X192057929Y-100687265D01*
X192081727Y-100681304D01*
X192105996Y-100677704D01*
X192130500Y-100676500D01*
X193380500Y-100676500D01*
X193405004Y-100677704D01*
G37*
G36*
X193405004Y-97702704D02*
G01*
X193429273Y-97706304D01*
X193453071Y-97712265D01*
X193476171Y-97720530D01*
X193498349Y-97731020D01*
X193519393Y-97743633D01*
X193539098Y-97758247D01*
X193557277Y-97774723D01*
X193573753Y-97792902D01*
X193588367Y-97812607D01*
X193600980Y-97833651D01*
X193611470Y-97855829D01*
X193619735Y-97878929D01*
X193625696Y-97902727D01*
X193629296Y-97926996D01*
X193630500Y-97951500D01*
X193630500Y-98876500D01*
X193629296Y-98901004D01*
X193625696Y-98925273D01*
X193619735Y-98949071D01*
X193611470Y-98972171D01*
X193600980Y-98994349D01*
X193588367Y-99015393D01*
X193573753Y-99035098D01*
X193557277Y-99053277D01*
X193539098Y-99069753D01*
X193519393Y-99084367D01*
X193498349Y-99096980D01*
X193476171Y-99107470D01*
X193453071Y-99115735D01*
X193429273Y-99121696D01*
X193405004Y-99125296D01*
X193380500Y-99126500D01*
X192130500Y-99126500D01*
X192105996Y-99125296D01*
X192081727Y-99121696D01*
X192057929Y-99115735D01*
X192034829Y-99107470D01*
X192012651Y-99096980D01*
X191991607Y-99084367D01*
X191971902Y-99069753D01*
X191953723Y-99053277D01*
X191937247Y-99035098D01*
X191922633Y-99015393D01*
X191910020Y-98994349D01*
X191899530Y-98972171D01*
X191891265Y-98949071D01*
X191885304Y-98925273D01*
X191881704Y-98901004D01*
X191880500Y-98876500D01*
X191880500Y-97951500D01*
X191881704Y-97926996D01*
X191885304Y-97902727D01*
X191891265Y-97878929D01*
X191899530Y-97855829D01*
X191910020Y-97833651D01*
X191922633Y-97812607D01*
X191937247Y-97792902D01*
X191953723Y-97774723D01*
X191971902Y-97758247D01*
X191991607Y-97743633D01*
X192012651Y-97731020D01*
X192034829Y-97720530D01*
X192057929Y-97712265D01*
X192081727Y-97706304D01*
X192105996Y-97702704D01*
X192130500Y-97701500D01*
X193380500Y-97701500D01*
X193405004Y-97702704D01*
G37*
M02*
