M48
; DRILL file {KiCad (5.1.5-0-10_14)} date Monday, 21 June 2021 at 06:30:44 pm
; FORMAT={-:-/ absolute / metric / decimal}
; #@! TF.CreationDate,2021-06-21T18:30:44+12:00
; #@! TF.GenerationSoftware,Kicad,Pcbnew,(5.1.5-0-10_14)
; #@! TF.FileFunction,Plated,1,2,PTH
FMAT,2
METRIC
T1C0.300
T2C0.400
T3C0.600
T4C0.650
T5C0.750
T6C0.762
T7C0.800
T8C0.850
T9C0.900
T10C1.000
T11C1.200
T12C3.000
%
G90
G05
T1
X120.855Y-148.942
X120.855Y-150.442
X121.355Y-149.692
X121.854Y-148.942
X121.854Y-150.442
T2
X109.15Y-158.15
X109.5Y-154.55
X112.204Y-156.817
X112.492Y-157.775
X117.221Y-146.05
X121.6Y-164.6
X124.2Y-163.95
X124.2Y-165.4
X124.9Y-155.9
X124.9Y-159.2
X125.5Y-147.25
X127.65Y-165.3
X128.95Y-169.55
X130.6Y-173.25
X132.042Y-159.531
X132.2Y-155.35
X135.292Y-155.031
X137.3Y-160.5
X137.414Y-99.314
X137.605Y-101.473
X137.668Y-97.155
X137.792Y-155.231
X139.001Y-95.567
X139.75Y-162.85
X140.8Y-131.9
X141.986Y-101.727
X145.6Y-114.05
X147.6Y-138.95
X148.8Y-156.4
X152.2Y-122.1
X152.55Y-125.15
X153.162Y-104.775
X153.2Y-131.65
X153.6Y-119.4
X155.092Y-96.596
X155.2Y-121.7
X155.9Y-123.8
X156.2Y-101.725
X156.2Y-125.0
X157.0Y-101.1
X157.2Y-126.7
X158.369Y-102.489
X158.5Y-125.0
X158.877Y-105.156
X159.131Y-112.141
X159.258Y-108.204
X159.65Y-152.95
X160.147Y-98.742
X160.274Y-104.331
X160.4Y-167.05
X160.75Y-126.25
X160.75Y-163.2
X161.0Y-146.4
X161.75Y-151.55
X161.85Y-155.05
X162.15Y-143.8
X162.4Y-117.0
X162.6Y-160.05
X163.35Y-116.2
X165.45Y-131.7
X165.75Y-143.75
X166.25Y-124.35
X166.55Y-119.3
X167.386Y-99.441
X168.148Y-142.177
X168.148Y-146.431
X168.719Y-108.458
X168.719Y-110.045
X168.757Y-112.522
X169.037Y-122.682
X170.307Y-121.836
X170.498Y-141.986
X170.498Y-146.621
X171.894Y-106.934
X172.529Y-110.299
X173.05Y-138.75
X173.25Y-134.55
X173.9Y-160.1
X174.95Y-121.95
X175.451Y-133.858
X176.3Y-159.2
X178.244Y-103.569
X178.325Y-132.694
X178.625Y-96.075
X179.349Y-132.74
X179.858Y-125.235
X180.149Y-127.889
X182.4Y-120.4
X183.25Y-150.75
X183.904Y-170.8
X185.052Y-169.652
X186.102Y-168.602
X187.516Y-99.885
X187.528Y-133.604
X187.75Y-129.95
X190.055Y-99.885
X190.627Y-142.303
X191.55Y-151.475
X192.722Y-99.885
X193.611Y-159.766
X195.625Y-161.25
X198.321Y-151.384
X199.771Y-142.748
X199.898Y-160.147
X201.25Y-139.0
X203.759Y-142.088
X204.066Y-131.647
X205.232Y-151.384
X206.121Y-140.716
X210.82Y-135.319
X213.36Y-140.462
T3
X144.85Y-154.3
X146.35Y-154.3
X191.0Y-128.75
X191.0Y-130.0
X191.0Y-131.25
X195.325Y-145.375
X196.825Y-145.375
X175.465Y-99.092
X175.465Y-100.592
X120.3Y-133.8
X120.3Y-135.3
X130.5Y-127.5
X130.5Y-128.75
X130.5Y-130.0
T4
X201.65Y-144.475
X201.65Y-145.745
X201.65Y-147.015
X201.65Y-148.285
X201.65Y-149.555
T5
X164.25Y-96.158
X168.148Y-96.012
X131.699Y-97.282
X116.395Y-133.667
X142.299Y-96.543
X158.841Y-96.656
X214.711Y-137.069
X123.2Y-154.3
X131.699Y-99.314
X151.875Y-96.04
X107.0Y-154.75
X117.6Y-152.7
T6
X164.0Y-99.0
X164.0Y-104.0
X156.0Y-99.0
X156.0Y-104.0
T7
X209.15Y-143.675
X209.15Y-146.215
X209.15Y-148.755
X209.15Y-151.295
X209.15Y-153.835
X209.15Y-156.375
X209.15Y-158.915
X216.77Y-143.675
X216.77Y-146.215
X216.77Y-148.755
X216.77Y-151.295
X216.77Y-153.835
X216.77Y-156.375
X216.77Y-158.915
T10
X150.4Y-110.66
X150.4Y-113.2
X152.94Y-110.66
X152.94Y-113.2
X155.48Y-110.66
X155.48Y-113.2
X199.819Y-179.25
X199.819Y-194.75
X202.819Y-179.25
X202.819Y-194.75
X205.613Y-179.25
X205.613Y-194.747
X145.86Y-162.95
X147.99Y-162.95
X150.12Y-162.95
X152.25Y-162.95
X154.38Y-162.95
X167.053Y-179.25
X167.053Y-194.75
X170.053Y-179.25
X170.053Y-194.75
X172.847Y-179.25
X172.847Y-194.747
X134.541Y-179.25
X134.541Y-194.75
X137.541Y-179.25
X137.541Y-194.75
X140.335Y-179.25
X140.335Y-194.747
T11
X216.3Y-128.375
X216.3Y-132.875
T12
X163.553Y-179.0
X163.553Y-195.0
X176.553Y-179.0
X176.553Y-195.0
X131.041Y-179.0
X131.041Y-195.0
X144.041Y-179.0
X144.041Y-195.0
X196.319Y-179.0
X196.319Y-195.0
X209.319Y-179.0
X209.319Y-195.0
T3
X118.68Y-168.87G85X118.68Y-169.97
G05
X118.68Y-173.3G85X118.68Y-173.9
G05
X127.32Y-168.87G85X127.32Y-169.97
G05
X127.32Y-173.3G85X127.32Y-173.9
G05
T8
X122.175Y-98.575G85X122.175Y-98.025
G05
X122.175Y-102.375G85X122.175Y-101.825
G05
X129.325Y-98.575G85X129.325Y-98.025
G05
X129.325Y-102.375G85X129.325Y-101.825
G05
T9
X165.05Y-165.7G85X165.05Y-165.1
G05
X167.65Y-166.7G85X167.65Y-166.1
G05
X169.95Y-173.3G85X170.55Y-173.3
G05
X174.25Y-162.0G85X174.85Y-162.0
G05
X175.05Y-169.2G85X175.05Y-168.6
G05
T10
X214.4Y-127.125G85X213.2Y-127.125
G05
X214.4Y-134.125G85X213.2Y-134.125
G05
X145.0Y-174.0G85X145.0Y-173.0
G05
X155.5Y-174.0G85X155.5Y-173.0
G05
T0
M30
