%FSLAX45Y45*%
G04 Gerber Fmt 4.5, Leading zero omitted, Abs format (unit mm)*
G04 Created by KiCad (PCBNEW (5.1.5-0-10_14)) date 2021-06-21 18:30:45*
%MOMM*%
%LPD*%
G04 APERTURE LIST*
%TA.AperFunction,Profile*%
%ADD10C,0.050000*%
%TD*%
%ADD11C,0.200000*%
%ADD12C,0.300000*%
G04 APERTURE END LIST*
D10*
X20180300Y-10217150D02*
X19970750Y-10420350D01*
X13398500Y-17506950D02*
X13394100Y-17680000D01*
X14354100Y-17680000D02*
X14357350Y-17506950D01*
X13004800Y-17506950D02*
X12994100Y-17680000D01*
X13954100Y-17680000D02*
X13957300Y-17506950D01*
X17605300Y-17680000D02*
X17608550Y-17506950D01*
X16256000Y-17506950D02*
X16245300Y-17680000D01*
X16649700Y-17506950D02*
X16645300Y-17680000D01*
X17205300Y-17680000D02*
X17208500Y-17506950D01*
X10677800Y-17506950D02*
X13004800Y-17506950D01*
X14357350Y-17506950D02*
X16256000Y-17506950D01*
X17608550Y-17506950D02*
X19532600Y-17506950D01*
X17208500Y-17506950D02*
X16649700Y-17506950D01*
X13957300Y-17506950D02*
X13398500Y-17506950D01*
X19532600Y-17506950D02*
X19521900Y-17680000D01*
X20881900Y-17680000D02*
X20885150Y-17506950D01*
X19926300Y-17506950D02*
X19921900Y-17680000D01*
X20485100Y-17506950D02*
X19926300Y-17506950D01*
X20481900Y-17680000D02*
X20485100Y-17506950D01*
X21774150Y-17506950D02*
X20885150Y-17506950D01*
X10500000Y-12312650D02*
X10591800Y-12217400D01*
X10500000Y-17278350D02*
X10500000Y-12312650D01*
X10677800Y-17506950D02*
X10500000Y-17278350D01*
X21888450Y-17341850D02*
X21774150Y-17506950D01*
X21888450Y-12579350D02*
X21888450Y-17341850D01*
X20218400Y-12579350D02*
X21888450Y-12579350D01*
X20199350Y-12636500D02*
X20218400Y-12579350D01*
X20167600Y-12693650D02*
X20199350Y-12636500D01*
X20135850Y-12738100D02*
X20167600Y-12693650D01*
X20091400Y-12776200D02*
X20135850Y-12738100D01*
X20040600Y-12801600D02*
X20091400Y-12776200D01*
X19977100Y-12820650D02*
X20040600Y-12801600D01*
X19919950Y-12827000D02*
X19977100Y-12820650D01*
X19856450Y-12820650D02*
X19919950Y-12827000D01*
X19799300Y-12801600D02*
X19856450Y-12820650D01*
X19748500Y-12776200D02*
X19799300Y-12801600D01*
X19704050Y-12738100D02*
X19748500Y-12776200D01*
X19665950Y-12693650D02*
X19704050Y-12738100D01*
X19640550Y-12642850D02*
X19665950Y-12693650D01*
X19621500Y-12579350D02*
X19640550Y-12642850D01*
X19615150Y-12522200D02*
X19621500Y-12579350D01*
X19615150Y-12446000D02*
X19615150Y-12522200D01*
X18351500Y-12446000D02*
X19615150Y-12446000D01*
X18351500Y-11023600D02*
X18351500Y-12446000D01*
X18262600Y-11023600D02*
X18351500Y-11023600D01*
X18199100Y-11017250D02*
X18262600Y-11023600D01*
X18141950Y-10998200D02*
X18199100Y-11017250D01*
X18091150Y-10972800D02*
X18141950Y-10998200D01*
X18046700Y-10934700D02*
X18091150Y-10972800D01*
X18008600Y-10890250D02*
X18046700Y-10934700D01*
X17983200Y-10839450D02*
X18008600Y-10890250D01*
X17964150Y-10782300D02*
X17983200Y-10839450D01*
X17957800Y-10725150D02*
X17964150Y-10782300D01*
X17964150Y-10661650D02*
X17957800Y-10725150D01*
X17976850Y-10610850D02*
X17964150Y-10661650D01*
X18008600Y-10553700D02*
X17976850Y-10610850D01*
X18046700Y-10509250D02*
X18008600Y-10553700D01*
X18091150Y-10471150D02*
X18046700Y-10509250D01*
X18141950Y-10445750D02*
X18091150Y-10471150D01*
X18199100Y-10426700D02*
X18141950Y-10445750D01*
X18256250Y-10420350D02*
X18199100Y-10426700D01*
X19970750Y-10420350D02*
X18256250Y-10420350D01*
X20180300Y-9563100D02*
X20180300Y-10217150D01*
X20078700Y-9480550D02*
X20180300Y-9563100D01*
X12103100Y-9480550D02*
X20078700Y-9480550D01*
X12039600Y-9550400D02*
X12103100Y-9480550D01*
X12039600Y-9728200D02*
X12039600Y-9550400D01*
X12039600Y-10382250D02*
X12039600Y-9728200D01*
X13982700Y-10382250D02*
X12039600Y-10382250D01*
X14033500Y-10401300D02*
X13982700Y-10382250D01*
X14090650Y-10433050D02*
X14033500Y-10401300D01*
X14135100Y-10471150D02*
X14090650Y-10433050D01*
X14173200Y-10515600D02*
X14135100Y-10471150D01*
X14198600Y-10566400D02*
X14173200Y-10515600D01*
X14217650Y-10623550D02*
X14198600Y-10566400D01*
X14224000Y-10680700D02*
X14217650Y-10623550D01*
X14217650Y-10737850D02*
X14224000Y-10680700D01*
X14198600Y-10801350D02*
X14217650Y-10737850D01*
X14173200Y-10852150D02*
X14198600Y-10801350D01*
X14135100Y-10896600D02*
X14173200Y-10852150D01*
X14090650Y-10934700D02*
X14135100Y-10896600D01*
X14046200Y-10960100D02*
X14090650Y-10934700D01*
X13982700Y-10979150D02*
X14046200Y-10960100D01*
X13919200Y-10985500D02*
X13982700Y-10979150D01*
X13843000Y-10985500D02*
X13919200Y-10985500D01*
X13843000Y-12249150D02*
X13843000Y-10985500D01*
X12420600Y-12249150D02*
X13843000Y-12249150D01*
X12420600Y-12344400D02*
X12420600Y-12249150D01*
X12414250Y-12401550D02*
X12420600Y-12344400D01*
X12395200Y-12458700D02*
X12414250Y-12401550D01*
X12369800Y-12509500D02*
X12395200Y-12458700D01*
X12331700Y-12553950D02*
X12369800Y-12509500D01*
X12287250Y-12592050D02*
X12331700Y-12553950D01*
X12236450Y-12617450D02*
X12287250Y-12592050D01*
X12179300Y-12636500D02*
X12236450Y-12617450D01*
X12115800Y-12642850D02*
X12179300Y-12636500D01*
X12065000Y-12636500D02*
X12115800Y-12642850D01*
X12001500Y-12617450D02*
X12065000Y-12636500D01*
X11950700Y-12592050D02*
X12001500Y-12617450D01*
X11906250Y-12553950D02*
X11950700Y-12592050D01*
X11868150Y-12509500D02*
X11906250Y-12553950D01*
X11842750Y-12458700D02*
X11868150Y-12509500D01*
X11823700Y-12401550D02*
X11842750Y-12458700D01*
X11817350Y-12344400D02*
X11823700Y-12401550D01*
X11817350Y-12217400D02*
X11817350Y-12344400D01*
X11252200Y-12217400D02*
X11817350Y-12217400D01*
X10591800Y-12217400D02*
X11252200Y-12217400D01*
D11*
X12070450Y-14879200D02*
X12100450Y-14909200D01*
X12100450Y-14879200D02*
X12070450Y-14909200D01*
X12070450Y-15029200D02*
X12100450Y-15059200D01*
X12100450Y-15029200D02*
X12070450Y-15059200D01*
X12120450Y-14954200D02*
X12150450Y-14984200D01*
X12150450Y-14954200D02*
X12120450Y-14984200D01*
X12170450Y-14879200D02*
X12200450Y-14909200D01*
X12200450Y-14879200D02*
X12170450Y-14909200D01*
X12170450Y-15029200D02*
X12200450Y-15059200D01*
X12200450Y-15029200D02*
X12170450Y-15059200D01*
X10935000Y-15815000D02*
G75*
G03X10935000Y-15815000I-20000J0D01*
G01*
X10970000Y-15455000D02*
G75*
G03X10970000Y-15455000I-20000J0D01*
G01*
X11240355Y-15681742D02*
G75*
G03X11240355Y-15681742I-20000J0D01*
G01*
X11269173Y-15777500D02*
G75*
G03X11269173Y-15777500I-20000J0D01*
G01*
X11742100Y-14605000D02*
G75*
G03X11742100Y-14605000I-20000J0D01*
G01*
X12180000Y-16460000D02*
G75*
G03X12180000Y-16460000I-20000J0D01*
G01*
X12440000Y-16395000D02*
G75*
G03X12440000Y-16395000I-20000J0D01*
G01*
X12440000Y-16540000D02*
G75*
G03X12440000Y-16540000I-20000J0D01*
G01*
X12510000Y-15590000D02*
G75*
G03X12510000Y-15590000I-20000J0D01*
G01*
X12510000Y-15920000D02*
G75*
G03X12510000Y-15920000I-20000J0D01*
G01*
X12570000Y-14725000D02*
G75*
G03X12570000Y-14725000I-20000J0D01*
G01*
X12785000Y-16530000D02*
G75*
G03X12785000Y-16530000I-20000J0D01*
G01*
X12915000Y-16955000D02*
G75*
G03X12915000Y-16955000I-20000J0D01*
G01*
X13080000Y-17325000D02*
G75*
G03X13080000Y-17325000I-20000J0D01*
G01*
X13224200Y-15953100D02*
G75*
G03X13224200Y-15953100I-20000J0D01*
G01*
X13240000Y-15535000D02*
G75*
G03X13240000Y-15535000I-20000J0D01*
G01*
X13549200Y-15503100D02*
G75*
G03X13549200Y-15503100I-20000J0D01*
G01*
X13750000Y-16050000D02*
G75*
G03X13750000Y-16050000I-20000J0D01*
G01*
X13761400Y-9931400D02*
G75*
G03X13761400Y-9931400I-20000J0D01*
G01*
X13780450Y-10147300D02*
G75*
G03X13780450Y-10147300I-20000J0D01*
G01*
X13786800Y-9715500D02*
G75*
G03X13786800Y-9715500I-20000J0D01*
G01*
X13799200Y-15523100D02*
G75*
G03X13799200Y-15523100I-20000J0D01*
G01*
X13920150Y-9556750D02*
G75*
G03X13920150Y-9556750I-20000J0D01*
G01*
X13995000Y-16285000D02*
G75*
G03X13995000Y-16285000I-20000J0D01*
G01*
X14100000Y-13190000D02*
G75*
G03X14100000Y-13190000I-20000J0D01*
G01*
X14218600Y-10172700D02*
G75*
G03X14218600Y-10172700I-20000J0D01*
G01*
X14580000Y-11405000D02*
G75*
G03X14580000Y-11405000I-20000J0D01*
G01*
X14780000Y-13895000D02*
G75*
G03X14780000Y-13895000I-20000J0D01*
G01*
X14900000Y-15640000D02*
G75*
G03X14900000Y-15640000I-20000J0D01*
G01*
X15240000Y-12210000D02*
G75*
G03X15240000Y-12210000I-20000J0D01*
G01*
X15275000Y-12515000D02*
G75*
G03X15275000Y-12515000I-20000J0D01*
G01*
X15336200Y-10477500D02*
G75*
G03X15336200Y-10477500I-20000J0D01*
G01*
X15340000Y-13165000D02*
G75*
G03X15340000Y-13165000I-20000J0D01*
G01*
X15380000Y-11940000D02*
G75*
G03X15380000Y-11940000I-20000J0D01*
G01*
X15529240Y-9659620D02*
G75*
G03X15529240Y-9659620I-20000J0D01*
G01*
X15540000Y-12170000D02*
G75*
G03X15540000Y-12170000I-20000J0D01*
G01*
X15610000Y-12380000D02*
G75*
G03X15610000Y-12380000I-20000J0D01*
G01*
X15640000Y-10172500D02*
G75*
G03X15640000Y-10172500I-20000J0D01*
G01*
X15640000Y-12500000D02*
G75*
G03X15640000Y-12500000I-20000J0D01*
G01*
X15720000Y-10110000D02*
G75*
G03X15720000Y-10110000I-20000J0D01*
G01*
X15740000Y-12670000D02*
G75*
G03X15740000Y-12670000I-20000J0D01*
G01*
X15856900Y-10248900D02*
G75*
G03X15856900Y-10248900I-20000J0D01*
G01*
X15870000Y-12500000D02*
G75*
G03X15870000Y-12500000I-20000J0D01*
G01*
X15907700Y-10515600D02*
G75*
G03X15907700Y-10515600I-20000J0D01*
G01*
X15933100Y-11214100D02*
G75*
G03X15933100Y-11214100I-20000J0D01*
G01*
X15945800Y-10820400D02*
G75*
G03X15945800Y-10820400I-20000J0D01*
G01*
X15985000Y-15295000D02*
G75*
G03X15985000Y-15295000I-20000J0D01*
G01*
X16034700Y-9874250D02*
G75*
G03X16034700Y-9874250I-20000J0D01*
G01*
X16047400Y-10433050D02*
G75*
G03X16047400Y-10433050I-20000J0D01*
G01*
X16060000Y-16705000D02*
G75*
G03X16060000Y-16705000I-20000J0D01*
G01*
X16095000Y-12625000D02*
G75*
G03X16095000Y-12625000I-20000J0D01*
G01*
X16095000Y-16320000D02*
G75*
G03X16095000Y-16320000I-20000J0D01*
G01*
X16120000Y-14640000D02*
G75*
G03X16120000Y-14640000I-20000J0D01*
G01*
X16195000Y-15155000D02*
G75*
G03X16195000Y-15155000I-20000J0D01*
G01*
X16205000Y-15505000D02*
G75*
G03X16205000Y-15505000I-20000J0D01*
G01*
X16235000Y-14380000D02*
G75*
G03X16235000Y-14380000I-20000J0D01*
G01*
X16260000Y-11700000D02*
G75*
G03X16260000Y-11700000I-20000J0D01*
G01*
X16280000Y-16005000D02*
G75*
G03X16280000Y-16005000I-20000J0D01*
G01*
X16355000Y-11620000D02*
G75*
G03X16355000Y-11620000I-20000J0D01*
G01*
X16565000Y-13170000D02*
G75*
G03X16565000Y-13170000I-20000J0D01*
G01*
X16595000Y-14375000D02*
G75*
G03X16595000Y-14375000I-20000J0D01*
G01*
X16645000Y-12435000D02*
G75*
G03X16645000Y-12435000I-20000J0D01*
G01*
X16675000Y-11930000D02*
G75*
G03X16675000Y-11930000I-20000J0D01*
G01*
X16758600Y-9944100D02*
G75*
G03X16758600Y-9944100I-20000J0D01*
G01*
X16834800Y-14217650D02*
G75*
G03X16834800Y-14217650I-20000J0D01*
G01*
X16834800Y-14643100D02*
G75*
G03X16834800Y-14643100I-20000J0D01*
G01*
X16891950Y-10845800D02*
G75*
G03X16891950Y-10845800I-20000J0D01*
G01*
X16891950Y-11004550D02*
G75*
G03X16891950Y-11004550I-20000J0D01*
G01*
X16895699Y-11252200D02*
G75*
G03X16895699Y-11252200I-20000J0D01*
G01*
X16923700Y-12268200D02*
G75*
G03X16923700Y-12268200I-20000J0D01*
G01*
X17050700Y-12183560D02*
G75*
G03X17050700Y-12183560I-20000J0D01*
G01*
X17069750Y-14198600D02*
G75*
G03X17069750Y-14198600I-20000J0D01*
G01*
X17069750Y-14662150D02*
G75*
G03X17069750Y-14662150I-20000J0D01*
G01*
X17209450Y-10693400D02*
G75*
G03X17209450Y-10693400I-20000J0D01*
G01*
X17272950Y-11029950D02*
G75*
G03X17272950Y-11029950I-20000J0D01*
G01*
X17325000Y-13875000D02*
G75*
G03X17325000Y-13875000I-20000J0D01*
G01*
X17345000Y-13455000D02*
G75*
G03X17345000Y-13455000I-20000J0D01*
G01*
X17410000Y-16010000D02*
G75*
G03X17410000Y-16010000I-20000J0D01*
G01*
X17515000Y-12195000D02*
G75*
G03X17515000Y-12195000I-20000J0D01*
G01*
X17565050Y-13385800D02*
G75*
G03X17565050Y-13385800I-20000J0D01*
G01*
X17650000Y-15920000D02*
G75*
G03X17650000Y-15920000I-20000J0D01*
G01*
X17844450Y-10356850D02*
G75*
G03X17844450Y-10356850I-20000J0D01*
G01*
X17852540Y-13269440D02*
G75*
G03X17852540Y-13269440I-20000J0D01*
G01*
X17882550Y-9607550D02*
G75*
G03X17882550Y-9607550I-20000J0D01*
G01*
X17954940Y-13274040D02*
G75*
G03X17954940Y-13274040I-20000J0D01*
G01*
X18005798Y-12523500D02*
G75*
G03X18005798Y-12523500I-20000J0D01*
G01*
X18034950Y-12788900D02*
G75*
G03X18034950Y-12788900I-20000J0D01*
G01*
X18260000Y-12040000D02*
G75*
G03X18260000Y-12040000I-20000J0D01*
G01*
X18345000Y-15075000D02*
G75*
G03X18345000Y-15075000I-20000J0D01*
G01*
X18410400Y-17080000D02*
G75*
G03X18410400Y-17080000I-20000J0D01*
G01*
X18525200Y-16965200D02*
G75*
G03X18525200Y-16965200I-20000J0D01*
G01*
X18630200Y-16860200D02*
G75*
G03X18630200Y-16860200I-20000J0D01*
G01*
X18771550Y-9988550D02*
G75*
G03X18771550Y-9988550I-20000J0D01*
G01*
X18772820Y-13360400D02*
G75*
G03X18772820Y-13360400I-20000J0D01*
G01*
X18795000Y-12995000D02*
G75*
G03X18795000Y-12995000I-20000J0D01*
G01*
X19025550Y-9988550D02*
G75*
G03X19025550Y-9988550I-20000J0D01*
G01*
X19082700Y-14230350D02*
G75*
G03X19082700Y-14230350I-20000J0D01*
G01*
X19175000Y-15147500D02*
G75*
G03X19175000Y-15147500I-20000J0D01*
G01*
X19292250Y-9988550D02*
G75*
G03X19292250Y-9988550I-20000J0D01*
G01*
X19381150Y-15976600D02*
G75*
G03X19381150Y-15976600I-20000J0D01*
G01*
X19582500Y-16125000D02*
G75*
G03X19582500Y-16125000I-20000J0D01*
G01*
X19852100Y-15138400D02*
G75*
G03X19852100Y-15138400I-20000J0D01*
G01*
X19997100Y-14274800D02*
G75*
G03X19997100Y-14274800I-20000J0D01*
G01*
X20009800Y-16014700D02*
G75*
G03X20009800Y-16014700I-20000J0D01*
G01*
X20145000Y-13900000D02*
G75*
G03X20145000Y-13900000I-20000J0D01*
G01*
X20395880Y-14208760D02*
G75*
G03X20395880Y-14208760I-20000J0D01*
G01*
X20426613Y-13164710D02*
G75*
G03X20426613Y-13164710I-20000J0D01*
G01*
X20543200Y-15138400D02*
G75*
G03X20543200Y-15138400I-20000J0D01*
G01*
X20632100Y-14071600D02*
G75*
G03X20632100Y-14071600I-20000J0D01*
G01*
X21102000Y-13531850D02*
G75*
G03X21102000Y-13531850I-20000J0D01*
G01*
X21356000Y-14046200D02*
G75*
G03X21356000Y-14046200I-20000J0D01*
G01*
X14485000Y-15400000D02*
X14485000Y-15460000D01*
X14455000Y-15430000D02*
X14515000Y-15430000D01*
X14635000Y-15400000D02*
X14635000Y-15460000D01*
X14605000Y-15430000D02*
X14665000Y-15430000D01*
X11868000Y-16912000D02*
X11868000Y-16972000D01*
X11838000Y-16942000D02*
X11898000Y-16942000D01*
X11848000Y-16887000D02*
X11848000Y-16997000D01*
X11888000Y-16887000D02*
X11888000Y-16997000D01*
X11848000Y-16997000D02*
G75*
G03X11888000Y-16997000I20000J0D01*
G01*
X11888000Y-16887000D02*
G75*
G03X11848000Y-16887000I-20000J0D01*
G01*
X11868000Y-17330000D02*
X11868000Y-17390000D01*
X11838000Y-17360000D02*
X11898000Y-17360000D01*
X11848000Y-17330000D02*
X11848000Y-17390000D01*
X11888000Y-17330000D02*
X11888000Y-17390000D01*
X11848000Y-17390000D02*
G75*
G03X11888000Y-17390000I20000J0D01*
G01*
X11888000Y-17330000D02*
G75*
G03X11848000Y-17330000I-20000J0D01*
G01*
X12732000Y-16912000D02*
X12732000Y-16972000D01*
X12702000Y-16942000D02*
X12762000Y-16942000D01*
X12712000Y-16887000D02*
X12712000Y-16997000D01*
X12752000Y-16887000D02*
X12752000Y-16997000D01*
X12712000Y-16997000D02*
G75*
G03X12752000Y-16997000I20000J0D01*
G01*
X12752000Y-16887000D02*
G75*
G03X12712000Y-16887000I-20000J0D01*
G01*
X12732000Y-17330000D02*
X12732000Y-17390000D01*
X12702000Y-17360000D02*
X12762000Y-17360000D01*
X12712000Y-17330000D02*
X12712000Y-17390000D01*
X12752000Y-17330000D02*
X12752000Y-17390000D01*
X12712000Y-17390000D02*
G75*
G03X12752000Y-17390000I20000J0D01*
G01*
X12752000Y-17330000D02*
G75*
G03X12712000Y-17330000I-20000J0D01*
G01*
X19100000Y-12845000D02*
X19100000Y-12905000D01*
X19070000Y-12875000D02*
X19130000Y-12875000D01*
X19100000Y-12970000D02*
X19100000Y-13030000D01*
X19070000Y-13000000D02*
X19130000Y-13000000D01*
X19100000Y-13095000D02*
X19100000Y-13155000D01*
X19070000Y-13125000D02*
X19130000Y-13125000D01*
X19532500Y-14507500D02*
X19532500Y-14567500D01*
X19502500Y-14537500D02*
X19562500Y-14537500D01*
X19682500Y-14507500D02*
X19682500Y-14567500D01*
X19652500Y-14537500D02*
X19712500Y-14537500D01*
X17546500Y-9879200D02*
X17546500Y-9939200D01*
X17516500Y-9909200D02*
X17576500Y-9909200D01*
X17546500Y-10029200D02*
X17546500Y-10089200D01*
X17516500Y-10059200D02*
X17576500Y-10059200D01*
X12030000Y-13350000D02*
X12030000Y-13410000D01*
X12000000Y-13380000D02*
X12060000Y-13380000D01*
X12030000Y-13500000D02*
X12030000Y-13560000D01*
X12000000Y-13530000D02*
X12060000Y-13530000D01*
X13050000Y-12720000D02*
X13050000Y-12780000D01*
X13020000Y-12750000D02*
X13080000Y-12750000D01*
X13050000Y-12845000D02*
X13050000Y-12905000D01*
X13020000Y-12875000D02*
X13080000Y-12875000D01*
X13050000Y-12970000D02*
X13050000Y-13030000D01*
X13020000Y-13000000D02*
X13080000Y-13000000D01*
X20187981Y-14470481D02*
X20187981Y-14424519D01*
X20142019Y-14424519D01*
X20142019Y-14470481D01*
X20187981Y-14470481D01*
X20187981Y-14597481D02*
X20187981Y-14551519D01*
X20142019Y-14551519D01*
X20142019Y-14597481D01*
X20187981Y-14597481D01*
X20187981Y-14724481D02*
X20187981Y-14678519D01*
X20142019Y-14678519D01*
X20142019Y-14724481D01*
X20187981Y-14724481D01*
X20187981Y-14851481D02*
X20187981Y-14805519D01*
X20142019Y-14805519D01*
X20142019Y-14851481D01*
X20187981Y-14851481D01*
X20187981Y-14978481D02*
X20187981Y-14932519D01*
X20142019Y-14932519D01*
X20142019Y-14978481D01*
X20187981Y-14978481D01*
X16425000Y-9653300D02*
X16462500Y-9615800D01*
X16425000Y-9578300D01*
X16387500Y-9615800D01*
X16425000Y-9653300D01*
X16814800Y-9638700D02*
X16852300Y-9601200D01*
X16814800Y-9563700D01*
X16777300Y-9601200D01*
X16814800Y-9638700D01*
X13169900Y-9765700D02*
X13207400Y-9728200D01*
X13169900Y-9690700D01*
X13132400Y-9728200D01*
X13169900Y-9765700D01*
X11639550Y-13404250D02*
X11677050Y-13366750D01*
X11639550Y-13329250D01*
X11602050Y-13366750D01*
X11639550Y-13404250D01*
X14229900Y-9691800D02*
X14267400Y-9654300D01*
X14229900Y-9616800D01*
X14192400Y-9654300D01*
X14229900Y-9691800D01*
X15884100Y-9703100D02*
X15921600Y-9665600D01*
X15884100Y-9628100D01*
X15846600Y-9665600D01*
X15884100Y-9703100D01*
X21471075Y-13744400D02*
X21508575Y-13706900D01*
X21471075Y-13669400D01*
X21433575Y-13706900D01*
X21471075Y-13744400D01*
X12320000Y-15467500D02*
X12357500Y-15430000D01*
X12320000Y-15392500D01*
X12282500Y-15430000D01*
X12320000Y-15467500D01*
X13169900Y-9968900D02*
X13207400Y-9931400D01*
X13169900Y-9893900D01*
X13132400Y-9931400D01*
X13169900Y-9968900D01*
X15187520Y-9641500D02*
X15225020Y-9604000D01*
X15187520Y-9566500D01*
X15150020Y-9604000D01*
X15187520Y-9641500D01*
X10700000Y-15512500D02*
X10737500Y-15475000D01*
X10700000Y-15437500D01*
X10662500Y-15475000D01*
X10700000Y-15512500D01*
X11760000Y-15307500D02*
X11797500Y-15270000D01*
X11760000Y-15232500D01*
X11722500Y-15270000D01*
X11760000Y-15307500D01*
X16361900Y-9861900D02*
X16438100Y-9938100D01*
X16438100Y-9861900D02*
X16361900Y-9938100D01*
X16438100Y-9900000D02*
G75*
G03X16438100Y-9900000I-38100J0D01*
G01*
X16361900Y-10361900D02*
X16438100Y-10438100D01*
X16438100Y-10361900D02*
X16361900Y-10438100D01*
X16438100Y-10400000D02*
G75*
G03X16438100Y-10400000I-38100J0D01*
G01*
X15561900Y-9861900D02*
X15638100Y-9938100D01*
X15638100Y-9861900D02*
X15561900Y-9938100D01*
X15638100Y-9900000D02*
G75*
G03X15638100Y-9900000I-38100J0D01*
G01*
X15561900Y-10361900D02*
X15638100Y-10438100D01*
X15638100Y-10361900D02*
X15561900Y-10438100D01*
X15638100Y-10400000D02*
G75*
G03X15638100Y-10400000I-38100J0D01*
G01*
X20875000Y-14327500D02*
X20955000Y-14407500D01*
X20955000Y-14327500D02*
X20875000Y-14407500D01*
X20915000Y-14327500D02*
X20915000Y-14407500D01*
X20875000Y-14367500D02*
X20955000Y-14367500D01*
X20875000Y-14581500D02*
X20955000Y-14661500D01*
X20955000Y-14581500D02*
X20875000Y-14661500D01*
X20915000Y-14581500D02*
X20915000Y-14661500D01*
X20875000Y-14621500D02*
X20955000Y-14621500D01*
X20875000Y-14835500D02*
X20955000Y-14915500D01*
X20955000Y-14835500D02*
X20875000Y-14915500D01*
X20915000Y-14835500D02*
X20915000Y-14915500D01*
X20875000Y-14875500D02*
X20955000Y-14875500D01*
X20875000Y-15089500D02*
X20955000Y-15169500D01*
X20955000Y-15089500D02*
X20875000Y-15169500D01*
X20915000Y-15089500D02*
X20915000Y-15169500D01*
X20875000Y-15129500D02*
X20955000Y-15129500D01*
X20875000Y-15343500D02*
X20955000Y-15423500D01*
X20955000Y-15343500D02*
X20875000Y-15423500D01*
X20915000Y-15343500D02*
X20915000Y-15423500D01*
X20875000Y-15383500D02*
X20955000Y-15383500D01*
X20875000Y-15597500D02*
X20955000Y-15677500D01*
X20955000Y-15597500D02*
X20875000Y-15677500D01*
X20915000Y-15597500D02*
X20915000Y-15677500D01*
X20875000Y-15637500D02*
X20955000Y-15637500D01*
X20875000Y-15851500D02*
X20955000Y-15931500D01*
X20955000Y-15851500D02*
X20875000Y-15931500D01*
X20915000Y-15851500D02*
X20915000Y-15931500D01*
X20875000Y-15891500D02*
X20955000Y-15891500D01*
X21637000Y-14327500D02*
X21717000Y-14407500D01*
X21717000Y-14327500D02*
X21637000Y-14407500D01*
X21677000Y-14327500D02*
X21677000Y-14407500D01*
X21637000Y-14367500D02*
X21717000Y-14367500D01*
X21637000Y-14581500D02*
X21717000Y-14661500D01*
X21717000Y-14581500D02*
X21637000Y-14661500D01*
X21677000Y-14581500D02*
X21677000Y-14661500D01*
X21637000Y-14621500D02*
X21717000Y-14621500D01*
X21637000Y-14835500D02*
X21717000Y-14915500D01*
X21717000Y-14835500D02*
X21637000Y-14915500D01*
X21677000Y-14835500D02*
X21677000Y-14915500D01*
X21637000Y-14875500D02*
X21717000Y-14875500D01*
X21637000Y-15089500D02*
X21717000Y-15169500D01*
X21717000Y-15089500D02*
X21637000Y-15169500D01*
X21677000Y-15089500D02*
X21677000Y-15169500D01*
X21637000Y-15129500D02*
X21717000Y-15129500D01*
X21637000Y-15343500D02*
X21717000Y-15423500D01*
X21717000Y-15343500D02*
X21637000Y-15423500D01*
X21677000Y-15343500D02*
X21677000Y-15423500D01*
X21637000Y-15383500D02*
X21717000Y-15383500D01*
X21637000Y-15597500D02*
X21717000Y-15677500D01*
X21717000Y-15597500D02*
X21637000Y-15677500D01*
X21677000Y-15597500D02*
X21677000Y-15677500D01*
X21637000Y-15637500D02*
X21717000Y-15637500D01*
X21637000Y-15851500D02*
X21717000Y-15931500D01*
X21717000Y-15851500D02*
X21637000Y-15931500D01*
X21677000Y-15851500D02*
X21677000Y-15931500D01*
X21637000Y-15891500D02*
X21717000Y-15891500D01*
X12175000Y-9787500D02*
X12260000Y-9872500D01*
X12260000Y-9787500D02*
X12175000Y-9872500D01*
X12247552Y-9860052D02*
X12247552Y-9799948D01*
X12187448Y-9799948D01*
X12187448Y-9860052D01*
X12247552Y-9860052D01*
X12250000Y-9857500D02*
X12250000Y-9802500D01*
X12185000Y-9857500D02*
X12185000Y-9802500D01*
X12250000Y-9802500D02*
G75*
G03X12185000Y-9802500I-32500J0D01*
G01*
X12185000Y-9857500D02*
G75*
G03X12250000Y-9857500I32500J0D01*
G01*
X12175000Y-10167500D02*
X12260000Y-10252500D01*
X12260000Y-10167500D02*
X12175000Y-10252500D01*
X12247552Y-10240052D02*
X12247552Y-10179948D01*
X12187448Y-10179948D01*
X12187448Y-10240052D01*
X12247552Y-10240052D01*
X12250000Y-10237500D02*
X12250000Y-10182500D01*
X12185000Y-10237500D02*
X12185000Y-10182500D01*
X12250000Y-10182500D02*
G75*
G03X12185000Y-10182500I-32500J0D01*
G01*
X12185000Y-10237500D02*
G75*
G03X12250000Y-10237500I32500J0D01*
G01*
X12890000Y-9787500D02*
X12975000Y-9872500D01*
X12975000Y-9787500D02*
X12890000Y-9872500D01*
X12962552Y-9860052D02*
X12962552Y-9799948D01*
X12902448Y-9799948D01*
X12902448Y-9860052D01*
X12962552Y-9860052D01*
X12965000Y-9857500D02*
X12965000Y-9802500D01*
X12900000Y-9857500D02*
X12900000Y-9802500D01*
X12965000Y-9802500D02*
G75*
G03X12900000Y-9802500I-32500J0D01*
G01*
X12900000Y-9857500D02*
G75*
G03X12965000Y-9857500I32500J0D01*
G01*
X12890000Y-10167500D02*
X12975000Y-10252500D01*
X12975000Y-10167500D02*
X12890000Y-10252500D01*
X12962552Y-10240052D02*
X12962552Y-10179948D01*
X12902448Y-10179948D01*
X12902448Y-10240052D01*
X12962552Y-10240052D01*
X12965000Y-10237500D02*
X12965000Y-10182500D01*
X12900000Y-10237500D02*
X12900000Y-10182500D01*
X12965000Y-10182500D02*
G75*
G03X12900000Y-10182500I-32500J0D01*
G01*
X12900000Y-10237500D02*
G75*
G03X12965000Y-10237500I32500J0D01*
G01*
X16460000Y-16495000D02*
X16550000Y-16585000D01*
X16550000Y-16495000D02*
X16460000Y-16585000D01*
X16505000Y-16585000D02*
X16550000Y-16540000D01*
X16505000Y-16495000D01*
X16460000Y-16540000D01*
X16505000Y-16585000D01*
X16540000Y-16570000D02*
X16540000Y-16510000D01*
X16470000Y-16570000D02*
X16470000Y-16510000D01*
X16540000Y-16510000D02*
G75*
G03X16470000Y-16510000I-35000J0D01*
G01*
X16470000Y-16570000D02*
G75*
G03X16540000Y-16570000I35000J0D01*
G01*
X16720000Y-16595000D02*
X16810000Y-16685000D01*
X16810000Y-16595000D02*
X16720000Y-16685000D01*
X16765000Y-16685000D02*
X16810000Y-16640000D01*
X16765000Y-16595000D01*
X16720000Y-16640000D01*
X16765000Y-16685000D01*
X16800000Y-16670000D02*
X16800000Y-16610000D01*
X16730000Y-16670000D02*
X16730000Y-16610000D01*
X16800000Y-16610000D02*
G75*
G03X16730000Y-16610000I-35000J0D01*
G01*
X16730000Y-16670000D02*
G75*
G03X16800000Y-16670000I35000J0D01*
G01*
X16980000Y-17285000D02*
X17070000Y-17375000D01*
X17070000Y-17285000D02*
X16980000Y-17375000D01*
X17025000Y-17375000D02*
X17070000Y-17330000D01*
X17025000Y-17285000D01*
X16980000Y-17330000D01*
X17025000Y-17375000D01*
X16995000Y-17365000D02*
X17055000Y-17365000D01*
X16995000Y-17295000D02*
X17055000Y-17295000D01*
X17055000Y-17365000D02*
G75*
G03X17055000Y-17295000I0J35000D01*
G01*
X16995000Y-17295000D02*
G75*
G03X16995000Y-17365000I0J-35000D01*
G01*
X17410000Y-16155000D02*
X17500000Y-16245000D01*
X17500000Y-16155000D02*
X17410000Y-16245000D01*
X17455000Y-16245000D02*
X17500000Y-16200000D01*
X17455000Y-16155000D01*
X17410000Y-16200000D01*
X17455000Y-16245000D01*
X17425000Y-16235000D02*
X17485000Y-16235000D01*
X17425000Y-16165000D02*
X17485000Y-16165000D01*
X17485000Y-16235000D02*
G75*
G03X17485000Y-16165000I0J35000D01*
G01*
X17425000Y-16165000D02*
G75*
G03X17425000Y-16235000I0J-35000D01*
G01*
X17460000Y-16845000D02*
X17550000Y-16935000D01*
X17550000Y-16845000D02*
X17460000Y-16935000D01*
X17505000Y-16935000D02*
X17550000Y-16890000D01*
X17505000Y-16845000D01*
X17460000Y-16890000D01*
X17505000Y-16935000D01*
X17540000Y-16920000D02*
X17540000Y-16860000D01*
X17470000Y-16920000D02*
X17470000Y-16860000D01*
X17540000Y-16860000D02*
G75*
G03X17470000Y-16860000I-35000J0D01*
G01*
X17470000Y-16920000D02*
G75*
G03X17540000Y-16920000I35000J0D01*
G01*
X15040000Y-11016000D02*
X15040000Y-11116000D01*
X14990000Y-11066000D02*
X15090000Y-11066000D01*
X15090000Y-11066000D02*
G75*
G03X15090000Y-11066000I-50000J0D01*
G01*
X15040000Y-11270000D02*
X15040000Y-11370000D01*
X14990000Y-11320000D02*
X15090000Y-11320000D01*
X15090000Y-11320000D02*
G75*
G03X15090000Y-11320000I-50000J0D01*
G01*
X15294000Y-11016000D02*
X15294000Y-11116000D01*
X15244000Y-11066000D02*
X15344000Y-11066000D01*
X15344000Y-11066000D02*
G75*
G03X15344000Y-11066000I-50000J0D01*
G01*
X15294000Y-11270000D02*
X15294000Y-11370000D01*
X15244000Y-11320000D02*
X15344000Y-11320000D01*
X15344000Y-11320000D02*
G75*
G03X15344000Y-11320000I-50000J0D01*
G01*
X15548000Y-11016000D02*
X15548000Y-11116000D01*
X15498000Y-11066000D02*
X15598000Y-11066000D01*
X15598000Y-11066000D02*
G75*
G03X15598000Y-11066000I-50000J0D01*
G01*
X15548000Y-11270000D02*
X15548000Y-11370000D01*
X15498000Y-11320000D02*
X15598000Y-11320000D01*
X15598000Y-11320000D02*
G75*
G03X15598000Y-11320000I-50000J0D01*
G01*
X21380000Y-12662500D02*
X21380000Y-12762500D01*
X21330000Y-12712500D02*
X21430000Y-12712500D01*
X21430000Y-12712500D02*
G75*
G03X21430000Y-12712500I-50000J0D01*
G01*
X21440000Y-12672500D02*
X21320000Y-12672500D01*
X21440000Y-12752500D02*
X21320000Y-12752500D01*
X21320000Y-12672500D02*
G75*
G03X21320000Y-12752500I0J-40000D01*
G01*
X21440000Y-12752500D02*
G75*
G03X21440000Y-12672500I0J40000D01*
G01*
X21380000Y-13362500D02*
X21380000Y-13462500D01*
X21330000Y-13412500D02*
X21430000Y-13412500D01*
X21430000Y-13412500D02*
G75*
G03X21430000Y-13412500I-50000J0D01*
G01*
X21440000Y-13372500D02*
X21320000Y-13372500D01*
X21440000Y-13452500D02*
X21320000Y-13452500D01*
X21320000Y-13372500D02*
G75*
G03X21320000Y-13452500I0J-40000D01*
G01*
X21440000Y-13452500D02*
G75*
G03X21440000Y-13372500I0J40000D01*
G01*
X19981900Y-17875000D02*
X19981900Y-17975000D01*
X19931900Y-17925000D02*
X20031900Y-17925000D01*
X20031900Y-17925000D02*
G75*
G03X20031900Y-17925000I-50000J0D01*
G01*
X19981900Y-19425000D02*
X19981900Y-19525000D01*
X19931900Y-19475000D02*
X20031900Y-19475000D01*
X20031900Y-19475000D02*
G75*
G03X20031900Y-19475000I-50000J0D01*
G01*
X20281900Y-17875000D02*
X20281900Y-17975000D01*
X20231900Y-17925000D02*
X20331900Y-17925000D01*
X20331900Y-17925000D02*
G75*
G03X20331900Y-17925000I-50000J0D01*
G01*
X20281900Y-19425000D02*
X20281900Y-19525000D01*
X20231900Y-19475000D02*
X20331900Y-19475000D01*
X20331900Y-19475000D02*
G75*
G03X20331900Y-19475000I-50000J0D01*
G01*
X20561300Y-17875000D02*
X20561300Y-17975000D01*
X20511300Y-17925000D02*
X20611300Y-17925000D01*
X20611300Y-17925000D02*
G75*
G03X20611300Y-17925000I-50000J0D01*
G01*
X20561300Y-19424700D02*
X20561300Y-19524700D01*
X20511300Y-19474700D02*
X20611300Y-19474700D01*
X20611300Y-19474700D02*
G75*
G03X20611300Y-19474700I-50000J0D01*
G01*
X14500000Y-17300000D02*
X14500000Y-17400000D01*
X14450000Y-17350000D02*
X14550000Y-17350000D01*
X14550000Y-17350000D02*
G75*
G03X14550000Y-17350000I-50000J0D01*
G01*
X14540000Y-17400000D02*
X14540000Y-17300000D01*
X14460000Y-17400000D02*
X14460000Y-17300000D01*
X14540000Y-17300000D02*
G75*
G03X14460000Y-17300000I-40000J0D01*
G01*
X14460000Y-17400000D02*
G75*
G03X14540000Y-17400000I40000J0D01*
G01*
X14586000Y-16245000D02*
X14586000Y-16345000D01*
X14536000Y-16295000D02*
X14636000Y-16295000D01*
X14636000Y-16295000D02*
G75*
G03X14636000Y-16295000I-50000J0D01*
G01*
X14799000Y-16245000D02*
X14799000Y-16345000D01*
X14749000Y-16295000D02*
X14849000Y-16295000D01*
X14849000Y-16295000D02*
G75*
G03X14849000Y-16295000I-50000J0D01*
G01*
X15012000Y-16245000D02*
X15012000Y-16345000D01*
X14962000Y-16295000D02*
X15062000Y-16295000D01*
X15062000Y-16295000D02*
G75*
G03X15062000Y-16295000I-50000J0D01*
G01*
X15225000Y-16245000D02*
X15225000Y-16345000D01*
X15175000Y-16295000D02*
X15275000Y-16295000D01*
X15275000Y-16295000D02*
G75*
G03X15275000Y-16295000I-50000J0D01*
G01*
X15438000Y-16245000D02*
X15438000Y-16345000D01*
X15388000Y-16295000D02*
X15488000Y-16295000D01*
X15488000Y-16295000D02*
G75*
G03X15488000Y-16295000I-50000J0D01*
G01*
X15550000Y-17300000D02*
X15550000Y-17400000D01*
X15500000Y-17350000D02*
X15600000Y-17350000D01*
X15600000Y-17350000D02*
G75*
G03X15600000Y-17350000I-50000J0D01*
G01*
X15590000Y-17400000D02*
X15590000Y-17300000D01*
X15510000Y-17400000D02*
X15510000Y-17300000D01*
X15590000Y-17300000D02*
G75*
G03X15510000Y-17300000I-40000J0D01*
G01*
X15510000Y-17400000D02*
G75*
G03X15590000Y-17400000I40000J0D01*
G01*
X16705300Y-17875000D02*
X16705300Y-17975000D01*
X16655300Y-17925000D02*
X16755300Y-17925000D01*
X16755300Y-17925000D02*
G75*
G03X16755300Y-17925000I-50000J0D01*
G01*
X16705300Y-19425000D02*
X16705300Y-19525000D01*
X16655300Y-19475000D02*
X16755300Y-19475000D01*
X16755300Y-19475000D02*
G75*
G03X16755300Y-19475000I-50000J0D01*
G01*
X17005300Y-17875000D02*
X17005300Y-17975000D01*
X16955300Y-17925000D02*
X17055300Y-17925000D01*
X17055300Y-17925000D02*
G75*
G03X17055300Y-17925000I-50000J0D01*
G01*
X17005300Y-19425000D02*
X17005300Y-19525000D01*
X16955300Y-19475000D02*
X17055300Y-19475000D01*
X17055300Y-19475000D02*
G75*
G03X17055300Y-19475000I-50000J0D01*
G01*
X17284700Y-17875000D02*
X17284700Y-17975000D01*
X17234700Y-17925000D02*
X17334700Y-17925000D01*
X17334700Y-17925000D02*
G75*
G03X17334700Y-17925000I-50000J0D01*
G01*
X17284700Y-19424700D02*
X17284700Y-19524700D01*
X17234700Y-19474700D02*
X17334700Y-19474700D01*
X17334700Y-19474700D02*
G75*
G03X17334700Y-19474700I-50000J0D01*
G01*
X13454100Y-17875000D02*
X13454100Y-17975000D01*
X13404100Y-17925000D02*
X13504100Y-17925000D01*
X13504100Y-17925000D02*
G75*
G03X13504100Y-17925000I-50000J0D01*
G01*
X13454100Y-19425000D02*
X13454100Y-19525000D01*
X13404100Y-19475000D02*
X13504100Y-19475000D01*
X13504100Y-19475000D02*
G75*
G03X13504100Y-19475000I-50000J0D01*
G01*
X13754100Y-17875000D02*
X13754100Y-17975000D01*
X13704100Y-17925000D02*
X13804100Y-17925000D01*
X13804100Y-17925000D02*
G75*
G03X13804100Y-17925000I-50000J0D01*
G01*
X13754100Y-19425000D02*
X13754100Y-19525000D01*
X13704100Y-19475000D02*
X13804100Y-19475000D01*
X13804100Y-19475000D02*
G75*
G03X13804100Y-19475000I-50000J0D01*
G01*
X14033500Y-17875000D02*
X14033500Y-17975000D01*
X13983500Y-17925000D02*
X14083500Y-17925000D01*
X14083500Y-17925000D02*
G75*
G03X14083500Y-17925000I-50000J0D01*
G01*
X14033500Y-19424700D02*
X14033500Y-19524700D01*
X13983500Y-19474700D02*
X14083500Y-19474700D01*
X14083500Y-19474700D02*
G75*
G03X14083500Y-19474700I-50000J0D01*
G01*
X21672427Y-12879927D02*
X21672427Y-12795073D01*
X21587573Y-12795073D01*
X21587573Y-12879927D01*
X21672427Y-12879927D01*
X21690000Y-12837500D02*
G75*
G03X21690000Y-12837500I-60000J0D01*
G01*
X21672427Y-13329927D02*
X21672427Y-13245073D01*
X21587573Y-13245073D01*
X21587573Y-13329927D01*
X21672427Y-13329927D01*
X21690000Y-13287500D02*
G75*
G03X21690000Y-13287500I-60000J0D01*
G01*
X16355300Y-18050000D02*
X16505300Y-17900000D01*
X16355300Y-17750000D01*
X16205300Y-17900000D01*
X16355300Y-18050000D01*
X16505300Y-17900000D02*
G75*
G03X16505300Y-17900000I-150000J0D01*
G01*
X16355300Y-19650000D02*
X16505300Y-19500000D01*
X16355300Y-19350000D01*
X16205300Y-19500000D01*
X16355300Y-19650000D01*
X16505300Y-19500000D02*
G75*
G03X16505300Y-19500000I-150000J0D01*
G01*
X17655300Y-18050000D02*
X17805300Y-17900000D01*
X17655300Y-17750000D01*
X17505300Y-17900000D01*
X17655300Y-18050000D01*
X17805300Y-17900000D02*
G75*
G03X17805300Y-17900000I-150000J0D01*
G01*
X17655300Y-19650000D02*
X17805300Y-19500000D01*
X17655300Y-19350000D01*
X17505300Y-19500000D01*
X17655300Y-19650000D01*
X17805300Y-19500000D02*
G75*
G03X17805300Y-19500000I-150000J0D01*
G01*
X13104100Y-18050000D02*
X13254100Y-17900000D01*
X13104100Y-17750000D01*
X12954100Y-17900000D01*
X13104100Y-18050000D01*
X13254100Y-17900000D02*
G75*
G03X13254100Y-17900000I-150000J0D01*
G01*
X13104100Y-19650000D02*
X13254100Y-19500000D01*
X13104100Y-19350000D01*
X12954100Y-19500000D01*
X13104100Y-19650000D01*
X13254100Y-19500000D02*
G75*
G03X13254100Y-19500000I-150000J0D01*
G01*
X14404100Y-18050000D02*
X14554100Y-17900000D01*
X14404100Y-17750000D01*
X14254100Y-17900000D01*
X14404100Y-18050000D01*
X14554100Y-17900000D02*
G75*
G03X14554100Y-17900000I-150000J0D01*
G01*
X14404100Y-19650000D02*
X14554100Y-19500000D01*
X14404100Y-19350000D01*
X14254100Y-19500000D01*
X14404100Y-19650000D01*
X14554100Y-19500000D02*
G75*
G03X14554100Y-19500000I-150000J0D01*
G01*
X19631900Y-18050000D02*
X19781900Y-17900000D01*
X19631900Y-17750000D01*
X19481900Y-17900000D01*
X19631900Y-18050000D01*
X19781900Y-17900000D02*
G75*
G03X19781900Y-17900000I-150000J0D01*
G01*
X19631900Y-19650000D02*
X19781900Y-19500000D01*
X19631900Y-19350000D01*
X19481900Y-19500000D01*
X19631900Y-19650000D01*
X19781900Y-19500000D02*
G75*
G03X19781900Y-19500000I-150000J0D01*
G01*
X20931900Y-18050000D02*
X21081900Y-17900000D01*
X20931900Y-17750000D01*
X20781900Y-17900000D01*
X20931900Y-18050000D01*
X21081900Y-17900000D02*
G75*
G03X21081900Y-17900000I-150000J0D01*
G01*
X20931900Y-19650000D02*
X21081900Y-19500000D01*
X20931900Y-19350000D01*
X20781900Y-19500000D01*
X20931900Y-19650000D01*
X21081900Y-19500000D02*
G75*
G03X21081900Y-19500000I-150000J0D01*
G01*
D12*
X10783928Y-20195714D02*
X10783928Y-19895714D01*
X10855357Y-19895714D01*
X10898214Y-19910000D01*
X10926786Y-19938572D01*
X10941071Y-19967143D01*
X10955357Y-20024286D01*
X10955357Y-20067143D01*
X10941071Y-20124286D01*
X10926786Y-20152857D01*
X10898214Y-20181429D01*
X10855357Y-20195714D01*
X10783928Y-20195714D01*
X11083928Y-20195714D02*
X11083928Y-19995714D01*
X11083928Y-20052857D02*
X11098214Y-20024286D01*
X11112500Y-20010000D01*
X11141071Y-19995714D01*
X11169643Y-19995714D01*
X11269643Y-20195714D02*
X11269643Y-19995714D01*
X11269643Y-19895714D02*
X11255357Y-19910000D01*
X11269643Y-19924286D01*
X11283928Y-19910000D01*
X11269643Y-19895714D01*
X11269643Y-19924286D01*
X11455357Y-20195714D02*
X11426786Y-20181429D01*
X11412500Y-20152857D01*
X11412500Y-19895714D01*
X11612500Y-20195714D02*
X11583928Y-20181429D01*
X11569643Y-20152857D01*
X11569643Y-19895714D01*
X11955357Y-20195714D02*
X11955357Y-19895714D01*
X12055357Y-20110000D01*
X12155357Y-19895714D01*
X12155357Y-20195714D01*
X12426786Y-20195714D02*
X12426786Y-20038572D01*
X12412500Y-20010000D01*
X12383928Y-19995714D01*
X12326786Y-19995714D01*
X12298214Y-20010000D01*
X12426786Y-20181429D02*
X12398214Y-20195714D01*
X12326786Y-20195714D01*
X12298214Y-20181429D01*
X12283928Y-20152857D01*
X12283928Y-20124286D01*
X12298214Y-20095714D01*
X12326786Y-20081429D01*
X12398214Y-20081429D01*
X12426786Y-20067143D01*
X12569643Y-19995714D02*
X12569643Y-20295714D01*
X12569643Y-20010000D02*
X12598214Y-19995714D01*
X12655357Y-19995714D01*
X12683928Y-20010000D01*
X12698214Y-20024286D01*
X12712500Y-20052857D01*
X12712500Y-20138572D01*
X12698214Y-20167143D01*
X12683928Y-20181429D01*
X12655357Y-20195714D01*
X12598214Y-20195714D01*
X12569643Y-20181429D01*
X12841071Y-20167143D02*
X12855357Y-20181429D01*
X12841071Y-20195714D01*
X12826786Y-20181429D01*
X12841071Y-20167143D01*
X12841071Y-20195714D01*
X12841071Y-20010000D02*
X12855357Y-20024286D01*
X12841071Y-20038572D01*
X12826786Y-20024286D01*
X12841071Y-20010000D01*
X12841071Y-20038572D01*
X10467500Y-20675000D02*
X10497500Y-20705000D01*
X10497500Y-20675000D02*
X10467500Y-20705000D01*
X10841071Y-20525714D02*
X10869643Y-20525714D01*
X10898214Y-20540000D01*
X10912500Y-20554286D01*
X10926786Y-20582857D01*
X10941071Y-20640000D01*
X10941071Y-20711429D01*
X10926786Y-20768572D01*
X10912500Y-20797143D01*
X10898214Y-20811429D01*
X10869643Y-20825714D01*
X10841071Y-20825714D01*
X10812500Y-20811429D01*
X10798214Y-20797143D01*
X10783928Y-20768572D01*
X10769643Y-20711429D01*
X10769643Y-20640000D01*
X10783928Y-20582857D01*
X10798214Y-20554286D01*
X10812500Y-20540000D01*
X10841071Y-20525714D01*
X11069643Y-20797143D02*
X11083928Y-20811429D01*
X11069643Y-20825714D01*
X11055357Y-20811429D01*
X11069643Y-20797143D01*
X11069643Y-20825714D01*
X11183928Y-20525714D02*
X11369643Y-20525714D01*
X11269643Y-20640000D01*
X11312500Y-20640000D01*
X11341071Y-20654286D01*
X11355357Y-20668572D01*
X11369643Y-20697143D01*
X11369643Y-20768572D01*
X11355357Y-20797143D01*
X11341071Y-20811429D01*
X11312500Y-20825714D01*
X11226786Y-20825714D01*
X11198214Y-20811429D01*
X11183928Y-20797143D01*
X11555357Y-20525714D02*
X11583928Y-20525714D01*
X11612500Y-20540000D01*
X11626786Y-20554286D01*
X11641071Y-20582857D01*
X11655357Y-20640000D01*
X11655357Y-20711429D01*
X11641071Y-20768572D01*
X11626786Y-20797143D01*
X11612500Y-20811429D01*
X11583928Y-20825714D01*
X11555357Y-20825714D01*
X11526786Y-20811429D01*
X11512500Y-20797143D01*
X11498214Y-20768572D01*
X11483928Y-20711429D01*
X11483928Y-20640000D01*
X11498214Y-20582857D01*
X11512500Y-20554286D01*
X11526786Y-20540000D01*
X11555357Y-20525714D01*
X11783928Y-20825714D02*
X11783928Y-20625714D01*
X11783928Y-20654286D02*
X11798214Y-20640000D01*
X11826786Y-20625714D01*
X11869643Y-20625714D01*
X11898214Y-20640000D01*
X11912500Y-20668572D01*
X11912500Y-20825714D01*
X11912500Y-20668572D02*
X11926786Y-20640000D01*
X11955357Y-20625714D01*
X11998214Y-20625714D01*
X12026786Y-20640000D01*
X12041071Y-20668572D01*
X12041071Y-20825714D01*
X12183928Y-20825714D02*
X12183928Y-20625714D01*
X12183928Y-20654286D02*
X12198214Y-20640000D01*
X12226786Y-20625714D01*
X12269643Y-20625714D01*
X12298214Y-20640000D01*
X12312500Y-20668572D01*
X12312500Y-20825714D01*
X12312500Y-20668572D02*
X12326786Y-20640000D01*
X12355357Y-20625714D01*
X12398214Y-20625714D01*
X12426786Y-20640000D01*
X12441071Y-20668572D01*
X12441071Y-20825714D01*
X13026786Y-20511429D02*
X12769643Y-20897143D01*
X13412500Y-20525714D02*
X13441071Y-20525714D01*
X13469643Y-20540000D01*
X13483928Y-20554286D01*
X13498214Y-20582857D01*
X13512500Y-20640000D01*
X13512500Y-20711429D01*
X13498214Y-20768572D01*
X13483928Y-20797143D01*
X13469643Y-20811429D01*
X13441071Y-20825714D01*
X13412500Y-20825714D01*
X13383928Y-20811429D01*
X13369643Y-20797143D01*
X13355357Y-20768572D01*
X13341071Y-20711429D01*
X13341071Y-20640000D01*
X13355357Y-20582857D01*
X13369643Y-20554286D01*
X13383928Y-20540000D01*
X13412500Y-20525714D01*
X13641071Y-20797143D02*
X13655357Y-20811429D01*
X13641071Y-20825714D01*
X13626786Y-20811429D01*
X13641071Y-20797143D01*
X13641071Y-20825714D01*
X13841071Y-20525714D02*
X13869643Y-20525714D01*
X13898214Y-20540000D01*
X13912500Y-20554286D01*
X13926786Y-20582857D01*
X13941071Y-20640000D01*
X13941071Y-20711429D01*
X13926786Y-20768572D01*
X13912500Y-20797143D01*
X13898214Y-20811429D01*
X13869643Y-20825714D01*
X13841071Y-20825714D01*
X13812500Y-20811429D01*
X13798214Y-20797143D01*
X13783928Y-20768572D01*
X13769643Y-20711429D01*
X13769643Y-20640000D01*
X13783928Y-20582857D01*
X13798214Y-20554286D01*
X13812500Y-20540000D01*
X13841071Y-20525714D01*
X14226786Y-20825714D02*
X14055357Y-20825714D01*
X14141071Y-20825714D02*
X14141071Y-20525714D01*
X14112500Y-20568572D01*
X14083928Y-20597143D01*
X14055357Y-20611429D01*
X14341071Y-20554286D02*
X14355357Y-20540000D01*
X14383928Y-20525714D01*
X14455357Y-20525714D01*
X14483928Y-20540000D01*
X14498214Y-20554286D01*
X14512500Y-20582857D01*
X14512500Y-20611429D01*
X14498214Y-20654286D01*
X14326786Y-20825714D01*
X14512500Y-20825714D01*
X14626786Y-20525714D02*
X14626786Y-20582857D01*
X14741071Y-20525714D02*
X14741071Y-20582857D01*
X15183928Y-20940000D02*
X15169643Y-20925714D01*
X15141071Y-20882857D01*
X15126786Y-20854286D01*
X15112500Y-20811429D01*
X15098214Y-20740000D01*
X15098214Y-20682857D01*
X15112500Y-20611429D01*
X15126786Y-20568572D01*
X15141071Y-20540000D01*
X15169643Y-20497143D01*
X15183928Y-20482857D01*
X15441071Y-20525714D02*
X15298214Y-20525714D01*
X15283928Y-20668572D01*
X15298214Y-20654286D01*
X15326786Y-20640000D01*
X15398214Y-20640000D01*
X15426786Y-20654286D01*
X15441071Y-20668572D01*
X15455357Y-20697143D01*
X15455357Y-20768572D01*
X15441071Y-20797143D01*
X15426786Y-20811429D01*
X15398214Y-20825714D01*
X15326786Y-20825714D01*
X15298214Y-20811429D01*
X15283928Y-20797143D01*
X15812500Y-20825714D02*
X15812500Y-20525714D01*
X15941071Y-20825714D02*
X15941071Y-20668572D01*
X15926786Y-20640000D01*
X15898214Y-20625714D01*
X15855357Y-20625714D01*
X15826786Y-20640000D01*
X15812500Y-20654286D01*
X16126786Y-20825714D02*
X16098214Y-20811429D01*
X16083928Y-20797143D01*
X16069643Y-20768572D01*
X16069643Y-20682857D01*
X16083928Y-20654286D01*
X16098214Y-20640000D01*
X16126786Y-20625714D01*
X16169643Y-20625714D01*
X16198214Y-20640000D01*
X16212500Y-20654286D01*
X16226786Y-20682857D01*
X16226786Y-20768572D01*
X16212500Y-20797143D01*
X16198214Y-20811429D01*
X16169643Y-20825714D01*
X16126786Y-20825714D01*
X16398214Y-20825714D02*
X16369643Y-20811429D01*
X16355357Y-20782857D01*
X16355357Y-20525714D01*
X16626786Y-20811429D02*
X16598214Y-20825714D01*
X16541071Y-20825714D01*
X16512500Y-20811429D01*
X16498214Y-20782857D01*
X16498214Y-20668572D01*
X16512500Y-20640000D01*
X16541071Y-20625714D01*
X16598214Y-20625714D01*
X16626786Y-20640000D01*
X16641071Y-20668572D01*
X16641071Y-20697143D01*
X16498214Y-20725714D01*
X16755357Y-20811429D02*
X16783928Y-20825714D01*
X16841071Y-20825714D01*
X16869643Y-20811429D01*
X16883928Y-20782857D01*
X16883928Y-20768572D01*
X16869643Y-20740000D01*
X16841071Y-20725714D01*
X16798214Y-20725714D01*
X16769643Y-20711429D01*
X16755357Y-20682857D01*
X16755357Y-20668572D01*
X16769643Y-20640000D01*
X16798214Y-20625714D01*
X16841071Y-20625714D01*
X16869643Y-20640000D01*
X16983928Y-20940000D02*
X16998214Y-20925714D01*
X17026786Y-20882857D01*
X17041071Y-20854286D01*
X17055357Y-20811429D01*
X17069643Y-20740000D01*
X17069643Y-20682857D01*
X17055357Y-20611429D01*
X17041071Y-20568572D01*
X17026786Y-20540000D01*
X16998214Y-20497143D01*
X16983928Y-20482857D01*
X10497500Y-21086000D02*
G75*
G03X10497500Y-21086000I-20000J0D01*
G01*
X10841071Y-20921714D02*
X10869643Y-20921714D01*
X10898214Y-20936000D01*
X10912500Y-20950286D01*
X10926786Y-20978857D01*
X10941071Y-21036000D01*
X10941071Y-21107429D01*
X10926786Y-21164572D01*
X10912500Y-21193143D01*
X10898214Y-21207429D01*
X10869643Y-21221714D01*
X10841071Y-21221714D01*
X10812500Y-21207429D01*
X10798214Y-21193143D01*
X10783928Y-21164572D01*
X10769643Y-21107429D01*
X10769643Y-21036000D01*
X10783928Y-20978857D01*
X10798214Y-20950286D01*
X10812500Y-20936000D01*
X10841071Y-20921714D01*
X11069643Y-21193143D02*
X11083928Y-21207429D01*
X11069643Y-21221714D01*
X11055357Y-21207429D01*
X11069643Y-21193143D01*
X11069643Y-21221714D01*
X11341071Y-21021714D02*
X11341071Y-21221714D01*
X11269643Y-20907429D02*
X11198214Y-21121714D01*
X11383928Y-21121714D01*
X11555357Y-20921714D02*
X11583928Y-20921714D01*
X11612500Y-20936000D01*
X11626786Y-20950286D01*
X11641071Y-20978857D01*
X11655357Y-21036000D01*
X11655357Y-21107429D01*
X11641071Y-21164572D01*
X11626786Y-21193143D01*
X11612500Y-21207429D01*
X11583928Y-21221714D01*
X11555357Y-21221714D01*
X11526786Y-21207429D01*
X11512500Y-21193143D01*
X11498214Y-21164572D01*
X11483928Y-21107429D01*
X11483928Y-21036000D01*
X11498214Y-20978857D01*
X11512500Y-20950286D01*
X11526786Y-20936000D01*
X11555357Y-20921714D01*
X11783928Y-21221714D02*
X11783928Y-21021714D01*
X11783928Y-21050286D02*
X11798214Y-21036000D01*
X11826786Y-21021714D01*
X11869643Y-21021714D01*
X11898214Y-21036000D01*
X11912500Y-21064572D01*
X11912500Y-21221714D01*
X11912500Y-21064572D02*
X11926786Y-21036000D01*
X11955357Y-21021714D01*
X11998214Y-21021714D01*
X12026786Y-21036000D01*
X12041071Y-21064572D01*
X12041071Y-21221714D01*
X12183928Y-21221714D02*
X12183928Y-21021714D01*
X12183928Y-21050286D02*
X12198214Y-21036000D01*
X12226786Y-21021714D01*
X12269643Y-21021714D01*
X12298214Y-21036000D01*
X12312500Y-21064572D01*
X12312500Y-21221714D01*
X12312500Y-21064572D02*
X12326786Y-21036000D01*
X12355357Y-21021714D01*
X12398214Y-21021714D01*
X12426786Y-21036000D01*
X12441071Y-21064572D01*
X12441071Y-21221714D01*
X13026786Y-20907429D02*
X12769643Y-21293143D01*
X13412500Y-20921714D02*
X13441071Y-20921714D01*
X13469643Y-20936000D01*
X13483928Y-20950286D01*
X13498214Y-20978857D01*
X13512500Y-21036000D01*
X13512500Y-21107429D01*
X13498214Y-21164572D01*
X13483928Y-21193143D01*
X13469643Y-21207429D01*
X13441071Y-21221714D01*
X13412500Y-21221714D01*
X13383928Y-21207429D01*
X13369643Y-21193143D01*
X13355357Y-21164572D01*
X13341071Y-21107429D01*
X13341071Y-21036000D01*
X13355357Y-20978857D01*
X13369643Y-20950286D01*
X13383928Y-20936000D01*
X13412500Y-20921714D01*
X13641071Y-21193143D02*
X13655357Y-21207429D01*
X13641071Y-21221714D01*
X13626786Y-21207429D01*
X13641071Y-21193143D01*
X13641071Y-21221714D01*
X13841071Y-20921714D02*
X13869643Y-20921714D01*
X13898214Y-20936000D01*
X13912500Y-20950286D01*
X13926786Y-20978857D01*
X13941071Y-21036000D01*
X13941071Y-21107429D01*
X13926786Y-21164572D01*
X13912500Y-21193143D01*
X13898214Y-21207429D01*
X13869643Y-21221714D01*
X13841071Y-21221714D01*
X13812500Y-21207429D01*
X13798214Y-21193143D01*
X13783928Y-21164572D01*
X13769643Y-21107429D01*
X13769643Y-21036000D01*
X13783928Y-20978857D01*
X13798214Y-20950286D01*
X13812500Y-20936000D01*
X13841071Y-20921714D01*
X14226786Y-21221714D02*
X14055357Y-21221714D01*
X14141071Y-21221714D02*
X14141071Y-20921714D01*
X14112500Y-20964572D01*
X14083928Y-20993143D01*
X14055357Y-21007429D01*
X14483928Y-20921714D02*
X14426786Y-20921714D01*
X14398214Y-20936000D01*
X14383928Y-20950286D01*
X14355357Y-20993143D01*
X14341071Y-21050286D01*
X14341071Y-21164572D01*
X14355357Y-21193143D01*
X14369643Y-21207429D01*
X14398214Y-21221714D01*
X14455357Y-21221714D01*
X14483928Y-21207429D01*
X14498214Y-21193143D01*
X14512500Y-21164572D01*
X14512500Y-21093143D01*
X14498214Y-21064572D01*
X14483928Y-21050286D01*
X14455357Y-21036000D01*
X14398214Y-21036000D01*
X14369643Y-21050286D01*
X14355357Y-21064572D01*
X14341071Y-21093143D01*
X14626786Y-20921714D02*
X14626786Y-20978857D01*
X14741071Y-20921714D02*
X14741071Y-20978857D01*
X15183928Y-21336000D02*
X15169643Y-21321714D01*
X15141071Y-21278857D01*
X15126786Y-21250286D01*
X15112500Y-21207429D01*
X15098214Y-21136000D01*
X15098214Y-21078857D01*
X15112500Y-21007429D01*
X15126786Y-20964572D01*
X15141071Y-20936000D01*
X15169643Y-20893143D01*
X15183928Y-20878857D01*
X15455357Y-21221714D02*
X15283928Y-21221714D01*
X15369643Y-21221714D02*
X15369643Y-20921714D01*
X15341071Y-20964572D01*
X15312500Y-20993143D01*
X15283928Y-21007429D01*
X15741071Y-21221714D02*
X15569643Y-21221714D01*
X15655357Y-21221714D02*
X15655357Y-20921714D01*
X15626786Y-20964572D01*
X15598214Y-20993143D01*
X15569643Y-21007429D01*
X16026786Y-21221714D02*
X15855357Y-21221714D01*
X15941071Y-21221714D02*
X15941071Y-20921714D01*
X15912500Y-20964572D01*
X15883928Y-20993143D01*
X15855357Y-21007429D01*
X16383928Y-21221714D02*
X16383928Y-20921714D01*
X16512500Y-21221714D02*
X16512500Y-21064572D01*
X16498214Y-21036000D01*
X16469643Y-21021714D01*
X16426786Y-21021714D01*
X16398214Y-21036000D01*
X16383928Y-21050286D01*
X16698214Y-21221714D02*
X16669643Y-21207429D01*
X16655357Y-21193143D01*
X16641071Y-21164572D01*
X16641071Y-21078857D01*
X16655357Y-21050286D01*
X16669643Y-21036000D01*
X16698214Y-21021714D01*
X16741071Y-21021714D01*
X16769643Y-21036000D01*
X16783928Y-21050286D01*
X16798214Y-21078857D01*
X16798214Y-21164572D01*
X16783928Y-21193143D01*
X16769643Y-21207429D01*
X16741071Y-21221714D01*
X16698214Y-21221714D01*
X16969643Y-21221714D02*
X16941071Y-21207429D01*
X16926786Y-21178857D01*
X16926786Y-20921714D01*
X17198214Y-21207429D02*
X17169643Y-21221714D01*
X17112500Y-21221714D01*
X17083928Y-21207429D01*
X17069643Y-21178857D01*
X17069643Y-21064572D01*
X17083928Y-21036000D01*
X17112500Y-21021714D01*
X17169643Y-21021714D01*
X17198214Y-21036000D01*
X17212500Y-21064572D01*
X17212500Y-21093143D01*
X17069643Y-21121714D01*
X17326786Y-21207429D02*
X17355357Y-21221714D01*
X17412500Y-21221714D01*
X17441071Y-21207429D01*
X17455357Y-21178857D01*
X17455357Y-21164572D01*
X17441071Y-21136000D01*
X17412500Y-21121714D01*
X17369643Y-21121714D01*
X17341071Y-21107429D01*
X17326786Y-21078857D01*
X17326786Y-21064572D01*
X17341071Y-21036000D01*
X17369643Y-21021714D01*
X17412500Y-21021714D01*
X17441071Y-21036000D01*
X17555357Y-21336000D02*
X17569643Y-21321714D01*
X17598214Y-21278857D01*
X17612500Y-21250286D01*
X17626786Y-21207429D01*
X17641071Y-21136000D01*
X17641071Y-21078857D01*
X17626786Y-21007429D01*
X17612500Y-20964572D01*
X17598214Y-20936000D01*
X17569643Y-20893143D01*
X17555357Y-20878857D01*
X10467500Y-21452000D02*
X10467500Y-21512000D01*
X10437500Y-21482000D02*
X10497500Y-21482000D01*
X10841071Y-21317714D02*
X10869643Y-21317714D01*
X10898214Y-21332000D01*
X10912500Y-21346286D01*
X10926786Y-21374857D01*
X10941071Y-21432000D01*
X10941071Y-21503429D01*
X10926786Y-21560572D01*
X10912500Y-21589143D01*
X10898214Y-21603429D01*
X10869643Y-21617714D01*
X10841071Y-21617714D01*
X10812500Y-21603429D01*
X10798214Y-21589143D01*
X10783928Y-21560572D01*
X10769643Y-21503429D01*
X10769643Y-21432000D01*
X10783928Y-21374857D01*
X10798214Y-21346286D01*
X10812500Y-21332000D01*
X10841071Y-21317714D01*
X11069643Y-21589143D02*
X11083928Y-21603429D01*
X11069643Y-21617714D01*
X11055357Y-21603429D01*
X11069643Y-21589143D01*
X11069643Y-21617714D01*
X11341071Y-21317714D02*
X11283928Y-21317714D01*
X11255357Y-21332000D01*
X11241071Y-21346286D01*
X11212500Y-21389143D01*
X11198214Y-21446286D01*
X11198214Y-21560572D01*
X11212500Y-21589143D01*
X11226786Y-21603429D01*
X11255357Y-21617714D01*
X11312500Y-21617714D01*
X11341071Y-21603429D01*
X11355357Y-21589143D01*
X11369643Y-21560572D01*
X11369643Y-21489143D01*
X11355357Y-21460572D01*
X11341071Y-21446286D01*
X11312500Y-21432000D01*
X11255357Y-21432000D01*
X11226786Y-21446286D01*
X11212500Y-21460572D01*
X11198214Y-21489143D01*
X11555357Y-21317714D02*
X11583928Y-21317714D01*
X11612500Y-21332000D01*
X11626786Y-21346286D01*
X11641071Y-21374857D01*
X11655357Y-21432000D01*
X11655357Y-21503429D01*
X11641071Y-21560572D01*
X11626786Y-21589143D01*
X11612500Y-21603429D01*
X11583928Y-21617714D01*
X11555357Y-21617714D01*
X11526786Y-21603429D01*
X11512500Y-21589143D01*
X11498214Y-21560572D01*
X11483928Y-21503429D01*
X11483928Y-21432000D01*
X11498214Y-21374857D01*
X11512500Y-21346286D01*
X11526786Y-21332000D01*
X11555357Y-21317714D01*
X11783928Y-21617714D02*
X11783928Y-21417714D01*
X11783928Y-21446286D02*
X11798214Y-21432000D01*
X11826786Y-21417714D01*
X11869643Y-21417714D01*
X11898214Y-21432000D01*
X11912500Y-21460572D01*
X11912500Y-21617714D01*
X11912500Y-21460572D02*
X11926786Y-21432000D01*
X11955357Y-21417714D01*
X11998214Y-21417714D01*
X12026786Y-21432000D01*
X12041071Y-21460572D01*
X12041071Y-21617714D01*
X12183928Y-21617714D02*
X12183928Y-21417714D01*
X12183928Y-21446286D02*
X12198214Y-21432000D01*
X12226786Y-21417714D01*
X12269643Y-21417714D01*
X12298214Y-21432000D01*
X12312500Y-21460572D01*
X12312500Y-21617714D01*
X12312500Y-21460572D02*
X12326786Y-21432000D01*
X12355357Y-21417714D01*
X12398214Y-21417714D01*
X12426786Y-21432000D01*
X12441071Y-21460572D01*
X12441071Y-21617714D01*
X13026786Y-21303429D02*
X12769643Y-21689143D01*
X13412500Y-21317714D02*
X13441071Y-21317714D01*
X13469643Y-21332000D01*
X13483928Y-21346286D01*
X13498214Y-21374857D01*
X13512500Y-21432000D01*
X13512500Y-21503429D01*
X13498214Y-21560572D01*
X13483928Y-21589143D01*
X13469643Y-21603429D01*
X13441071Y-21617714D01*
X13412500Y-21617714D01*
X13383928Y-21603429D01*
X13369643Y-21589143D01*
X13355357Y-21560572D01*
X13341071Y-21503429D01*
X13341071Y-21432000D01*
X13355357Y-21374857D01*
X13369643Y-21346286D01*
X13383928Y-21332000D01*
X13412500Y-21317714D01*
X13641071Y-21589143D02*
X13655357Y-21603429D01*
X13641071Y-21617714D01*
X13626786Y-21603429D01*
X13641071Y-21589143D01*
X13641071Y-21617714D01*
X13841071Y-21317714D02*
X13869643Y-21317714D01*
X13898214Y-21332000D01*
X13912500Y-21346286D01*
X13926786Y-21374857D01*
X13941071Y-21432000D01*
X13941071Y-21503429D01*
X13926786Y-21560572D01*
X13912500Y-21589143D01*
X13898214Y-21603429D01*
X13869643Y-21617714D01*
X13841071Y-21617714D01*
X13812500Y-21603429D01*
X13798214Y-21589143D01*
X13783928Y-21560572D01*
X13769643Y-21503429D01*
X13769643Y-21432000D01*
X13783928Y-21374857D01*
X13798214Y-21346286D01*
X13812500Y-21332000D01*
X13841071Y-21317714D01*
X14055357Y-21346286D02*
X14069643Y-21332000D01*
X14098214Y-21317714D01*
X14169643Y-21317714D01*
X14198214Y-21332000D01*
X14212500Y-21346286D01*
X14226786Y-21374857D01*
X14226786Y-21403429D01*
X14212500Y-21446286D01*
X14041071Y-21617714D01*
X14226786Y-21617714D01*
X14483928Y-21417714D02*
X14483928Y-21617714D01*
X14412500Y-21303429D02*
X14341071Y-21517714D01*
X14526786Y-21517714D01*
X14626786Y-21317714D02*
X14626786Y-21374857D01*
X14741071Y-21317714D02*
X14741071Y-21374857D01*
X15183928Y-21732000D02*
X15169643Y-21717714D01*
X15141071Y-21674857D01*
X15126786Y-21646286D01*
X15112500Y-21603429D01*
X15098214Y-21532000D01*
X15098214Y-21474857D01*
X15112500Y-21403429D01*
X15126786Y-21360572D01*
X15141071Y-21332000D01*
X15169643Y-21289143D01*
X15183928Y-21274857D01*
X15455357Y-21617714D02*
X15283928Y-21617714D01*
X15369643Y-21617714D02*
X15369643Y-21317714D01*
X15341071Y-21360572D01*
X15312500Y-21389143D01*
X15283928Y-21403429D01*
X15712500Y-21417714D02*
X15712500Y-21617714D01*
X15641071Y-21303429D02*
X15569643Y-21517714D01*
X15755357Y-21517714D01*
X16098214Y-21617714D02*
X16098214Y-21317714D01*
X16226786Y-21617714D02*
X16226786Y-21460572D01*
X16212500Y-21432000D01*
X16183928Y-21417714D01*
X16141071Y-21417714D01*
X16112500Y-21432000D01*
X16098214Y-21446286D01*
X16412500Y-21617714D02*
X16383928Y-21603429D01*
X16369643Y-21589143D01*
X16355357Y-21560572D01*
X16355357Y-21474857D01*
X16369643Y-21446286D01*
X16383928Y-21432000D01*
X16412500Y-21417714D01*
X16455357Y-21417714D01*
X16483928Y-21432000D01*
X16498214Y-21446286D01*
X16512500Y-21474857D01*
X16512500Y-21560572D01*
X16498214Y-21589143D01*
X16483928Y-21603429D01*
X16455357Y-21617714D01*
X16412500Y-21617714D01*
X16683928Y-21617714D02*
X16655357Y-21603429D01*
X16641071Y-21574857D01*
X16641071Y-21317714D01*
X16912500Y-21603429D02*
X16883928Y-21617714D01*
X16826786Y-21617714D01*
X16798214Y-21603429D01*
X16783928Y-21574857D01*
X16783928Y-21460572D01*
X16798214Y-21432000D01*
X16826786Y-21417714D01*
X16883928Y-21417714D01*
X16912500Y-21432000D01*
X16926786Y-21460572D01*
X16926786Y-21489143D01*
X16783928Y-21517714D01*
X17041071Y-21603429D02*
X17069643Y-21617714D01*
X17126786Y-21617714D01*
X17155357Y-21603429D01*
X17169643Y-21574857D01*
X17169643Y-21560572D01*
X17155357Y-21532000D01*
X17126786Y-21517714D01*
X17083928Y-21517714D01*
X17055357Y-21503429D01*
X17041071Y-21474857D01*
X17041071Y-21460572D01*
X17055357Y-21432000D01*
X17083928Y-21417714D01*
X17126786Y-21417714D01*
X17155357Y-21432000D01*
X17526786Y-21503429D02*
X17755357Y-21503429D01*
X17641071Y-21617714D02*
X17641071Y-21389143D01*
X18255357Y-21417714D02*
X18255357Y-21617714D01*
X18183928Y-21303429D02*
X18112500Y-21517714D01*
X18298214Y-21517714D01*
X18626786Y-21603429D02*
X18655357Y-21617714D01*
X18712500Y-21617714D01*
X18741071Y-21603429D01*
X18755357Y-21574857D01*
X18755357Y-21560572D01*
X18741071Y-21532000D01*
X18712500Y-21517714D01*
X18669643Y-21517714D01*
X18641071Y-21503429D01*
X18626786Y-21474857D01*
X18626786Y-21460572D01*
X18641071Y-21432000D01*
X18669643Y-21417714D01*
X18712500Y-21417714D01*
X18741071Y-21432000D01*
X18926786Y-21617714D02*
X18898214Y-21603429D01*
X18883928Y-21574857D01*
X18883928Y-21317714D01*
X19083928Y-21617714D02*
X19055357Y-21603429D01*
X19041071Y-21589143D01*
X19026786Y-21560572D01*
X19026786Y-21474857D01*
X19041071Y-21446286D01*
X19055357Y-21432000D01*
X19083928Y-21417714D01*
X19126786Y-21417714D01*
X19155357Y-21432000D01*
X19169643Y-21446286D01*
X19183928Y-21474857D01*
X19183928Y-21560572D01*
X19169643Y-21589143D01*
X19155357Y-21603429D01*
X19126786Y-21617714D01*
X19083928Y-21617714D01*
X19269643Y-21417714D02*
X19383928Y-21417714D01*
X19312500Y-21317714D02*
X19312500Y-21574857D01*
X19326786Y-21603429D01*
X19355357Y-21617714D01*
X19383928Y-21617714D01*
X19469643Y-21603429D02*
X19498214Y-21617714D01*
X19555357Y-21617714D01*
X19583928Y-21603429D01*
X19598214Y-21574857D01*
X19598214Y-21560572D01*
X19583928Y-21532000D01*
X19555357Y-21517714D01*
X19512500Y-21517714D01*
X19483928Y-21503429D01*
X19469643Y-21474857D01*
X19469643Y-21460572D01*
X19483928Y-21432000D01*
X19512500Y-21417714D01*
X19555357Y-21417714D01*
X19583928Y-21432000D01*
X19698214Y-21732000D02*
X19712500Y-21717714D01*
X19741071Y-21674857D01*
X19755357Y-21646286D01*
X19769643Y-21603429D01*
X19783928Y-21532000D01*
X19783928Y-21474857D01*
X19769643Y-21403429D01*
X19755357Y-21360572D01*
X19741071Y-21332000D01*
X19712500Y-21289143D01*
X19698214Y-21274857D01*
X10487981Y-21900981D02*
X10487981Y-21855019D01*
X10442019Y-21855019D01*
X10442019Y-21900981D01*
X10487981Y-21900981D01*
X10841071Y-21713714D02*
X10869643Y-21713714D01*
X10898214Y-21728000D01*
X10912500Y-21742286D01*
X10926786Y-21770857D01*
X10941071Y-21828000D01*
X10941071Y-21899429D01*
X10926786Y-21956572D01*
X10912500Y-21985143D01*
X10898214Y-21999429D01*
X10869643Y-22013714D01*
X10841071Y-22013714D01*
X10812500Y-21999429D01*
X10798214Y-21985143D01*
X10783928Y-21956572D01*
X10769643Y-21899429D01*
X10769643Y-21828000D01*
X10783928Y-21770857D01*
X10798214Y-21742286D01*
X10812500Y-21728000D01*
X10841071Y-21713714D01*
X11069643Y-21985143D02*
X11083928Y-21999429D01*
X11069643Y-22013714D01*
X11055357Y-21999429D01*
X11069643Y-21985143D01*
X11069643Y-22013714D01*
X11341071Y-21713714D02*
X11283928Y-21713714D01*
X11255357Y-21728000D01*
X11241071Y-21742286D01*
X11212500Y-21785143D01*
X11198214Y-21842286D01*
X11198214Y-21956572D01*
X11212500Y-21985143D01*
X11226786Y-21999429D01*
X11255357Y-22013714D01*
X11312500Y-22013714D01*
X11341071Y-21999429D01*
X11355357Y-21985143D01*
X11369643Y-21956572D01*
X11369643Y-21885143D01*
X11355357Y-21856572D01*
X11341071Y-21842286D01*
X11312500Y-21828000D01*
X11255357Y-21828000D01*
X11226786Y-21842286D01*
X11212500Y-21856572D01*
X11198214Y-21885143D01*
X11641071Y-21713714D02*
X11498214Y-21713714D01*
X11483928Y-21856572D01*
X11498214Y-21842286D01*
X11526786Y-21828000D01*
X11598214Y-21828000D01*
X11626786Y-21842286D01*
X11641071Y-21856572D01*
X11655357Y-21885143D01*
X11655357Y-21956572D01*
X11641071Y-21985143D01*
X11626786Y-21999429D01*
X11598214Y-22013714D01*
X11526786Y-22013714D01*
X11498214Y-21999429D01*
X11483928Y-21985143D01*
X11783928Y-22013714D02*
X11783928Y-21813714D01*
X11783928Y-21842286D02*
X11798214Y-21828000D01*
X11826786Y-21813714D01*
X11869643Y-21813714D01*
X11898214Y-21828000D01*
X11912500Y-21856572D01*
X11912500Y-22013714D01*
X11912500Y-21856572D02*
X11926786Y-21828000D01*
X11955357Y-21813714D01*
X11998214Y-21813714D01*
X12026786Y-21828000D01*
X12041071Y-21856572D01*
X12041071Y-22013714D01*
X12183928Y-22013714D02*
X12183928Y-21813714D01*
X12183928Y-21842286D02*
X12198214Y-21828000D01*
X12226786Y-21813714D01*
X12269643Y-21813714D01*
X12298214Y-21828000D01*
X12312500Y-21856572D01*
X12312500Y-22013714D01*
X12312500Y-21856572D02*
X12326786Y-21828000D01*
X12355357Y-21813714D01*
X12398214Y-21813714D01*
X12426786Y-21828000D01*
X12441071Y-21856572D01*
X12441071Y-22013714D01*
X13026786Y-21699429D02*
X12769643Y-22085143D01*
X13412500Y-21713714D02*
X13441071Y-21713714D01*
X13469643Y-21728000D01*
X13483928Y-21742286D01*
X13498214Y-21770857D01*
X13512500Y-21828000D01*
X13512500Y-21899429D01*
X13498214Y-21956572D01*
X13483928Y-21985143D01*
X13469643Y-21999429D01*
X13441071Y-22013714D01*
X13412500Y-22013714D01*
X13383928Y-21999429D01*
X13369643Y-21985143D01*
X13355357Y-21956572D01*
X13341071Y-21899429D01*
X13341071Y-21828000D01*
X13355357Y-21770857D01*
X13369643Y-21742286D01*
X13383928Y-21728000D01*
X13412500Y-21713714D01*
X13641071Y-21985143D02*
X13655357Y-21999429D01*
X13641071Y-22013714D01*
X13626786Y-21999429D01*
X13641071Y-21985143D01*
X13641071Y-22013714D01*
X13841071Y-21713714D02*
X13869643Y-21713714D01*
X13898214Y-21728000D01*
X13912500Y-21742286D01*
X13926786Y-21770857D01*
X13941071Y-21828000D01*
X13941071Y-21899429D01*
X13926786Y-21956572D01*
X13912500Y-21985143D01*
X13898214Y-21999429D01*
X13869643Y-22013714D01*
X13841071Y-22013714D01*
X13812500Y-21999429D01*
X13798214Y-21985143D01*
X13783928Y-21956572D01*
X13769643Y-21899429D01*
X13769643Y-21828000D01*
X13783928Y-21770857D01*
X13798214Y-21742286D01*
X13812500Y-21728000D01*
X13841071Y-21713714D01*
X14055357Y-21742286D02*
X14069643Y-21728000D01*
X14098214Y-21713714D01*
X14169643Y-21713714D01*
X14198214Y-21728000D01*
X14212500Y-21742286D01*
X14226786Y-21770857D01*
X14226786Y-21799429D01*
X14212500Y-21842286D01*
X14041071Y-22013714D01*
X14226786Y-22013714D01*
X14483928Y-21713714D02*
X14426786Y-21713714D01*
X14398214Y-21728000D01*
X14383928Y-21742286D01*
X14355357Y-21785143D01*
X14341071Y-21842286D01*
X14341071Y-21956572D01*
X14355357Y-21985143D01*
X14369643Y-21999429D01*
X14398214Y-22013714D01*
X14455357Y-22013714D01*
X14483928Y-21999429D01*
X14498214Y-21985143D01*
X14512500Y-21956572D01*
X14512500Y-21885143D01*
X14498214Y-21856572D01*
X14483928Y-21842286D01*
X14455357Y-21828000D01*
X14398214Y-21828000D01*
X14369643Y-21842286D01*
X14355357Y-21856572D01*
X14341071Y-21885143D01*
X14626786Y-21713714D02*
X14626786Y-21770857D01*
X14741071Y-21713714D02*
X14741071Y-21770857D01*
X15183928Y-22128000D02*
X15169643Y-22113714D01*
X15141071Y-22070857D01*
X15126786Y-22042286D01*
X15112500Y-21999429D01*
X15098214Y-21928000D01*
X15098214Y-21870857D01*
X15112500Y-21799429D01*
X15126786Y-21756572D01*
X15141071Y-21728000D01*
X15169643Y-21685143D01*
X15183928Y-21670857D01*
X15441071Y-21713714D02*
X15298214Y-21713714D01*
X15283928Y-21856572D01*
X15298214Y-21842286D01*
X15326786Y-21828000D01*
X15398214Y-21828000D01*
X15426786Y-21842286D01*
X15441071Y-21856572D01*
X15455357Y-21885143D01*
X15455357Y-21956572D01*
X15441071Y-21985143D01*
X15426786Y-21999429D01*
X15398214Y-22013714D01*
X15326786Y-22013714D01*
X15298214Y-21999429D01*
X15283928Y-21985143D01*
X15812500Y-22013714D02*
X15812500Y-21713714D01*
X15941071Y-22013714D02*
X15941071Y-21856572D01*
X15926786Y-21828000D01*
X15898214Y-21813714D01*
X15855357Y-21813714D01*
X15826786Y-21828000D01*
X15812500Y-21842286D01*
X16126786Y-22013714D02*
X16098214Y-21999429D01*
X16083928Y-21985143D01*
X16069643Y-21956572D01*
X16069643Y-21870857D01*
X16083928Y-21842286D01*
X16098214Y-21828000D01*
X16126786Y-21813714D01*
X16169643Y-21813714D01*
X16198214Y-21828000D01*
X16212500Y-21842286D01*
X16226786Y-21870857D01*
X16226786Y-21956572D01*
X16212500Y-21985143D01*
X16198214Y-21999429D01*
X16169643Y-22013714D01*
X16126786Y-22013714D01*
X16398214Y-22013714D02*
X16369643Y-21999429D01*
X16355357Y-21970857D01*
X16355357Y-21713714D01*
X16626786Y-21999429D02*
X16598214Y-22013714D01*
X16541071Y-22013714D01*
X16512500Y-21999429D01*
X16498214Y-21970857D01*
X16498214Y-21856572D01*
X16512500Y-21828000D01*
X16541071Y-21813714D01*
X16598214Y-21813714D01*
X16626786Y-21828000D01*
X16641071Y-21856572D01*
X16641071Y-21885143D01*
X16498214Y-21913714D01*
X16755357Y-21999429D02*
X16783928Y-22013714D01*
X16841071Y-22013714D01*
X16869643Y-21999429D01*
X16883928Y-21970857D01*
X16883928Y-21956572D01*
X16869643Y-21928000D01*
X16841071Y-21913714D01*
X16798214Y-21913714D01*
X16769643Y-21899429D01*
X16755357Y-21870857D01*
X16755357Y-21856572D01*
X16769643Y-21828000D01*
X16798214Y-21813714D01*
X16841071Y-21813714D01*
X16869643Y-21828000D01*
X16983928Y-22128000D02*
X16998214Y-22113714D01*
X17026786Y-22070857D01*
X17041071Y-22042286D01*
X17055357Y-21999429D01*
X17069643Y-21928000D01*
X17069643Y-21870857D01*
X17055357Y-21799429D01*
X17041071Y-21756572D01*
X17026786Y-21728000D01*
X16998214Y-21685143D01*
X16983928Y-21670857D01*
X10460000Y-22311500D02*
X10497500Y-22274000D01*
X10460000Y-22236500D01*
X10422500Y-22274000D01*
X10460000Y-22311500D01*
X10841071Y-22109714D02*
X10869643Y-22109714D01*
X10898214Y-22124000D01*
X10912500Y-22138286D01*
X10926786Y-22166857D01*
X10941071Y-22224000D01*
X10941071Y-22295429D01*
X10926786Y-22352572D01*
X10912500Y-22381143D01*
X10898214Y-22395429D01*
X10869643Y-22409714D01*
X10841071Y-22409714D01*
X10812500Y-22395429D01*
X10798214Y-22381143D01*
X10783928Y-22352572D01*
X10769643Y-22295429D01*
X10769643Y-22224000D01*
X10783928Y-22166857D01*
X10798214Y-22138286D01*
X10812500Y-22124000D01*
X10841071Y-22109714D01*
X11069643Y-22381143D02*
X11083928Y-22395429D01*
X11069643Y-22409714D01*
X11055357Y-22395429D01*
X11069643Y-22381143D01*
X11069643Y-22409714D01*
X11183928Y-22109714D02*
X11383928Y-22109714D01*
X11255357Y-22409714D01*
X11641071Y-22109714D02*
X11498214Y-22109714D01*
X11483928Y-22252572D01*
X11498214Y-22238286D01*
X11526786Y-22224000D01*
X11598214Y-22224000D01*
X11626786Y-22238286D01*
X11641071Y-22252572D01*
X11655357Y-22281143D01*
X11655357Y-22352572D01*
X11641071Y-22381143D01*
X11626786Y-22395429D01*
X11598214Y-22409714D01*
X11526786Y-22409714D01*
X11498214Y-22395429D01*
X11483928Y-22381143D01*
X11783928Y-22409714D02*
X11783928Y-22209714D01*
X11783928Y-22238286D02*
X11798214Y-22224000D01*
X11826786Y-22209714D01*
X11869643Y-22209714D01*
X11898214Y-22224000D01*
X11912500Y-22252572D01*
X11912500Y-22409714D01*
X11912500Y-22252572D02*
X11926786Y-22224000D01*
X11955357Y-22209714D01*
X11998214Y-22209714D01*
X12026786Y-22224000D01*
X12041071Y-22252572D01*
X12041071Y-22409714D01*
X12183928Y-22409714D02*
X12183928Y-22209714D01*
X12183928Y-22238286D02*
X12198214Y-22224000D01*
X12226786Y-22209714D01*
X12269643Y-22209714D01*
X12298214Y-22224000D01*
X12312500Y-22252572D01*
X12312500Y-22409714D01*
X12312500Y-22252572D02*
X12326786Y-22224000D01*
X12355357Y-22209714D01*
X12398214Y-22209714D01*
X12426786Y-22224000D01*
X12441071Y-22252572D01*
X12441071Y-22409714D01*
X13026786Y-22095429D02*
X12769643Y-22481143D01*
X13412500Y-22109714D02*
X13441071Y-22109714D01*
X13469643Y-22124000D01*
X13483928Y-22138286D01*
X13498214Y-22166857D01*
X13512500Y-22224000D01*
X13512500Y-22295429D01*
X13498214Y-22352572D01*
X13483928Y-22381143D01*
X13469643Y-22395429D01*
X13441071Y-22409714D01*
X13412500Y-22409714D01*
X13383928Y-22395429D01*
X13369643Y-22381143D01*
X13355357Y-22352572D01*
X13341071Y-22295429D01*
X13341071Y-22224000D01*
X13355357Y-22166857D01*
X13369643Y-22138286D01*
X13383928Y-22124000D01*
X13412500Y-22109714D01*
X13641071Y-22381143D02*
X13655357Y-22395429D01*
X13641071Y-22409714D01*
X13626786Y-22395429D01*
X13641071Y-22381143D01*
X13641071Y-22409714D01*
X13841071Y-22109714D02*
X13869643Y-22109714D01*
X13898214Y-22124000D01*
X13912500Y-22138286D01*
X13926786Y-22166857D01*
X13941071Y-22224000D01*
X13941071Y-22295429D01*
X13926786Y-22352572D01*
X13912500Y-22381143D01*
X13898214Y-22395429D01*
X13869643Y-22409714D01*
X13841071Y-22409714D01*
X13812500Y-22395429D01*
X13798214Y-22381143D01*
X13783928Y-22352572D01*
X13769643Y-22295429D01*
X13769643Y-22224000D01*
X13783928Y-22166857D01*
X13798214Y-22138286D01*
X13812500Y-22124000D01*
X13841071Y-22109714D01*
X14041071Y-22109714D02*
X14226786Y-22109714D01*
X14126786Y-22224000D01*
X14169643Y-22224000D01*
X14198214Y-22238286D01*
X14212500Y-22252572D01*
X14226786Y-22281143D01*
X14226786Y-22352572D01*
X14212500Y-22381143D01*
X14198214Y-22395429D01*
X14169643Y-22409714D01*
X14083928Y-22409714D01*
X14055357Y-22395429D01*
X14041071Y-22381143D01*
X14412500Y-22109714D02*
X14441071Y-22109714D01*
X14469643Y-22124000D01*
X14483928Y-22138286D01*
X14498214Y-22166857D01*
X14512500Y-22224000D01*
X14512500Y-22295429D01*
X14498214Y-22352572D01*
X14483928Y-22381143D01*
X14469643Y-22395429D01*
X14441071Y-22409714D01*
X14412500Y-22409714D01*
X14383928Y-22395429D01*
X14369643Y-22381143D01*
X14355357Y-22352572D01*
X14341071Y-22295429D01*
X14341071Y-22224000D01*
X14355357Y-22166857D01*
X14369643Y-22138286D01*
X14383928Y-22124000D01*
X14412500Y-22109714D01*
X14626786Y-22109714D02*
X14626786Y-22166857D01*
X14741071Y-22109714D02*
X14741071Y-22166857D01*
X15183928Y-22524000D02*
X15169643Y-22509714D01*
X15141071Y-22466857D01*
X15126786Y-22438286D01*
X15112500Y-22395429D01*
X15098214Y-22324000D01*
X15098214Y-22266857D01*
X15112500Y-22195429D01*
X15126786Y-22152572D01*
X15141071Y-22124000D01*
X15169643Y-22081143D01*
X15183928Y-22066857D01*
X15455357Y-22409714D02*
X15283928Y-22409714D01*
X15369643Y-22409714D02*
X15369643Y-22109714D01*
X15341071Y-22152572D01*
X15312500Y-22181143D01*
X15283928Y-22195429D01*
X15569643Y-22138286D02*
X15583928Y-22124000D01*
X15612500Y-22109714D01*
X15683928Y-22109714D01*
X15712500Y-22124000D01*
X15726786Y-22138286D01*
X15741071Y-22166857D01*
X15741071Y-22195429D01*
X15726786Y-22238286D01*
X15555357Y-22409714D01*
X15741071Y-22409714D01*
X16098214Y-22409714D02*
X16098214Y-22109714D01*
X16226786Y-22409714D02*
X16226786Y-22252572D01*
X16212500Y-22224000D01*
X16183928Y-22209714D01*
X16141071Y-22209714D01*
X16112500Y-22224000D01*
X16098214Y-22238286D01*
X16412500Y-22409714D02*
X16383928Y-22395429D01*
X16369643Y-22381143D01*
X16355357Y-22352572D01*
X16355357Y-22266857D01*
X16369643Y-22238286D01*
X16383928Y-22224000D01*
X16412500Y-22209714D01*
X16455357Y-22209714D01*
X16483928Y-22224000D01*
X16498214Y-22238286D01*
X16512500Y-22266857D01*
X16512500Y-22352572D01*
X16498214Y-22381143D01*
X16483928Y-22395429D01*
X16455357Y-22409714D01*
X16412500Y-22409714D01*
X16683928Y-22409714D02*
X16655357Y-22395429D01*
X16641071Y-22366857D01*
X16641071Y-22109714D01*
X16912500Y-22395429D02*
X16883928Y-22409714D01*
X16826786Y-22409714D01*
X16798214Y-22395429D01*
X16783928Y-22366857D01*
X16783928Y-22252572D01*
X16798214Y-22224000D01*
X16826786Y-22209714D01*
X16883928Y-22209714D01*
X16912500Y-22224000D01*
X16926786Y-22252572D01*
X16926786Y-22281143D01*
X16783928Y-22309714D01*
X17041071Y-22395429D02*
X17069643Y-22409714D01*
X17126786Y-22409714D01*
X17155357Y-22395429D01*
X17169643Y-22366857D01*
X17169643Y-22352572D01*
X17155357Y-22324000D01*
X17126786Y-22309714D01*
X17083928Y-22309714D01*
X17055357Y-22295429D01*
X17041071Y-22266857D01*
X17041071Y-22252572D01*
X17055357Y-22224000D01*
X17083928Y-22209714D01*
X17126786Y-22209714D01*
X17155357Y-22224000D01*
X17269643Y-22524000D02*
X17283928Y-22509714D01*
X17312500Y-22466857D01*
X17326786Y-22438286D01*
X17341071Y-22395429D01*
X17355357Y-22324000D01*
X17355357Y-22266857D01*
X17341071Y-22195429D01*
X17326786Y-22152572D01*
X17312500Y-22124000D01*
X17283928Y-22081143D01*
X17269643Y-22066857D01*
X10421300Y-22631900D02*
X10497500Y-22708100D01*
X10497500Y-22631900D02*
X10421300Y-22708100D01*
X10497500Y-22670000D02*
G75*
G03X10497500Y-22670000I-38100J0D01*
G01*
X10841071Y-22505714D02*
X10869643Y-22505714D01*
X10898214Y-22520000D01*
X10912500Y-22534286D01*
X10926786Y-22562857D01*
X10941071Y-22620000D01*
X10941071Y-22691429D01*
X10926786Y-22748571D01*
X10912500Y-22777143D01*
X10898214Y-22791429D01*
X10869643Y-22805714D01*
X10841071Y-22805714D01*
X10812500Y-22791429D01*
X10798214Y-22777143D01*
X10783928Y-22748571D01*
X10769643Y-22691429D01*
X10769643Y-22620000D01*
X10783928Y-22562857D01*
X10798214Y-22534286D01*
X10812500Y-22520000D01*
X10841071Y-22505714D01*
X11069643Y-22777143D02*
X11083928Y-22791429D01*
X11069643Y-22805714D01*
X11055357Y-22791429D01*
X11069643Y-22777143D01*
X11069643Y-22805714D01*
X11183928Y-22505714D02*
X11383928Y-22505714D01*
X11255357Y-22805714D01*
X11626786Y-22505714D02*
X11569643Y-22505714D01*
X11541071Y-22520000D01*
X11526786Y-22534286D01*
X11498214Y-22577143D01*
X11483928Y-22634286D01*
X11483928Y-22748571D01*
X11498214Y-22777143D01*
X11512500Y-22791429D01*
X11541071Y-22805714D01*
X11598214Y-22805714D01*
X11626786Y-22791429D01*
X11641071Y-22777143D01*
X11655357Y-22748571D01*
X11655357Y-22677143D01*
X11641071Y-22648571D01*
X11626786Y-22634286D01*
X11598214Y-22620000D01*
X11541071Y-22620000D01*
X11512500Y-22634286D01*
X11498214Y-22648571D01*
X11483928Y-22677143D01*
X11783928Y-22805714D02*
X11783928Y-22605714D01*
X11783928Y-22634286D02*
X11798214Y-22620000D01*
X11826786Y-22605714D01*
X11869643Y-22605714D01*
X11898214Y-22620000D01*
X11912500Y-22648571D01*
X11912500Y-22805714D01*
X11912500Y-22648571D02*
X11926786Y-22620000D01*
X11955357Y-22605714D01*
X11998214Y-22605714D01*
X12026786Y-22620000D01*
X12041071Y-22648571D01*
X12041071Y-22805714D01*
X12183928Y-22805714D02*
X12183928Y-22605714D01*
X12183928Y-22634286D02*
X12198214Y-22620000D01*
X12226786Y-22605714D01*
X12269643Y-22605714D01*
X12298214Y-22620000D01*
X12312500Y-22648571D01*
X12312500Y-22805714D01*
X12312500Y-22648571D02*
X12326786Y-22620000D01*
X12355357Y-22605714D01*
X12398214Y-22605714D01*
X12426786Y-22620000D01*
X12441071Y-22648571D01*
X12441071Y-22805714D01*
X13026786Y-22491429D02*
X12769643Y-22877143D01*
X13412500Y-22505714D02*
X13441071Y-22505714D01*
X13469643Y-22520000D01*
X13483928Y-22534286D01*
X13498214Y-22562857D01*
X13512500Y-22620000D01*
X13512500Y-22691429D01*
X13498214Y-22748571D01*
X13483928Y-22777143D01*
X13469643Y-22791429D01*
X13441071Y-22805714D01*
X13412500Y-22805714D01*
X13383928Y-22791429D01*
X13369643Y-22777143D01*
X13355357Y-22748571D01*
X13341071Y-22691429D01*
X13341071Y-22620000D01*
X13355357Y-22562857D01*
X13369643Y-22534286D01*
X13383928Y-22520000D01*
X13412500Y-22505714D01*
X13641071Y-22777143D02*
X13655357Y-22791429D01*
X13641071Y-22805714D01*
X13626786Y-22791429D01*
X13641071Y-22777143D01*
X13641071Y-22805714D01*
X13841071Y-22505714D02*
X13869643Y-22505714D01*
X13898214Y-22520000D01*
X13912500Y-22534286D01*
X13926786Y-22562857D01*
X13941071Y-22620000D01*
X13941071Y-22691429D01*
X13926786Y-22748571D01*
X13912500Y-22777143D01*
X13898214Y-22791429D01*
X13869643Y-22805714D01*
X13841071Y-22805714D01*
X13812500Y-22791429D01*
X13798214Y-22777143D01*
X13783928Y-22748571D01*
X13769643Y-22691429D01*
X13769643Y-22620000D01*
X13783928Y-22562857D01*
X13798214Y-22534286D01*
X13812500Y-22520000D01*
X13841071Y-22505714D01*
X14041071Y-22505714D02*
X14226786Y-22505714D01*
X14126786Y-22620000D01*
X14169643Y-22620000D01*
X14198214Y-22634286D01*
X14212500Y-22648571D01*
X14226786Y-22677143D01*
X14226786Y-22748571D01*
X14212500Y-22777143D01*
X14198214Y-22791429D01*
X14169643Y-22805714D01*
X14083928Y-22805714D01*
X14055357Y-22791429D01*
X14041071Y-22777143D01*
X14412500Y-22505714D02*
X14441071Y-22505714D01*
X14469643Y-22520000D01*
X14483928Y-22534286D01*
X14498214Y-22562857D01*
X14512500Y-22620000D01*
X14512500Y-22691429D01*
X14498214Y-22748571D01*
X14483928Y-22777143D01*
X14469643Y-22791429D01*
X14441071Y-22805714D01*
X14412500Y-22805714D01*
X14383928Y-22791429D01*
X14369643Y-22777143D01*
X14355357Y-22748571D01*
X14341071Y-22691429D01*
X14341071Y-22620000D01*
X14355357Y-22562857D01*
X14369643Y-22534286D01*
X14383928Y-22520000D01*
X14412500Y-22505714D01*
X14626786Y-22505714D02*
X14626786Y-22562857D01*
X14741071Y-22505714D02*
X14741071Y-22562857D01*
X15183928Y-22920000D02*
X15169643Y-22905714D01*
X15141071Y-22862857D01*
X15126786Y-22834286D01*
X15112500Y-22791429D01*
X15098214Y-22720000D01*
X15098214Y-22662857D01*
X15112500Y-22591429D01*
X15126786Y-22548571D01*
X15141071Y-22520000D01*
X15169643Y-22477143D01*
X15183928Y-22462857D01*
X15426786Y-22605714D02*
X15426786Y-22805714D01*
X15355357Y-22491429D02*
X15283928Y-22705714D01*
X15469643Y-22705714D01*
X15812500Y-22805714D02*
X15812500Y-22505714D01*
X15941071Y-22805714D02*
X15941071Y-22648571D01*
X15926786Y-22620000D01*
X15898214Y-22605714D01*
X15855357Y-22605714D01*
X15826786Y-22620000D01*
X15812500Y-22634286D01*
X16126786Y-22805714D02*
X16098214Y-22791429D01*
X16083928Y-22777143D01*
X16069643Y-22748571D01*
X16069643Y-22662857D01*
X16083928Y-22634286D01*
X16098214Y-22620000D01*
X16126786Y-22605714D01*
X16169643Y-22605714D01*
X16198214Y-22620000D01*
X16212500Y-22634286D01*
X16226786Y-22662857D01*
X16226786Y-22748571D01*
X16212500Y-22777143D01*
X16198214Y-22791429D01*
X16169643Y-22805714D01*
X16126786Y-22805714D01*
X16398214Y-22805714D02*
X16369643Y-22791429D01*
X16355357Y-22762857D01*
X16355357Y-22505714D01*
X16626786Y-22791429D02*
X16598214Y-22805714D01*
X16541071Y-22805714D01*
X16512500Y-22791429D01*
X16498214Y-22762857D01*
X16498214Y-22648571D01*
X16512500Y-22620000D01*
X16541071Y-22605714D01*
X16598214Y-22605714D01*
X16626786Y-22620000D01*
X16641071Y-22648571D01*
X16641071Y-22677143D01*
X16498214Y-22705714D01*
X16755357Y-22791429D02*
X16783928Y-22805714D01*
X16841071Y-22805714D01*
X16869643Y-22791429D01*
X16883928Y-22762857D01*
X16883928Y-22748571D01*
X16869643Y-22720000D01*
X16841071Y-22705714D01*
X16798214Y-22705714D01*
X16769643Y-22691429D01*
X16755357Y-22662857D01*
X16755357Y-22648571D01*
X16769643Y-22620000D01*
X16798214Y-22605714D01*
X16841071Y-22605714D01*
X16869643Y-22620000D01*
X16983928Y-22920000D02*
X16998214Y-22905714D01*
X17026786Y-22862857D01*
X17041071Y-22834286D01*
X17055357Y-22791429D01*
X17069643Y-22720000D01*
X17069643Y-22662857D01*
X17055357Y-22591429D01*
X17041071Y-22548571D01*
X17026786Y-22520000D01*
X16998214Y-22477143D01*
X16983928Y-22462857D01*
X10417500Y-23026000D02*
X10497500Y-23106000D01*
X10497500Y-23026000D02*
X10417500Y-23106000D01*
X10457500Y-23026000D02*
X10457500Y-23106000D01*
X10417500Y-23066000D02*
X10497500Y-23066000D01*
X10841071Y-22901714D02*
X10869643Y-22901714D01*
X10898214Y-22916000D01*
X10912500Y-22930286D01*
X10926786Y-22958857D01*
X10941071Y-23016000D01*
X10941071Y-23087429D01*
X10926786Y-23144571D01*
X10912500Y-23173143D01*
X10898214Y-23187429D01*
X10869643Y-23201714D01*
X10841071Y-23201714D01*
X10812500Y-23187429D01*
X10798214Y-23173143D01*
X10783928Y-23144571D01*
X10769643Y-23087429D01*
X10769643Y-23016000D01*
X10783928Y-22958857D01*
X10798214Y-22930286D01*
X10812500Y-22916000D01*
X10841071Y-22901714D01*
X11069643Y-23173143D02*
X11083928Y-23187429D01*
X11069643Y-23201714D01*
X11055357Y-23187429D01*
X11069643Y-23173143D01*
X11069643Y-23201714D01*
X11255357Y-23030286D02*
X11226786Y-23016000D01*
X11212500Y-23001714D01*
X11198214Y-22973143D01*
X11198214Y-22958857D01*
X11212500Y-22930286D01*
X11226786Y-22916000D01*
X11255357Y-22901714D01*
X11312500Y-22901714D01*
X11341071Y-22916000D01*
X11355357Y-22930286D01*
X11369643Y-22958857D01*
X11369643Y-22973143D01*
X11355357Y-23001714D01*
X11341071Y-23016000D01*
X11312500Y-23030286D01*
X11255357Y-23030286D01*
X11226786Y-23044571D01*
X11212500Y-23058857D01*
X11198214Y-23087429D01*
X11198214Y-23144571D01*
X11212500Y-23173143D01*
X11226786Y-23187429D01*
X11255357Y-23201714D01*
X11312500Y-23201714D01*
X11341071Y-23187429D01*
X11355357Y-23173143D01*
X11369643Y-23144571D01*
X11369643Y-23087429D01*
X11355357Y-23058857D01*
X11341071Y-23044571D01*
X11312500Y-23030286D01*
X11555357Y-22901714D02*
X11583928Y-22901714D01*
X11612500Y-22916000D01*
X11626786Y-22930286D01*
X11641071Y-22958857D01*
X11655357Y-23016000D01*
X11655357Y-23087429D01*
X11641071Y-23144571D01*
X11626786Y-23173143D01*
X11612500Y-23187429D01*
X11583928Y-23201714D01*
X11555357Y-23201714D01*
X11526786Y-23187429D01*
X11512500Y-23173143D01*
X11498214Y-23144571D01*
X11483928Y-23087429D01*
X11483928Y-23016000D01*
X11498214Y-22958857D01*
X11512500Y-22930286D01*
X11526786Y-22916000D01*
X11555357Y-22901714D01*
X11783928Y-23201714D02*
X11783928Y-23001714D01*
X11783928Y-23030286D02*
X11798214Y-23016000D01*
X11826786Y-23001714D01*
X11869643Y-23001714D01*
X11898214Y-23016000D01*
X11912500Y-23044571D01*
X11912500Y-23201714D01*
X11912500Y-23044571D02*
X11926786Y-23016000D01*
X11955357Y-23001714D01*
X11998214Y-23001714D01*
X12026786Y-23016000D01*
X12041071Y-23044571D01*
X12041071Y-23201714D01*
X12183928Y-23201714D02*
X12183928Y-23001714D01*
X12183928Y-23030286D02*
X12198214Y-23016000D01*
X12226786Y-23001714D01*
X12269643Y-23001714D01*
X12298214Y-23016000D01*
X12312500Y-23044571D01*
X12312500Y-23201714D01*
X12312500Y-23044571D02*
X12326786Y-23016000D01*
X12355357Y-23001714D01*
X12398214Y-23001714D01*
X12426786Y-23016000D01*
X12441071Y-23044571D01*
X12441071Y-23201714D01*
X13026786Y-22887429D02*
X12769643Y-23273143D01*
X13412500Y-22901714D02*
X13441071Y-22901714D01*
X13469643Y-22916000D01*
X13483928Y-22930286D01*
X13498214Y-22958857D01*
X13512500Y-23016000D01*
X13512500Y-23087429D01*
X13498214Y-23144571D01*
X13483928Y-23173143D01*
X13469643Y-23187429D01*
X13441071Y-23201714D01*
X13412500Y-23201714D01*
X13383928Y-23187429D01*
X13369643Y-23173143D01*
X13355357Y-23144571D01*
X13341071Y-23087429D01*
X13341071Y-23016000D01*
X13355357Y-22958857D01*
X13369643Y-22930286D01*
X13383928Y-22916000D01*
X13412500Y-22901714D01*
X13641071Y-23173143D02*
X13655357Y-23187429D01*
X13641071Y-23201714D01*
X13626786Y-23187429D01*
X13641071Y-23173143D01*
X13641071Y-23201714D01*
X13841071Y-22901714D02*
X13869643Y-22901714D01*
X13898214Y-22916000D01*
X13912500Y-22930286D01*
X13926786Y-22958857D01*
X13941071Y-23016000D01*
X13941071Y-23087429D01*
X13926786Y-23144571D01*
X13912500Y-23173143D01*
X13898214Y-23187429D01*
X13869643Y-23201714D01*
X13841071Y-23201714D01*
X13812500Y-23187429D01*
X13798214Y-23173143D01*
X13783928Y-23144571D01*
X13769643Y-23087429D01*
X13769643Y-23016000D01*
X13783928Y-22958857D01*
X13798214Y-22930286D01*
X13812500Y-22916000D01*
X13841071Y-22901714D01*
X14041071Y-22901714D02*
X14226786Y-22901714D01*
X14126786Y-23016000D01*
X14169643Y-23016000D01*
X14198214Y-23030286D01*
X14212500Y-23044571D01*
X14226786Y-23073143D01*
X14226786Y-23144571D01*
X14212500Y-23173143D01*
X14198214Y-23187429D01*
X14169643Y-23201714D01*
X14083928Y-23201714D01*
X14055357Y-23187429D01*
X14041071Y-23173143D01*
X14512500Y-23201714D02*
X14341071Y-23201714D01*
X14426786Y-23201714D02*
X14426786Y-22901714D01*
X14398214Y-22944571D01*
X14369643Y-22973143D01*
X14341071Y-22987429D01*
X14626786Y-22901714D02*
X14626786Y-22958857D01*
X14741071Y-22901714D02*
X14741071Y-22958857D01*
X15183928Y-23316000D02*
X15169643Y-23301714D01*
X15141071Y-23258857D01*
X15126786Y-23230286D01*
X15112500Y-23187429D01*
X15098214Y-23116000D01*
X15098214Y-23058857D01*
X15112500Y-22987429D01*
X15126786Y-22944571D01*
X15141071Y-22916000D01*
X15169643Y-22873143D01*
X15183928Y-22858857D01*
X15455357Y-23201714D02*
X15283928Y-23201714D01*
X15369643Y-23201714D02*
X15369643Y-22901714D01*
X15341071Y-22944571D01*
X15312500Y-22973143D01*
X15283928Y-22987429D01*
X15712500Y-23001714D02*
X15712500Y-23201714D01*
X15641071Y-22887429D02*
X15569643Y-23101714D01*
X15755357Y-23101714D01*
X16098214Y-23201714D02*
X16098214Y-22901714D01*
X16226786Y-23201714D02*
X16226786Y-23044571D01*
X16212500Y-23016000D01*
X16183928Y-23001714D01*
X16141071Y-23001714D01*
X16112500Y-23016000D01*
X16098214Y-23030286D01*
X16412500Y-23201714D02*
X16383928Y-23187429D01*
X16369643Y-23173143D01*
X16355357Y-23144571D01*
X16355357Y-23058857D01*
X16369643Y-23030286D01*
X16383928Y-23016000D01*
X16412500Y-23001714D01*
X16455357Y-23001714D01*
X16483928Y-23016000D01*
X16498214Y-23030286D01*
X16512500Y-23058857D01*
X16512500Y-23144571D01*
X16498214Y-23173143D01*
X16483928Y-23187429D01*
X16455357Y-23201714D01*
X16412500Y-23201714D01*
X16683928Y-23201714D02*
X16655357Y-23187429D01*
X16641071Y-23158857D01*
X16641071Y-22901714D01*
X16912500Y-23187429D02*
X16883928Y-23201714D01*
X16826786Y-23201714D01*
X16798214Y-23187429D01*
X16783928Y-23158857D01*
X16783928Y-23044571D01*
X16798214Y-23016000D01*
X16826786Y-23001714D01*
X16883928Y-23001714D01*
X16912500Y-23016000D01*
X16926786Y-23044571D01*
X16926786Y-23073143D01*
X16783928Y-23101714D01*
X17041071Y-23187429D02*
X17069643Y-23201714D01*
X17126786Y-23201714D01*
X17155357Y-23187429D01*
X17169643Y-23158857D01*
X17169643Y-23144571D01*
X17155357Y-23116000D01*
X17126786Y-23101714D01*
X17083928Y-23101714D01*
X17055357Y-23087429D01*
X17041071Y-23058857D01*
X17041071Y-23044571D01*
X17055357Y-23016000D01*
X17083928Y-23001714D01*
X17126786Y-23001714D01*
X17155357Y-23016000D01*
X17269643Y-23316000D02*
X17283928Y-23301714D01*
X17312500Y-23258857D01*
X17326786Y-23230286D01*
X17341071Y-23187429D01*
X17355357Y-23116000D01*
X17355357Y-23058857D01*
X17341071Y-22987429D01*
X17326786Y-22944571D01*
X17312500Y-22916000D01*
X17283928Y-22873143D01*
X17269643Y-22858857D01*
X10412500Y-23419500D02*
X10497500Y-23504500D01*
X10497500Y-23419500D02*
X10412500Y-23504500D01*
X10485052Y-23492052D02*
X10485052Y-23431948D01*
X10424948Y-23431948D01*
X10424948Y-23492052D01*
X10485052Y-23492052D01*
X10841071Y-23297714D02*
X10869643Y-23297714D01*
X10898214Y-23312000D01*
X10912500Y-23326286D01*
X10926786Y-23354857D01*
X10941071Y-23412000D01*
X10941071Y-23483429D01*
X10926786Y-23540571D01*
X10912500Y-23569143D01*
X10898214Y-23583429D01*
X10869643Y-23597714D01*
X10841071Y-23597714D01*
X10812500Y-23583429D01*
X10798214Y-23569143D01*
X10783928Y-23540571D01*
X10769643Y-23483429D01*
X10769643Y-23412000D01*
X10783928Y-23354857D01*
X10798214Y-23326286D01*
X10812500Y-23312000D01*
X10841071Y-23297714D01*
X11069643Y-23569143D02*
X11083928Y-23583429D01*
X11069643Y-23597714D01*
X11055357Y-23583429D01*
X11069643Y-23569143D01*
X11069643Y-23597714D01*
X11255357Y-23426286D02*
X11226786Y-23412000D01*
X11212500Y-23397714D01*
X11198214Y-23369143D01*
X11198214Y-23354857D01*
X11212500Y-23326286D01*
X11226786Y-23312000D01*
X11255357Y-23297714D01*
X11312500Y-23297714D01*
X11341071Y-23312000D01*
X11355357Y-23326286D01*
X11369643Y-23354857D01*
X11369643Y-23369143D01*
X11355357Y-23397714D01*
X11341071Y-23412000D01*
X11312500Y-23426286D01*
X11255357Y-23426286D01*
X11226786Y-23440571D01*
X11212500Y-23454857D01*
X11198214Y-23483429D01*
X11198214Y-23540571D01*
X11212500Y-23569143D01*
X11226786Y-23583429D01*
X11255357Y-23597714D01*
X11312500Y-23597714D01*
X11341071Y-23583429D01*
X11355357Y-23569143D01*
X11369643Y-23540571D01*
X11369643Y-23483429D01*
X11355357Y-23454857D01*
X11341071Y-23440571D01*
X11312500Y-23426286D01*
X11641071Y-23297714D02*
X11498214Y-23297714D01*
X11483928Y-23440571D01*
X11498214Y-23426286D01*
X11526786Y-23412000D01*
X11598214Y-23412000D01*
X11626786Y-23426286D01*
X11641071Y-23440571D01*
X11655357Y-23469143D01*
X11655357Y-23540571D01*
X11641071Y-23569143D01*
X11626786Y-23583429D01*
X11598214Y-23597714D01*
X11526786Y-23597714D01*
X11498214Y-23583429D01*
X11483928Y-23569143D01*
X11783928Y-23597714D02*
X11783928Y-23397714D01*
X11783928Y-23426286D02*
X11798214Y-23412000D01*
X11826786Y-23397714D01*
X11869643Y-23397714D01*
X11898214Y-23412000D01*
X11912500Y-23440571D01*
X11912500Y-23597714D01*
X11912500Y-23440571D02*
X11926786Y-23412000D01*
X11955357Y-23397714D01*
X11998214Y-23397714D01*
X12026786Y-23412000D01*
X12041071Y-23440571D01*
X12041071Y-23597714D01*
X12183928Y-23597714D02*
X12183928Y-23397714D01*
X12183928Y-23426286D02*
X12198214Y-23412000D01*
X12226786Y-23397714D01*
X12269643Y-23397714D01*
X12298214Y-23412000D01*
X12312500Y-23440571D01*
X12312500Y-23597714D01*
X12312500Y-23440571D02*
X12326786Y-23412000D01*
X12355357Y-23397714D01*
X12398214Y-23397714D01*
X12426786Y-23412000D01*
X12441071Y-23440571D01*
X12441071Y-23597714D01*
X13026786Y-23283429D02*
X12769643Y-23669143D01*
X13412500Y-23297714D02*
X13441071Y-23297714D01*
X13469643Y-23312000D01*
X13483928Y-23326286D01*
X13498214Y-23354857D01*
X13512500Y-23412000D01*
X13512500Y-23483429D01*
X13498214Y-23540571D01*
X13483928Y-23569143D01*
X13469643Y-23583429D01*
X13441071Y-23597714D01*
X13412500Y-23597714D01*
X13383928Y-23583429D01*
X13369643Y-23569143D01*
X13355357Y-23540571D01*
X13341071Y-23483429D01*
X13341071Y-23412000D01*
X13355357Y-23354857D01*
X13369643Y-23326286D01*
X13383928Y-23312000D01*
X13412500Y-23297714D01*
X13641071Y-23569143D02*
X13655357Y-23583429D01*
X13641071Y-23597714D01*
X13626786Y-23583429D01*
X13641071Y-23569143D01*
X13641071Y-23597714D01*
X13841071Y-23297714D02*
X13869643Y-23297714D01*
X13898214Y-23312000D01*
X13912500Y-23326286D01*
X13926786Y-23354857D01*
X13941071Y-23412000D01*
X13941071Y-23483429D01*
X13926786Y-23540571D01*
X13912500Y-23569143D01*
X13898214Y-23583429D01*
X13869643Y-23597714D01*
X13841071Y-23597714D01*
X13812500Y-23583429D01*
X13798214Y-23569143D01*
X13783928Y-23540571D01*
X13769643Y-23483429D01*
X13769643Y-23412000D01*
X13783928Y-23354857D01*
X13798214Y-23326286D01*
X13812500Y-23312000D01*
X13841071Y-23297714D01*
X14041071Y-23297714D02*
X14226786Y-23297714D01*
X14126786Y-23412000D01*
X14169643Y-23412000D01*
X14198214Y-23426286D01*
X14212500Y-23440571D01*
X14226786Y-23469143D01*
X14226786Y-23540571D01*
X14212500Y-23569143D01*
X14198214Y-23583429D01*
X14169643Y-23597714D01*
X14083928Y-23597714D01*
X14055357Y-23583429D01*
X14041071Y-23569143D01*
X14326786Y-23297714D02*
X14512500Y-23297714D01*
X14412500Y-23412000D01*
X14455357Y-23412000D01*
X14483928Y-23426286D01*
X14498214Y-23440571D01*
X14512500Y-23469143D01*
X14512500Y-23540571D01*
X14498214Y-23569143D01*
X14483928Y-23583429D01*
X14455357Y-23597714D01*
X14369643Y-23597714D01*
X14341071Y-23583429D01*
X14326786Y-23569143D01*
X14626786Y-23297714D02*
X14626786Y-23354857D01*
X14741071Y-23297714D02*
X14741071Y-23354857D01*
X15183928Y-23712000D02*
X15169643Y-23697714D01*
X15141071Y-23654857D01*
X15126786Y-23626286D01*
X15112500Y-23583429D01*
X15098214Y-23512000D01*
X15098214Y-23454857D01*
X15112500Y-23383429D01*
X15126786Y-23340571D01*
X15141071Y-23312000D01*
X15169643Y-23269143D01*
X15183928Y-23254857D01*
X15355357Y-23297714D02*
X15383928Y-23297714D01*
X15412500Y-23312000D01*
X15426786Y-23326286D01*
X15441071Y-23354857D01*
X15455357Y-23412000D01*
X15455357Y-23483429D01*
X15441071Y-23540571D01*
X15426786Y-23569143D01*
X15412500Y-23583429D01*
X15383928Y-23597714D01*
X15355357Y-23597714D01*
X15326786Y-23583429D01*
X15312500Y-23569143D01*
X15298214Y-23540571D01*
X15283928Y-23483429D01*
X15283928Y-23412000D01*
X15298214Y-23354857D01*
X15312500Y-23326286D01*
X15326786Y-23312000D01*
X15355357Y-23297714D01*
X15812500Y-23597714D02*
X15812500Y-23297714D01*
X15941071Y-23597714D02*
X15941071Y-23440571D01*
X15926786Y-23412000D01*
X15898214Y-23397714D01*
X15855357Y-23397714D01*
X15826786Y-23412000D01*
X15812500Y-23426286D01*
X16126786Y-23597714D02*
X16098214Y-23583429D01*
X16083928Y-23569143D01*
X16069643Y-23540571D01*
X16069643Y-23454857D01*
X16083928Y-23426286D01*
X16098214Y-23412000D01*
X16126786Y-23397714D01*
X16169643Y-23397714D01*
X16198214Y-23412000D01*
X16212500Y-23426286D01*
X16226786Y-23454857D01*
X16226786Y-23540571D01*
X16212500Y-23569143D01*
X16198214Y-23583429D01*
X16169643Y-23597714D01*
X16126786Y-23597714D01*
X16398214Y-23597714D02*
X16369643Y-23583429D01*
X16355357Y-23554857D01*
X16355357Y-23297714D01*
X16626786Y-23583429D02*
X16598214Y-23597714D01*
X16541071Y-23597714D01*
X16512500Y-23583429D01*
X16498214Y-23554857D01*
X16498214Y-23440571D01*
X16512500Y-23412000D01*
X16541071Y-23397714D01*
X16598214Y-23397714D01*
X16626786Y-23412000D01*
X16641071Y-23440571D01*
X16641071Y-23469143D01*
X16498214Y-23497714D01*
X16755357Y-23583429D02*
X16783928Y-23597714D01*
X16841071Y-23597714D01*
X16869643Y-23583429D01*
X16883928Y-23554857D01*
X16883928Y-23540571D01*
X16869643Y-23512000D01*
X16841071Y-23497714D01*
X16798214Y-23497714D01*
X16769643Y-23483429D01*
X16755357Y-23454857D01*
X16755357Y-23440571D01*
X16769643Y-23412000D01*
X16798214Y-23397714D01*
X16841071Y-23397714D01*
X16869643Y-23412000D01*
X17241071Y-23483429D02*
X17469643Y-23483429D01*
X17355357Y-23597714D02*
X17355357Y-23369143D01*
X17969643Y-23397714D02*
X17969643Y-23597714D01*
X17898214Y-23283429D02*
X17826786Y-23497714D01*
X18012500Y-23497714D01*
X18341071Y-23583429D02*
X18369643Y-23597714D01*
X18426786Y-23597714D01*
X18455357Y-23583429D01*
X18469643Y-23554857D01*
X18469643Y-23540571D01*
X18455357Y-23512000D01*
X18426786Y-23497714D01*
X18383928Y-23497714D01*
X18355357Y-23483429D01*
X18341071Y-23454857D01*
X18341071Y-23440571D01*
X18355357Y-23412000D01*
X18383928Y-23397714D01*
X18426786Y-23397714D01*
X18455357Y-23412000D01*
X18641071Y-23597714D02*
X18612500Y-23583429D01*
X18598214Y-23554857D01*
X18598214Y-23297714D01*
X18798214Y-23597714D02*
X18769643Y-23583429D01*
X18755357Y-23569143D01*
X18741071Y-23540571D01*
X18741071Y-23454857D01*
X18755357Y-23426286D01*
X18769643Y-23412000D01*
X18798214Y-23397714D01*
X18841071Y-23397714D01*
X18869643Y-23412000D01*
X18883928Y-23426286D01*
X18898214Y-23454857D01*
X18898214Y-23540571D01*
X18883928Y-23569143D01*
X18869643Y-23583429D01*
X18841071Y-23597714D01*
X18798214Y-23597714D01*
X18983928Y-23397714D02*
X19098214Y-23397714D01*
X19026786Y-23297714D02*
X19026786Y-23554857D01*
X19041071Y-23583429D01*
X19069643Y-23597714D01*
X19098214Y-23597714D01*
X19183928Y-23583429D02*
X19212500Y-23597714D01*
X19269643Y-23597714D01*
X19298214Y-23583429D01*
X19312500Y-23554857D01*
X19312500Y-23540571D01*
X19298214Y-23512000D01*
X19269643Y-23497714D01*
X19226786Y-23497714D01*
X19198214Y-23483429D01*
X19183928Y-23454857D01*
X19183928Y-23440571D01*
X19198214Y-23412000D01*
X19226786Y-23397714D01*
X19269643Y-23397714D01*
X19298214Y-23412000D01*
X19412500Y-23712000D02*
X19426786Y-23697714D01*
X19455357Y-23654857D01*
X19469643Y-23626286D01*
X19483928Y-23583429D01*
X19498214Y-23512000D01*
X19498214Y-23454857D01*
X19483928Y-23383429D01*
X19469643Y-23340571D01*
X19455357Y-23312000D01*
X19426786Y-23269143D01*
X19412500Y-23254857D01*
X10407500Y-23813000D02*
X10497500Y-23903000D01*
X10497500Y-23813000D02*
X10407500Y-23903000D01*
X10452500Y-23903000D02*
X10497500Y-23858000D01*
X10452500Y-23813000D01*
X10407500Y-23858000D01*
X10452500Y-23903000D01*
X10841071Y-23693714D02*
X10869643Y-23693714D01*
X10898214Y-23708000D01*
X10912500Y-23722286D01*
X10926786Y-23750857D01*
X10941071Y-23808000D01*
X10941071Y-23879429D01*
X10926786Y-23936571D01*
X10912500Y-23965143D01*
X10898214Y-23979429D01*
X10869643Y-23993714D01*
X10841071Y-23993714D01*
X10812500Y-23979429D01*
X10798214Y-23965143D01*
X10783928Y-23936571D01*
X10769643Y-23879429D01*
X10769643Y-23808000D01*
X10783928Y-23750857D01*
X10798214Y-23722286D01*
X10812500Y-23708000D01*
X10841071Y-23693714D01*
X11069643Y-23965143D02*
X11083928Y-23979429D01*
X11069643Y-23993714D01*
X11055357Y-23979429D01*
X11069643Y-23965143D01*
X11069643Y-23993714D01*
X11226786Y-23993714D02*
X11283928Y-23993714D01*
X11312500Y-23979429D01*
X11326786Y-23965143D01*
X11355357Y-23922286D01*
X11369643Y-23865143D01*
X11369643Y-23750857D01*
X11355357Y-23722286D01*
X11341071Y-23708000D01*
X11312500Y-23693714D01*
X11255357Y-23693714D01*
X11226786Y-23708000D01*
X11212500Y-23722286D01*
X11198214Y-23750857D01*
X11198214Y-23822286D01*
X11212500Y-23850857D01*
X11226786Y-23865143D01*
X11255357Y-23879429D01*
X11312500Y-23879429D01*
X11341071Y-23865143D01*
X11355357Y-23850857D01*
X11369643Y-23822286D01*
X11555357Y-23693714D02*
X11583928Y-23693714D01*
X11612500Y-23708000D01*
X11626786Y-23722286D01*
X11641071Y-23750857D01*
X11655357Y-23808000D01*
X11655357Y-23879429D01*
X11641071Y-23936571D01*
X11626786Y-23965143D01*
X11612500Y-23979429D01*
X11583928Y-23993714D01*
X11555357Y-23993714D01*
X11526786Y-23979429D01*
X11512500Y-23965143D01*
X11498214Y-23936571D01*
X11483928Y-23879429D01*
X11483928Y-23808000D01*
X11498214Y-23750857D01*
X11512500Y-23722286D01*
X11526786Y-23708000D01*
X11555357Y-23693714D01*
X11783928Y-23993714D02*
X11783928Y-23793714D01*
X11783928Y-23822286D02*
X11798214Y-23808000D01*
X11826786Y-23793714D01*
X11869643Y-23793714D01*
X11898214Y-23808000D01*
X11912500Y-23836571D01*
X11912500Y-23993714D01*
X11912500Y-23836571D02*
X11926786Y-23808000D01*
X11955357Y-23793714D01*
X11998214Y-23793714D01*
X12026786Y-23808000D01*
X12041071Y-23836571D01*
X12041071Y-23993714D01*
X12183928Y-23993714D02*
X12183928Y-23793714D01*
X12183928Y-23822286D02*
X12198214Y-23808000D01*
X12226786Y-23793714D01*
X12269643Y-23793714D01*
X12298214Y-23808000D01*
X12312500Y-23836571D01*
X12312500Y-23993714D01*
X12312500Y-23836571D02*
X12326786Y-23808000D01*
X12355357Y-23793714D01*
X12398214Y-23793714D01*
X12426786Y-23808000D01*
X12441071Y-23836571D01*
X12441071Y-23993714D01*
X13026786Y-23679429D02*
X12769643Y-24065143D01*
X13412500Y-23693714D02*
X13441071Y-23693714D01*
X13469643Y-23708000D01*
X13483928Y-23722286D01*
X13498214Y-23750857D01*
X13512500Y-23808000D01*
X13512500Y-23879429D01*
X13498214Y-23936571D01*
X13483928Y-23965143D01*
X13469643Y-23979429D01*
X13441071Y-23993714D01*
X13412500Y-23993714D01*
X13383928Y-23979429D01*
X13369643Y-23965143D01*
X13355357Y-23936571D01*
X13341071Y-23879429D01*
X13341071Y-23808000D01*
X13355357Y-23750857D01*
X13369643Y-23722286D01*
X13383928Y-23708000D01*
X13412500Y-23693714D01*
X13641071Y-23965143D02*
X13655357Y-23979429D01*
X13641071Y-23993714D01*
X13626786Y-23979429D01*
X13641071Y-23965143D01*
X13641071Y-23993714D01*
X13841071Y-23693714D02*
X13869643Y-23693714D01*
X13898214Y-23708000D01*
X13912500Y-23722286D01*
X13926786Y-23750857D01*
X13941071Y-23808000D01*
X13941071Y-23879429D01*
X13926786Y-23936571D01*
X13912500Y-23965143D01*
X13898214Y-23979429D01*
X13869643Y-23993714D01*
X13841071Y-23993714D01*
X13812500Y-23979429D01*
X13798214Y-23965143D01*
X13783928Y-23936571D01*
X13769643Y-23879429D01*
X13769643Y-23808000D01*
X13783928Y-23750857D01*
X13798214Y-23722286D01*
X13812500Y-23708000D01*
X13841071Y-23693714D01*
X14041071Y-23693714D02*
X14226786Y-23693714D01*
X14126786Y-23808000D01*
X14169643Y-23808000D01*
X14198214Y-23822286D01*
X14212500Y-23836571D01*
X14226786Y-23865143D01*
X14226786Y-23936571D01*
X14212500Y-23965143D01*
X14198214Y-23979429D01*
X14169643Y-23993714D01*
X14083928Y-23993714D01*
X14055357Y-23979429D01*
X14041071Y-23965143D01*
X14498214Y-23693714D02*
X14355357Y-23693714D01*
X14341071Y-23836571D01*
X14355357Y-23822286D01*
X14383928Y-23808000D01*
X14455357Y-23808000D01*
X14483928Y-23822286D01*
X14498214Y-23836571D01*
X14512500Y-23865143D01*
X14512500Y-23936571D01*
X14498214Y-23965143D01*
X14483928Y-23979429D01*
X14455357Y-23993714D01*
X14383928Y-23993714D01*
X14355357Y-23979429D01*
X14341071Y-23965143D01*
X14626786Y-23693714D02*
X14626786Y-23750857D01*
X14741071Y-23693714D02*
X14741071Y-23750857D01*
X15183928Y-24108000D02*
X15169643Y-24093714D01*
X15141071Y-24050857D01*
X15126786Y-24022286D01*
X15112500Y-23979429D01*
X15098214Y-23908000D01*
X15098214Y-23850857D01*
X15112500Y-23779429D01*
X15126786Y-23736571D01*
X15141071Y-23708000D01*
X15169643Y-23665143D01*
X15183928Y-23650857D01*
X15355357Y-23693714D02*
X15383928Y-23693714D01*
X15412500Y-23708000D01*
X15426786Y-23722286D01*
X15441071Y-23750857D01*
X15455357Y-23808000D01*
X15455357Y-23879429D01*
X15441071Y-23936571D01*
X15426786Y-23965143D01*
X15412500Y-23979429D01*
X15383928Y-23993714D01*
X15355357Y-23993714D01*
X15326786Y-23979429D01*
X15312500Y-23965143D01*
X15298214Y-23936571D01*
X15283928Y-23879429D01*
X15283928Y-23808000D01*
X15298214Y-23750857D01*
X15312500Y-23722286D01*
X15326786Y-23708000D01*
X15355357Y-23693714D01*
X15812500Y-23993714D02*
X15812500Y-23693714D01*
X15941071Y-23993714D02*
X15941071Y-23836571D01*
X15926786Y-23808000D01*
X15898214Y-23793714D01*
X15855357Y-23793714D01*
X15826786Y-23808000D01*
X15812500Y-23822286D01*
X16126786Y-23993714D02*
X16098214Y-23979429D01*
X16083928Y-23965143D01*
X16069643Y-23936571D01*
X16069643Y-23850857D01*
X16083928Y-23822286D01*
X16098214Y-23808000D01*
X16126786Y-23793714D01*
X16169643Y-23793714D01*
X16198214Y-23808000D01*
X16212500Y-23822286D01*
X16226786Y-23850857D01*
X16226786Y-23936571D01*
X16212500Y-23965143D01*
X16198214Y-23979429D01*
X16169643Y-23993714D01*
X16126786Y-23993714D01*
X16398214Y-23993714D02*
X16369643Y-23979429D01*
X16355357Y-23950857D01*
X16355357Y-23693714D01*
X16626786Y-23979429D02*
X16598214Y-23993714D01*
X16541071Y-23993714D01*
X16512500Y-23979429D01*
X16498214Y-23950857D01*
X16498214Y-23836571D01*
X16512500Y-23808000D01*
X16541071Y-23793714D01*
X16598214Y-23793714D01*
X16626786Y-23808000D01*
X16641071Y-23836571D01*
X16641071Y-23865143D01*
X16498214Y-23893714D01*
X16755357Y-23979429D02*
X16783928Y-23993714D01*
X16841071Y-23993714D01*
X16869643Y-23979429D01*
X16883928Y-23950857D01*
X16883928Y-23936571D01*
X16869643Y-23908000D01*
X16841071Y-23893714D01*
X16798214Y-23893714D01*
X16769643Y-23879429D01*
X16755357Y-23850857D01*
X16755357Y-23836571D01*
X16769643Y-23808000D01*
X16798214Y-23793714D01*
X16841071Y-23793714D01*
X16869643Y-23808000D01*
X17241071Y-23879429D02*
X17469643Y-23879429D01*
X17355357Y-23993714D02*
X17355357Y-23765143D01*
X17983928Y-23693714D02*
X17841071Y-23693714D01*
X17826786Y-23836571D01*
X17841071Y-23822286D01*
X17869643Y-23808000D01*
X17941071Y-23808000D01*
X17969643Y-23822286D01*
X17983928Y-23836571D01*
X17998214Y-23865143D01*
X17998214Y-23936571D01*
X17983928Y-23965143D01*
X17969643Y-23979429D01*
X17941071Y-23993714D01*
X17869643Y-23993714D01*
X17841071Y-23979429D01*
X17826786Y-23965143D01*
X18341071Y-23979429D02*
X18369643Y-23993714D01*
X18426786Y-23993714D01*
X18455357Y-23979429D01*
X18469643Y-23950857D01*
X18469643Y-23936571D01*
X18455357Y-23908000D01*
X18426786Y-23893714D01*
X18383928Y-23893714D01*
X18355357Y-23879429D01*
X18341071Y-23850857D01*
X18341071Y-23836571D01*
X18355357Y-23808000D01*
X18383928Y-23793714D01*
X18426786Y-23793714D01*
X18455357Y-23808000D01*
X18641071Y-23993714D02*
X18612500Y-23979429D01*
X18598214Y-23950857D01*
X18598214Y-23693714D01*
X18798214Y-23993714D02*
X18769643Y-23979429D01*
X18755357Y-23965143D01*
X18741071Y-23936571D01*
X18741071Y-23850857D01*
X18755357Y-23822286D01*
X18769643Y-23808000D01*
X18798214Y-23793714D01*
X18841071Y-23793714D01*
X18869643Y-23808000D01*
X18883928Y-23822286D01*
X18898214Y-23850857D01*
X18898214Y-23936571D01*
X18883928Y-23965143D01*
X18869643Y-23979429D01*
X18841071Y-23993714D01*
X18798214Y-23993714D01*
X18983928Y-23793714D02*
X19098214Y-23793714D01*
X19026786Y-23693714D02*
X19026786Y-23950857D01*
X19041071Y-23979429D01*
X19069643Y-23993714D01*
X19098214Y-23993714D01*
X19183928Y-23979429D02*
X19212500Y-23993714D01*
X19269643Y-23993714D01*
X19298214Y-23979429D01*
X19312500Y-23950857D01*
X19312500Y-23936571D01*
X19298214Y-23908000D01*
X19269643Y-23893714D01*
X19226786Y-23893714D01*
X19198214Y-23879429D01*
X19183928Y-23850857D01*
X19183928Y-23836571D01*
X19198214Y-23808000D01*
X19226786Y-23793714D01*
X19269643Y-23793714D01*
X19298214Y-23808000D01*
X19412500Y-24108000D02*
X19426786Y-24093714D01*
X19455357Y-24050857D01*
X19469643Y-24022286D01*
X19483928Y-23979429D01*
X19498214Y-23908000D01*
X19498214Y-23850857D01*
X19483928Y-23779429D01*
X19469643Y-23736571D01*
X19455357Y-23708000D01*
X19426786Y-23665143D01*
X19412500Y-23650857D01*
X10447500Y-24204000D02*
X10447500Y-24304000D01*
X10397500Y-24254000D02*
X10497500Y-24254000D01*
X10497500Y-24254000D02*
G75*
G03X10497500Y-24254000I-50000J0D01*
G01*
X10941071Y-24389714D02*
X10769643Y-24389714D01*
X10855357Y-24389714D02*
X10855357Y-24089714D01*
X10826786Y-24132571D01*
X10798214Y-24161143D01*
X10769643Y-24175429D01*
X11069643Y-24361143D02*
X11083928Y-24375429D01*
X11069643Y-24389714D01*
X11055357Y-24375429D01*
X11069643Y-24361143D01*
X11069643Y-24389714D01*
X11269643Y-24089714D02*
X11298214Y-24089714D01*
X11326786Y-24104000D01*
X11341071Y-24118286D01*
X11355357Y-24146857D01*
X11369643Y-24204000D01*
X11369643Y-24275429D01*
X11355357Y-24332571D01*
X11341071Y-24361143D01*
X11326786Y-24375429D01*
X11298214Y-24389714D01*
X11269643Y-24389714D01*
X11241071Y-24375429D01*
X11226786Y-24361143D01*
X11212500Y-24332571D01*
X11198214Y-24275429D01*
X11198214Y-24204000D01*
X11212500Y-24146857D01*
X11226786Y-24118286D01*
X11241071Y-24104000D01*
X11269643Y-24089714D01*
X11555357Y-24089714D02*
X11583928Y-24089714D01*
X11612500Y-24104000D01*
X11626786Y-24118286D01*
X11641071Y-24146857D01*
X11655357Y-24204000D01*
X11655357Y-24275429D01*
X11641071Y-24332571D01*
X11626786Y-24361143D01*
X11612500Y-24375429D01*
X11583928Y-24389714D01*
X11555357Y-24389714D01*
X11526786Y-24375429D01*
X11512500Y-24361143D01*
X11498214Y-24332571D01*
X11483928Y-24275429D01*
X11483928Y-24204000D01*
X11498214Y-24146857D01*
X11512500Y-24118286D01*
X11526786Y-24104000D01*
X11555357Y-24089714D01*
X11783928Y-24389714D02*
X11783928Y-24189714D01*
X11783928Y-24218286D02*
X11798214Y-24204000D01*
X11826786Y-24189714D01*
X11869643Y-24189714D01*
X11898214Y-24204000D01*
X11912500Y-24232571D01*
X11912500Y-24389714D01*
X11912500Y-24232571D02*
X11926786Y-24204000D01*
X11955357Y-24189714D01*
X11998214Y-24189714D01*
X12026786Y-24204000D01*
X12041071Y-24232571D01*
X12041071Y-24389714D01*
X12183928Y-24389714D02*
X12183928Y-24189714D01*
X12183928Y-24218286D02*
X12198214Y-24204000D01*
X12226786Y-24189714D01*
X12269643Y-24189714D01*
X12298214Y-24204000D01*
X12312500Y-24232571D01*
X12312500Y-24389714D01*
X12312500Y-24232571D02*
X12326786Y-24204000D01*
X12355357Y-24189714D01*
X12398214Y-24189714D01*
X12426786Y-24204000D01*
X12441071Y-24232571D01*
X12441071Y-24389714D01*
X13026786Y-24075429D02*
X12769643Y-24461143D01*
X13412500Y-24089714D02*
X13441071Y-24089714D01*
X13469643Y-24104000D01*
X13483928Y-24118286D01*
X13498214Y-24146857D01*
X13512500Y-24204000D01*
X13512500Y-24275429D01*
X13498214Y-24332571D01*
X13483928Y-24361143D01*
X13469643Y-24375429D01*
X13441071Y-24389714D01*
X13412500Y-24389714D01*
X13383928Y-24375429D01*
X13369643Y-24361143D01*
X13355357Y-24332571D01*
X13341071Y-24275429D01*
X13341071Y-24204000D01*
X13355357Y-24146857D01*
X13369643Y-24118286D01*
X13383928Y-24104000D01*
X13412500Y-24089714D01*
X13641071Y-24361143D02*
X13655357Y-24375429D01*
X13641071Y-24389714D01*
X13626786Y-24375429D01*
X13641071Y-24361143D01*
X13641071Y-24389714D01*
X13841071Y-24089714D02*
X13869643Y-24089714D01*
X13898214Y-24104000D01*
X13912500Y-24118286D01*
X13926786Y-24146857D01*
X13941071Y-24204000D01*
X13941071Y-24275429D01*
X13926786Y-24332571D01*
X13912500Y-24361143D01*
X13898214Y-24375429D01*
X13869643Y-24389714D01*
X13841071Y-24389714D01*
X13812500Y-24375429D01*
X13798214Y-24361143D01*
X13783928Y-24332571D01*
X13769643Y-24275429D01*
X13769643Y-24204000D01*
X13783928Y-24146857D01*
X13798214Y-24118286D01*
X13812500Y-24104000D01*
X13841071Y-24089714D01*
X14041071Y-24089714D02*
X14226786Y-24089714D01*
X14126786Y-24204000D01*
X14169643Y-24204000D01*
X14198214Y-24218286D01*
X14212500Y-24232571D01*
X14226786Y-24261143D01*
X14226786Y-24332571D01*
X14212500Y-24361143D01*
X14198214Y-24375429D01*
X14169643Y-24389714D01*
X14083928Y-24389714D01*
X14055357Y-24375429D01*
X14041071Y-24361143D01*
X14369643Y-24389714D02*
X14426786Y-24389714D01*
X14455357Y-24375429D01*
X14469643Y-24361143D01*
X14498214Y-24318286D01*
X14512500Y-24261143D01*
X14512500Y-24146857D01*
X14498214Y-24118286D01*
X14483928Y-24104000D01*
X14455357Y-24089714D01*
X14398214Y-24089714D01*
X14369643Y-24104000D01*
X14355357Y-24118286D01*
X14341071Y-24146857D01*
X14341071Y-24218286D01*
X14355357Y-24246857D01*
X14369643Y-24261143D01*
X14398214Y-24275429D01*
X14455357Y-24275429D01*
X14483928Y-24261143D01*
X14498214Y-24246857D01*
X14512500Y-24218286D01*
X14626786Y-24089714D02*
X14626786Y-24146857D01*
X14741071Y-24089714D02*
X14741071Y-24146857D01*
X15183928Y-24504000D02*
X15169643Y-24489714D01*
X15141071Y-24446857D01*
X15126786Y-24418286D01*
X15112500Y-24375429D01*
X15098214Y-24304000D01*
X15098214Y-24246857D01*
X15112500Y-24175429D01*
X15126786Y-24132571D01*
X15141071Y-24104000D01*
X15169643Y-24061143D01*
X15183928Y-24046857D01*
X15283928Y-24118286D02*
X15298214Y-24104000D01*
X15326786Y-24089714D01*
X15398214Y-24089714D01*
X15426786Y-24104000D01*
X15441071Y-24118286D01*
X15455357Y-24146857D01*
X15455357Y-24175429D01*
X15441071Y-24218286D01*
X15269643Y-24389714D01*
X15455357Y-24389714D01*
X15598214Y-24389714D02*
X15655357Y-24389714D01*
X15683928Y-24375429D01*
X15698214Y-24361143D01*
X15726786Y-24318286D01*
X15741071Y-24261143D01*
X15741071Y-24146857D01*
X15726786Y-24118286D01*
X15712500Y-24104000D01*
X15683928Y-24089714D01*
X15626786Y-24089714D01*
X15598214Y-24104000D01*
X15583928Y-24118286D01*
X15569643Y-24146857D01*
X15569643Y-24218286D01*
X15583928Y-24246857D01*
X15598214Y-24261143D01*
X15626786Y-24275429D01*
X15683928Y-24275429D01*
X15712500Y-24261143D01*
X15726786Y-24246857D01*
X15741071Y-24218286D01*
X16098214Y-24389714D02*
X16098214Y-24089714D01*
X16226786Y-24389714D02*
X16226786Y-24232571D01*
X16212500Y-24204000D01*
X16183928Y-24189714D01*
X16141071Y-24189714D01*
X16112500Y-24204000D01*
X16098214Y-24218286D01*
X16412500Y-24389714D02*
X16383928Y-24375429D01*
X16369643Y-24361143D01*
X16355357Y-24332571D01*
X16355357Y-24246857D01*
X16369643Y-24218286D01*
X16383928Y-24204000D01*
X16412500Y-24189714D01*
X16455357Y-24189714D01*
X16483928Y-24204000D01*
X16498214Y-24218286D01*
X16512500Y-24246857D01*
X16512500Y-24332571D01*
X16498214Y-24361143D01*
X16483928Y-24375429D01*
X16455357Y-24389714D01*
X16412500Y-24389714D01*
X16683928Y-24389714D02*
X16655357Y-24375429D01*
X16641071Y-24346857D01*
X16641071Y-24089714D01*
X16912500Y-24375429D02*
X16883928Y-24389714D01*
X16826786Y-24389714D01*
X16798214Y-24375429D01*
X16783928Y-24346857D01*
X16783928Y-24232571D01*
X16798214Y-24204000D01*
X16826786Y-24189714D01*
X16883928Y-24189714D01*
X16912500Y-24204000D01*
X16926786Y-24232571D01*
X16926786Y-24261143D01*
X16783928Y-24289714D01*
X17041071Y-24375429D02*
X17069643Y-24389714D01*
X17126786Y-24389714D01*
X17155357Y-24375429D01*
X17169643Y-24346857D01*
X17169643Y-24332571D01*
X17155357Y-24304000D01*
X17126786Y-24289714D01*
X17083928Y-24289714D01*
X17055357Y-24275429D01*
X17041071Y-24246857D01*
X17041071Y-24232571D01*
X17055357Y-24204000D01*
X17083928Y-24189714D01*
X17126786Y-24189714D01*
X17155357Y-24204000D01*
X17526786Y-24275429D02*
X17755357Y-24275429D01*
X17641071Y-24389714D02*
X17641071Y-24161143D01*
X18255357Y-24189714D02*
X18255357Y-24389714D01*
X18183928Y-24075429D02*
X18112500Y-24289714D01*
X18298214Y-24289714D01*
X18626786Y-24375429D02*
X18655357Y-24389714D01*
X18712500Y-24389714D01*
X18741071Y-24375429D01*
X18755357Y-24346857D01*
X18755357Y-24332571D01*
X18741071Y-24304000D01*
X18712500Y-24289714D01*
X18669643Y-24289714D01*
X18641071Y-24275429D01*
X18626786Y-24246857D01*
X18626786Y-24232571D01*
X18641071Y-24204000D01*
X18669643Y-24189714D01*
X18712500Y-24189714D01*
X18741071Y-24204000D01*
X18926786Y-24389714D02*
X18898214Y-24375429D01*
X18883928Y-24346857D01*
X18883928Y-24089714D01*
X19083928Y-24389714D02*
X19055357Y-24375429D01*
X19041071Y-24361143D01*
X19026786Y-24332571D01*
X19026786Y-24246857D01*
X19041071Y-24218286D01*
X19055357Y-24204000D01*
X19083928Y-24189714D01*
X19126786Y-24189714D01*
X19155357Y-24204000D01*
X19169643Y-24218286D01*
X19183928Y-24246857D01*
X19183928Y-24332571D01*
X19169643Y-24361143D01*
X19155357Y-24375429D01*
X19126786Y-24389714D01*
X19083928Y-24389714D01*
X19269643Y-24189714D02*
X19383928Y-24189714D01*
X19312500Y-24089714D02*
X19312500Y-24346857D01*
X19326786Y-24375429D01*
X19355357Y-24389714D01*
X19383928Y-24389714D01*
X19469643Y-24375429D02*
X19498214Y-24389714D01*
X19555357Y-24389714D01*
X19583928Y-24375429D01*
X19598214Y-24346857D01*
X19598214Y-24332571D01*
X19583928Y-24304000D01*
X19555357Y-24289714D01*
X19512500Y-24289714D01*
X19483928Y-24275429D01*
X19469643Y-24246857D01*
X19469643Y-24232571D01*
X19483928Y-24204000D01*
X19512500Y-24189714D01*
X19555357Y-24189714D01*
X19583928Y-24204000D01*
X19698214Y-24504000D02*
X19712500Y-24489714D01*
X19741071Y-24446857D01*
X19755357Y-24418286D01*
X19769643Y-24375429D01*
X19783928Y-24304000D01*
X19783928Y-24246857D01*
X19769643Y-24175429D01*
X19755357Y-24132571D01*
X19741071Y-24104000D01*
X19712500Y-24061143D01*
X19698214Y-24046857D01*
X10479927Y-24692427D02*
X10479927Y-24607573D01*
X10395073Y-24607573D01*
X10395073Y-24692427D01*
X10479927Y-24692427D01*
X10497500Y-24650000D02*
G75*
G03X10497500Y-24650000I-60000J0D01*
G01*
X10941071Y-24785714D02*
X10769643Y-24785714D01*
X10855357Y-24785714D02*
X10855357Y-24485714D01*
X10826786Y-24528571D01*
X10798214Y-24557143D01*
X10769643Y-24571429D01*
X11069643Y-24757143D02*
X11083928Y-24771429D01*
X11069643Y-24785714D01*
X11055357Y-24771429D01*
X11069643Y-24757143D01*
X11069643Y-24785714D01*
X11198214Y-24514286D02*
X11212500Y-24500000D01*
X11241071Y-24485714D01*
X11312500Y-24485714D01*
X11341071Y-24500000D01*
X11355357Y-24514286D01*
X11369643Y-24542857D01*
X11369643Y-24571429D01*
X11355357Y-24614286D01*
X11183928Y-24785714D01*
X11369643Y-24785714D01*
X11555357Y-24485714D02*
X11583928Y-24485714D01*
X11612500Y-24500000D01*
X11626786Y-24514286D01*
X11641071Y-24542857D01*
X11655357Y-24600000D01*
X11655357Y-24671429D01*
X11641071Y-24728571D01*
X11626786Y-24757143D01*
X11612500Y-24771429D01*
X11583928Y-24785714D01*
X11555357Y-24785714D01*
X11526786Y-24771429D01*
X11512500Y-24757143D01*
X11498214Y-24728571D01*
X11483928Y-24671429D01*
X11483928Y-24600000D01*
X11498214Y-24542857D01*
X11512500Y-24514286D01*
X11526786Y-24500000D01*
X11555357Y-24485714D01*
X11783928Y-24785714D02*
X11783928Y-24585714D01*
X11783928Y-24614286D02*
X11798214Y-24600000D01*
X11826786Y-24585714D01*
X11869643Y-24585714D01*
X11898214Y-24600000D01*
X11912500Y-24628571D01*
X11912500Y-24785714D01*
X11912500Y-24628571D02*
X11926786Y-24600000D01*
X11955357Y-24585714D01*
X11998214Y-24585714D01*
X12026786Y-24600000D01*
X12041071Y-24628571D01*
X12041071Y-24785714D01*
X12183928Y-24785714D02*
X12183928Y-24585714D01*
X12183928Y-24614286D02*
X12198214Y-24600000D01*
X12226786Y-24585714D01*
X12269643Y-24585714D01*
X12298214Y-24600000D01*
X12312500Y-24628571D01*
X12312500Y-24785714D01*
X12312500Y-24628571D02*
X12326786Y-24600000D01*
X12355357Y-24585714D01*
X12398214Y-24585714D01*
X12426786Y-24600000D01*
X12441071Y-24628571D01*
X12441071Y-24785714D01*
X13026786Y-24471429D02*
X12769643Y-24857143D01*
X13412500Y-24485714D02*
X13441071Y-24485714D01*
X13469643Y-24500000D01*
X13483928Y-24514286D01*
X13498214Y-24542857D01*
X13512500Y-24600000D01*
X13512500Y-24671429D01*
X13498214Y-24728571D01*
X13483928Y-24757143D01*
X13469643Y-24771429D01*
X13441071Y-24785714D01*
X13412500Y-24785714D01*
X13383928Y-24771429D01*
X13369643Y-24757143D01*
X13355357Y-24728571D01*
X13341071Y-24671429D01*
X13341071Y-24600000D01*
X13355357Y-24542857D01*
X13369643Y-24514286D01*
X13383928Y-24500000D01*
X13412500Y-24485714D01*
X13641071Y-24757143D02*
X13655357Y-24771429D01*
X13641071Y-24785714D01*
X13626786Y-24771429D01*
X13641071Y-24757143D01*
X13641071Y-24785714D01*
X13841071Y-24485714D02*
X13869643Y-24485714D01*
X13898214Y-24500000D01*
X13912500Y-24514286D01*
X13926786Y-24542857D01*
X13941071Y-24600000D01*
X13941071Y-24671429D01*
X13926786Y-24728571D01*
X13912500Y-24757143D01*
X13898214Y-24771429D01*
X13869643Y-24785714D01*
X13841071Y-24785714D01*
X13812500Y-24771429D01*
X13798214Y-24757143D01*
X13783928Y-24728571D01*
X13769643Y-24671429D01*
X13769643Y-24600000D01*
X13783928Y-24542857D01*
X13798214Y-24514286D01*
X13812500Y-24500000D01*
X13841071Y-24485714D01*
X14198214Y-24585714D02*
X14198214Y-24785714D01*
X14126786Y-24471429D02*
X14055357Y-24685714D01*
X14241071Y-24685714D01*
X14326786Y-24485714D02*
X14526786Y-24485714D01*
X14398214Y-24785714D01*
X14626786Y-24485714D02*
X14626786Y-24542857D01*
X14741071Y-24485714D02*
X14741071Y-24542857D01*
X15183928Y-24900000D02*
X15169643Y-24885714D01*
X15141071Y-24842857D01*
X15126786Y-24814286D01*
X15112500Y-24771429D01*
X15098214Y-24700000D01*
X15098214Y-24642857D01*
X15112500Y-24571429D01*
X15126786Y-24528571D01*
X15141071Y-24500000D01*
X15169643Y-24457143D01*
X15183928Y-24442857D01*
X15283928Y-24514286D02*
X15298214Y-24500000D01*
X15326786Y-24485714D01*
X15398214Y-24485714D01*
X15426786Y-24500000D01*
X15441071Y-24514286D01*
X15455357Y-24542857D01*
X15455357Y-24571429D01*
X15441071Y-24614286D01*
X15269643Y-24785714D01*
X15455357Y-24785714D01*
X15812500Y-24785714D02*
X15812500Y-24485714D01*
X15941071Y-24785714D02*
X15941071Y-24628571D01*
X15926786Y-24600000D01*
X15898214Y-24585714D01*
X15855357Y-24585714D01*
X15826786Y-24600000D01*
X15812500Y-24614286D01*
X16126786Y-24785714D02*
X16098214Y-24771429D01*
X16083928Y-24757143D01*
X16069643Y-24728571D01*
X16069643Y-24642857D01*
X16083928Y-24614286D01*
X16098214Y-24600000D01*
X16126786Y-24585714D01*
X16169643Y-24585714D01*
X16198214Y-24600000D01*
X16212500Y-24614286D01*
X16226786Y-24642857D01*
X16226786Y-24728571D01*
X16212500Y-24757143D01*
X16198214Y-24771429D01*
X16169643Y-24785714D01*
X16126786Y-24785714D01*
X16398214Y-24785714D02*
X16369643Y-24771429D01*
X16355357Y-24742857D01*
X16355357Y-24485714D01*
X16626786Y-24771429D02*
X16598214Y-24785714D01*
X16541071Y-24785714D01*
X16512500Y-24771429D01*
X16498214Y-24742857D01*
X16498214Y-24628571D01*
X16512500Y-24600000D01*
X16541071Y-24585714D01*
X16598214Y-24585714D01*
X16626786Y-24600000D01*
X16641071Y-24628571D01*
X16641071Y-24657143D01*
X16498214Y-24685714D01*
X16755357Y-24771429D02*
X16783928Y-24785714D01*
X16841071Y-24785714D01*
X16869643Y-24771429D01*
X16883928Y-24742857D01*
X16883928Y-24728571D01*
X16869643Y-24700000D01*
X16841071Y-24685714D01*
X16798214Y-24685714D01*
X16769643Y-24671429D01*
X16755357Y-24642857D01*
X16755357Y-24628571D01*
X16769643Y-24600000D01*
X16798214Y-24585714D01*
X16841071Y-24585714D01*
X16869643Y-24600000D01*
X16983928Y-24900000D02*
X16998214Y-24885714D01*
X17026786Y-24842857D01*
X17041071Y-24814286D01*
X17055357Y-24771429D01*
X17069643Y-24700000D01*
X17069643Y-24642857D01*
X17055357Y-24571429D01*
X17041071Y-24528571D01*
X17026786Y-24500000D01*
X16998214Y-24457143D01*
X16983928Y-24442857D01*
X10347500Y-25196000D02*
X10497500Y-25046000D01*
X10347500Y-24896000D01*
X10197500Y-25046000D01*
X10347500Y-25196000D01*
X10497500Y-25046000D02*
G75*
G03X10497500Y-25046000I-150000J0D01*
G01*
X10755357Y-24881714D02*
X10941071Y-24881714D01*
X10841071Y-24996000D01*
X10883928Y-24996000D01*
X10912500Y-25010286D01*
X10926786Y-25024571D01*
X10941071Y-25053143D01*
X10941071Y-25124571D01*
X10926786Y-25153143D01*
X10912500Y-25167429D01*
X10883928Y-25181714D01*
X10798214Y-25181714D01*
X10769643Y-25167429D01*
X10755357Y-25153143D01*
X11069643Y-25153143D02*
X11083928Y-25167429D01*
X11069643Y-25181714D01*
X11055357Y-25167429D01*
X11069643Y-25153143D01*
X11069643Y-25181714D01*
X11269643Y-24881714D02*
X11298214Y-24881714D01*
X11326786Y-24896000D01*
X11341071Y-24910286D01*
X11355357Y-24938857D01*
X11369643Y-24996000D01*
X11369643Y-25067429D01*
X11355357Y-25124571D01*
X11341071Y-25153143D01*
X11326786Y-25167429D01*
X11298214Y-25181714D01*
X11269643Y-25181714D01*
X11241071Y-25167429D01*
X11226786Y-25153143D01*
X11212500Y-25124571D01*
X11198214Y-25067429D01*
X11198214Y-24996000D01*
X11212500Y-24938857D01*
X11226786Y-24910286D01*
X11241071Y-24896000D01*
X11269643Y-24881714D01*
X11555357Y-24881714D02*
X11583928Y-24881714D01*
X11612500Y-24896000D01*
X11626786Y-24910286D01*
X11641071Y-24938857D01*
X11655357Y-24996000D01*
X11655357Y-25067429D01*
X11641071Y-25124571D01*
X11626786Y-25153143D01*
X11612500Y-25167429D01*
X11583928Y-25181714D01*
X11555357Y-25181714D01*
X11526786Y-25167429D01*
X11512500Y-25153143D01*
X11498214Y-25124571D01*
X11483928Y-25067429D01*
X11483928Y-24996000D01*
X11498214Y-24938857D01*
X11512500Y-24910286D01*
X11526786Y-24896000D01*
X11555357Y-24881714D01*
X11783928Y-25181714D02*
X11783928Y-24981714D01*
X11783928Y-25010286D02*
X11798214Y-24996000D01*
X11826786Y-24981714D01*
X11869643Y-24981714D01*
X11898214Y-24996000D01*
X11912500Y-25024571D01*
X11912500Y-25181714D01*
X11912500Y-25024571D02*
X11926786Y-24996000D01*
X11955357Y-24981714D01*
X11998214Y-24981714D01*
X12026786Y-24996000D01*
X12041071Y-25024571D01*
X12041071Y-25181714D01*
X12183928Y-25181714D02*
X12183928Y-24981714D01*
X12183928Y-25010286D02*
X12198214Y-24996000D01*
X12226786Y-24981714D01*
X12269643Y-24981714D01*
X12298214Y-24996000D01*
X12312500Y-25024571D01*
X12312500Y-25181714D01*
X12312500Y-25024571D02*
X12326786Y-24996000D01*
X12355357Y-24981714D01*
X12398214Y-24981714D01*
X12426786Y-24996000D01*
X12441071Y-25024571D01*
X12441071Y-25181714D01*
X13026786Y-24867429D02*
X12769643Y-25253143D01*
X13412500Y-24881714D02*
X13441071Y-24881714D01*
X13469643Y-24896000D01*
X13483928Y-24910286D01*
X13498214Y-24938857D01*
X13512500Y-24996000D01*
X13512500Y-25067429D01*
X13498214Y-25124571D01*
X13483928Y-25153143D01*
X13469643Y-25167429D01*
X13441071Y-25181714D01*
X13412500Y-25181714D01*
X13383928Y-25167429D01*
X13369643Y-25153143D01*
X13355357Y-25124571D01*
X13341071Y-25067429D01*
X13341071Y-24996000D01*
X13355357Y-24938857D01*
X13369643Y-24910286D01*
X13383928Y-24896000D01*
X13412500Y-24881714D01*
X13641071Y-25153143D02*
X13655357Y-25167429D01*
X13641071Y-25181714D01*
X13626786Y-25167429D01*
X13641071Y-25153143D01*
X13641071Y-25181714D01*
X13941071Y-25181714D02*
X13769643Y-25181714D01*
X13855357Y-25181714D02*
X13855357Y-24881714D01*
X13826786Y-24924571D01*
X13798214Y-24953143D01*
X13769643Y-24967429D01*
X14226786Y-25181714D02*
X14055357Y-25181714D01*
X14141071Y-25181714D02*
X14141071Y-24881714D01*
X14112500Y-24924571D01*
X14083928Y-24953143D01*
X14055357Y-24967429D01*
X14398214Y-25010286D02*
X14369643Y-24996000D01*
X14355357Y-24981714D01*
X14341071Y-24953143D01*
X14341071Y-24938857D01*
X14355357Y-24910286D01*
X14369643Y-24896000D01*
X14398214Y-24881714D01*
X14455357Y-24881714D01*
X14483928Y-24896000D01*
X14498214Y-24910286D01*
X14512500Y-24938857D01*
X14512500Y-24953143D01*
X14498214Y-24981714D01*
X14483928Y-24996000D01*
X14455357Y-25010286D01*
X14398214Y-25010286D01*
X14369643Y-25024571D01*
X14355357Y-25038857D01*
X14341071Y-25067429D01*
X14341071Y-25124571D01*
X14355357Y-25153143D01*
X14369643Y-25167429D01*
X14398214Y-25181714D01*
X14455357Y-25181714D01*
X14483928Y-25167429D01*
X14498214Y-25153143D01*
X14512500Y-25124571D01*
X14512500Y-25067429D01*
X14498214Y-25038857D01*
X14483928Y-25024571D01*
X14455357Y-25010286D01*
X14626786Y-24881714D02*
X14626786Y-24938857D01*
X14741071Y-24881714D02*
X14741071Y-24938857D01*
X15183928Y-25296000D02*
X15169643Y-25281714D01*
X15141071Y-25238857D01*
X15126786Y-25210286D01*
X15112500Y-25167429D01*
X15098214Y-25096000D01*
X15098214Y-25038857D01*
X15112500Y-24967429D01*
X15126786Y-24924571D01*
X15141071Y-24896000D01*
X15169643Y-24853143D01*
X15183928Y-24838857D01*
X15455357Y-25181714D02*
X15283928Y-25181714D01*
X15369643Y-25181714D02*
X15369643Y-24881714D01*
X15341071Y-24924571D01*
X15312500Y-24953143D01*
X15283928Y-24967429D01*
X15569643Y-24910286D02*
X15583928Y-24896000D01*
X15612500Y-24881714D01*
X15683928Y-24881714D01*
X15712500Y-24896000D01*
X15726786Y-24910286D01*
X15741071Y-24938857D01*
X15741071Y-24967429D01*
X15726786Y-25010286D01*
X15555357Y-25181714D01*
X15741071Y-25181714D01*
X16098214Y-25181714D02*
X16098214Y-24881714D01*
X16226786Y-25181714D02*
X16226786Y-25024571D01*
X16212500Y-24996000D01*
X16183928Y-24981714D01*
X16141071Y-24981714D01*
X16112500Y-24996000D01*
X16098214Y-25010286D01*
X16412500Y-25181714D02*
X16383928Y-25167429D01*
X16369643Y-25153143D01*
X16355357Y-25124571D01*
X16355357Y-25038857D01*
X16369643Y-25010286D01*
X16383928Y-24996000D01*
X16412500Y-24981714D01*
X16455357Y-24981714D01*
X16483928Y-24996000D01*
X16498214Y-25010286D01*
X16512500Y-25038857D01*
X16512500Y-25124571D01*
X16498214Y-25153143D01*
X16483928Y-25167429D01*
X16455357Y-25181714D01*
X16412500Y-25181714D01*
X16683928Y-25181714D02*
X16655357Y-25167429D01*
X16641071Y-25138857D01*
X16641071Y-24881714D01*
X16912500Y-25167429D02*
X16883928Y-25181714D01*
X16826786Y-25181714D01*
X16798214Y-25167429D01*
X16783928Y-25138857D01*
X16783928Y-25024571D01*
X16798214Y-24996000D01*
X16826786Y-24981714D01*
X16883928Y-24981714D01*
X16912500Y-24996000D01*
X16926786Y-25024571D01*
X16926786Y-25053143D01*
X16783928Y-25081714D01*
X17041071Y-25167429D02*
X17069643Y-25181714D01*
X17126786Y-25181714D01*
X17155357Y-25167429D01*
X17169643Y-25138857D01*
X17169643Y-25124571D01*
X17155357Y-25096000D01*
X17126786Y-25081714D01*
X17083928Y-25081714D01*
X17055357Y-25067429D01*
X17041071Y-25038857D01*
X17041071Y-25024571D01*
X17055357Y-24996000D01*
X17083928Y-24981714D01*
X17126786Y-24981714D01*
X17155357Y-24996000D01*
X17269643Y-25296000D02*
X17283928Y-25281714D01*
X17312500Y-25238857D01*
X17326786Y-25210286D01*
X17341071Y-25167429D01*
X17355357Y-25096000D01*
X17355357Y-25038857D01*
X17341071Y-24967429D01*
X17326786Y-24924571D01*
X17312500Y-24896000D01*
X17283928Y-24853143D01*
X17269643Y-24838857D01*
M02*
